<svg height="22" viewBox="0 0 97 22" width="97" xmlns="http://www.w3.org/2000/svg"><g fill="none" transform="translate(.77 .28)"><g fill="#000"><path d="m0 .06h16.12l-1.48 4.66h-4.18v17h-5.23v-17h-5.22z"/><path d="m42.52.06h16.49l-1.48 4.66h-4.54v17h-5.22v-17h-5.24z"/><path d="m17.1 6.95h5.17v14.77h-5.13z"/><path d="m24.32 0h5.16v10.09l5.12-5h6.16l-6.47 6.28 7.25 10.35h-5.69l-4.84-7.19-1.53 1.48v5.71h-5.16z"/><path d="m79.01 0h5.22v10.09l5.11-5h6.16l-6.47 6.28 7.2 10.35h-5.69l-4.83-7.19-1.48 1.48v5.71h-5.17z"/><circle cx="19.69" cy="2.66" r="2.6"/></g><path d="m58.35 12.88c.0015814-4.61342731 3.5506475-8.44990242 8.15-8.81-.23 0-.54 0-.77 0-4.6743054.27264957-8.3252428 4.14274958-8.3252428 8.825 0 4.6822504 3.6509374 8.5523504 8.3252428 8.825h.77c-4.6108693-.3609779-8.1641086-4.2150436-8.15-8.84z" fill="#25f4ee"/><path d="m68.51 4.04c-.24 0-.55 0-.78 0 4.58446.37865637 8.1123325 4.20992889 8.1123325 8.81 0 4.6000711-3.5278725 8.4313436-8.1123325 8.81h.78c4.8821972 0 8.84-3.9578028 8.84-8.84 0-4.88219719-3.9578028-8.84-8.84-8.84z" fill="#fe2c55"/><path d="m67.11 17.18c-2.3748244 0-4.3-1.9251756-4.3-4.3s1.9251756-4.3 4.3-4.3 4.3 1.9251756 4.3 4.3c-.0054984 2.3725432-1.9274568 4.2945016-4.3 4.3zm0-13.14c-4.8821972 0-8.84 3.95780281-8.84 8.84 0 4.8821972 3.9578028 8.84 8.84 8.84s8.84-3.9578028 8.84-8.84c0-2.3445138-.9313545-4.59300236-2.5891761-6.25082395-1.6578215-1.65782158-3.9063101-2.58917605-6.2508239-2.58917605z" fill="#000"/></g></svg>