<svg height="297mm" viewBox="0 0 210 297" width="210mm" xmlns="http://www.w3.org/2000/svg" xmlns:xlink="http://www.w3.org/1999/xlink"><marker id="a" orient="auto" overflow="visible" refX="0.0" refY="0.0"><path d="m0 0 5-5-17.5 5 17.5 5z" fill-rule="evenodd" stroke="#000" stroke-width="1pt" transform="matrix(-.8 0 0 -.8 -10 0)"/></marker><marker id="b" orient="auto" overflow="visible" refX="0.0" refY="0.0"><path d="m0 0 5-5-17.5 5 17.5 5z" fill-rule="evenodd" stroke="#000" stroke-width="1pt" transform="matrix(-.8 0 0 -.8 -10 0)"/></marker><marker id="c" orient="auto" overflow="visible" refX="0.0" refY="0.0"><path d="m0 0 5-5-17.5 5 17.5 5z" fill-rule="evenodd" stroke="#000" stroke-width="1pt" transform="matrix(-.8 0 0 -.8 -10 0)"/></marker><marker id="d" orient="auto" overflow="visible" refX="0.0" refY="0.0"><path d="m0 0 5-5-17.5 5 17.5 5z" fill-rule="evenodd" stroke="#000" stroke-width="1pt" transform="matrix(-.8 0 0 -.8 -10 0)"/></marker><marker id="e" orient="auto" overflow="visible" refX="0.0" refY="0.0"><path d="m0 0 5-5-17.5 5 17.5 5z" fill-rule="evenodd" stroke="#000" stroke-width="1pt" transform="matrix(-.8 0 0 -.8 -10 0)"/></marker><text font-family="sans-serif" font-size="5.64444" stroke-width=".264583" x="71.542099" y="132.41418"><tspan x="71.542099" y="132.41418">Touch Screen (TS)</tspan></text><text font-family="sans-serif" font-size="10.5833" stroke-width=".264583" x="62.273983" y="87.592522"><tspan x="62.273983" y="87.592522">Big Screen (BS)</tspan></text><path d="m87.232597 33.532722h34.131191v12.823848h-34.131191z" fill="none" stroke="#129fe3" stroke-width="2.7"/><text font-family="sans-serif" font-size="6.35" stroke-width=".264583" x="89.689369" y="41.696476"><tspan x="89.689369" y="41.696476">Speakers</tspan></text><path d="m3.905577 232.82901h43.719601v12.458273h-43.719601z" fill="none" stroke="#f5ec13" stroke-width="2.69999"/><text font-family="sans-serif" font-size="6.35" stroke-width=".264583" x="20.54995" y="241.6866"><tspan x="20.54995" y="241.6866">RPI</tspan></text><path d="m4.159869 190.09546h43.211021v43.101547h-43.211021z" fill="none" stroke="#f5ec13" stroke-width="2.7"/><circle cx="43.134338" cy="253.19681" fill="#074d42" r=".082316" stroke="#000" stroke-width=".264583"/><text font-family="sans-serif" font-size="6.35" stroke-width=".264583" x="6.637515" y="198.25104"><tspan x="6.637515" y="198.25104">Browser</tspan><tspan x="6.637515" y="206.18854">+</tspan><tspan x="6.637515" y="214.12604">Extension</tspan><tspan x="6.637515" y="222.06354"/><tspan x="6.637515" y="230.00104">Web server</tspan></text><path d="m78.258858 234.17319h43.719601v12.458274h-43.719601z" fill="none" stroke="#f5ec13" stroke-width="2.69999"/><text font-family="sans-serif" font-size="6.35" stroke-width=".264583" x="94.903229" y="242.51897"><tspan x="94.903229" y="242.51897">NUC</tspan></text><path d="m78.513145 190.92783h43.211021v43.101547h-43.211021z" fill="none" stroke="#f5ec13" stroke-width="2.7"/><circle cx="117.48761" cy="254.02917" fill="#074d42" r=".082316" stroke="#000" stroke-width=".264583"/><text font-family="sans-serif" font-size="6.35" stroke-width=".264583" x="78.874115" y="213.37071"><tspan x="78.874115" y="213.37071">Supercollider</tspan></text><path d="m153.01759 232.72357h43.719601v12.458275h-43.719601z" fill="none" stroke="#f5ec13" stroke-width="2.69999"/><text font-family="sans-serif" font-size="6.35" stroke-width=".264583" x="169.66196" y="241.62131"><tspan x="169.66196" y="241.62131">PC</tspan></text><path d="m153.27188 190.03017h43.211021v43.101547h-43.211021z" fill="none" stroke="#f5ec13" stroke-width="2.7"/><text font-family="sans-serif" font-size="6.35" stroke-width=".264583" x="161.04108" y="202.94818"><tspan x="161.04108" y="202.94818">Browser</tspan><tspan x="161.04108" y="210.88568"/><tspan x="161.04108" y="218.82318">Windows</tspan></text><g fill="none"><path d="m47.81198 217.64723c30.246884-.0456 30.246884.0768 30.246884.0768l0 0 0 0" marker-end="url(#e)" stroke="#000" stroke-width=".465"/><path d="m20.54995 245.91993c43.26019 18.37205 125.33673 28.62317 154.82503.0121" marker-end="url(#d)" stroke="#000" stroke-width=".665"/><path d="m123.06715 205.3061s39.8404-25.15657 55.49373-49.92923c15.65333-24.77267 27.47582-83.777474 16.02959-92.982174-25.12563-20.205231-73.22669-21.982807-73.22669-21.982807" marker-end="url(#c)" stroke="#000" stroke-width=".465"/><path d="m179.99245 188.77153s23.85524-44.54776 27.30993-73.73784c3.45469-29.190077-20.53511-36.171625-20.53511-36.171625" marker-end="url(#b)" stroke="#000" stroke-width=".465"/><path d="m22.365488 62.201786s64.823385-26.854095 163.709772 0v55.124404s-91.848964-19.788998-163.709772 0z" stroke="#129fe3" stroke-linecap="round" stroke-linejoin="round" stroke-width="2.7"/><rect height="20.754967" rx="4.423925" ry="4.970267" stroke="#129fe3" stroke-linecap="round" stroke-linejoin="round" stroke-width="2.789417" transform="matrix(.99999999 -.00011129 -.34945082 .93695471 0 0)" width="54.053955" x="118.33316" y="129.07237"/><path d="m69.052633 129.00659c-42.049238-.6655-46.637785 60.38948-46.637785 60.38948" marker-end="url(#a)" stroke="#000" stroke-width=".465"/></g></svg>