<svg height="785" width="785" xmlns="http://www.w3.org/2000/svg"><path d="m378.1181 491.3473-90.8509 163.9954-14.477-6.1633-1.6621 3.1463-17.848-9.1223-17.1645-10.3469-16.3971-11.5203-15.5493-12.6368-14.6259-13.691-13.631-14.6776-12.5699-15.5918-11.4475-16.4293-10.2698-17.1858-9.0425-17.858-7.7714-18.4425-6.4633-18.9364-5.1243-19.3376-3.761-19.6443-2.3803-19.8548-.9887-19.9684.4069-19.9847 1.7995-19.9037 3.1827-19.7258 4.5494-19.452 5.8934-19.084 7.2077-18.6233 8.4866-18.0726 9.7233-17.4344 10.9124-16.7121 12.048-15.9089 13.1245-15.0293 14.137-14.0771 15.0807-13.0573 15.9511-11.9747 16.7439-10.8344 17.4556-9.6423 18.0825-8.4038 18.622-7.1251 19.0714-5.8122 19.4286-4.4714 19.6917-3.1093 19.86-1.7322 19.932-.3468 19.9081 1.0401 19.7877 2.4222 19.572 3.7926 19.2616 5.1449 18.8581 6.4725 18.3634 7.7691 17.7799 9.0285 17.11 10.2445 16.3575 11.4114 15.5253 12.5235 14.6178 13.5754 13.6391 14.562 12.5939 15.4784 11.4872 16.3203 10.3242 17.0836 9.1106 17.7642 7.852 18.3591 6.5546 18.8651 5.2247 19.2797 3.8685 19.6008 2.4927 19.8268 1.104 19.9563-.291 19.9887-1.6854 19.9238-3.0724 19.7616-4.4453 19.5029-5.7972 19.1487-7.1217 18.7009-8.412 18.1614-9.6619 17.5327-10.8653 16.8179-12.016 16.0204-13.1083 15.144-14.1371 14.193-15.0968 13.1721-15.9831 12.086-16.791 10.9404-17.517 9.7406-18.157 8.4926-18.7082 7.2026-19.1675 5.877-19.5327 4.5222-19.802 3.1451-19.9741 1.7523-20.0479.3509-20.0233-1.0523-19.9003-2.4502-19.6795-3.836-19.3619-5.2028-18.9495-6.5439-18.4439-7.8524m1.6621-3.1463-17.6037-8.9971-1.9064 3.0211m1.9064-3.0211-16.9296-10.2048-2.1413 2.879m2.1413-2.879-12.8711-9.0426 90.8426-163.7387m.5597.6922-4.4022-5.4442-4.0112-5.7378-3.6006-6.0034-3.1726-6.2396-2.7293-6.4453-2.2725-6.6196-1.805-6.7616-1.3285-6.8705-.8459-6.946-.3592-6.9876.1292-6.9951.6169-6.9685 1.1014-6.9081 1.5805-6.814 2.0517-6.6868 2.513-6.5269 2.9618-6.3355 3.3962-6.1132 3.814-5.8612 4.2132-5.5808 4.5918-5.2733 4.9479-4.9401 5.2802-4.583 5.5865-4.2037 5.8657-3.8041 6.1164-3.3859 6.3373-2.9514 6.5275-2.5026 6.6859-2.0416 6.8118-1.5707 6.9046-1.0923 6.9639-.6086 6.9894-.1218 6.9808.3654 6.9385.8509 6.8624 1.3324 6.7529 1.8073 6.6107 2.2734 6.4363 2.7286 6.2307 3.1706 5.9947 3.5972 5.7296 4.0063 5.4367 4.396 5.1171 4.7645 4.7728 5.1098 4.4051 5.4303 4.0161 5.7245 3.6073 5.9908 3.1809 6.2282 2.7392 6.4351 2.2837 6.6108 1.8172 6.7545 1.3418 6.8653.8597 6.9425.3733 6.9861-.1151 6.9956-.6029 6.971-1.0878 6.9125-1.5678 6.8202-2.0399 6.6947-2.5025 6.5364-2.9527 6.3464-3.3886 6.1252-3.8083 5.8742-4.2092 5.5944-4.5898 5.2874-4.948 4.9543-5.2821 4.5971-5.5904 4.2174-5.8715 3.817-6.124 3.398-6.3464 2.9622-6.5381 2.512-6.6976 2.0496-6.8246 1.577-6.9181 1.0966-6.9779.6111-7.0035.1223-6.995-.3669-6.9522-.8544-6.8756-1.3376-6.7652-1.8144-6.6219-2.2822-6.4462-2.7388-6.239-3.1821-6.0014-3.6097-5.7345-4.0196-5.4395-4.41-5.1182-4.7786zm-17.3087-28.4364-186.6286 3.2583-1.8689-15.5844-3.8996-.0756m3.8996.0756-.976-19.6957-3.9123-.3483m3.9123.3483.4005-19.7118-3.9059-.6212m3.9059.6212 1.412-15.6243 186.1588-3.2478m15.8556-28.7358-95.5232-159.0635 12.5208-9.4-2.2336-3.605m2.2336 3.605 16.5155-10.6872-2.0052-3.7522m2.0052 3.7522 17.2175-9.5114-1.7671-3.8831m1.7671 3.8831 14.1946-6.5972 95.4965 158.7983m33.0305-.5777 89.8905-162.0225 14.4151 6.099 1.6448-3.9424m-1.6448 3.9424 17.5374 8.9058 1.8873-3.8197m-1.8873 3.8197 16.8767 10.1053 2.1206-3.6805m-2.1206 3.6805 12.8398 8.9579-89.8991 162.2772m16.8566 28.175 186.1196-3.2471 1.9562 15.564 3.8956-.7572m-3.8956.7572 1.0881 19.6839 3.9115-.4848m-3.9115.4848-.2878 19.7157 3.9083-.2118m-3.9083.2118-1.3235 15.6387-186.5895 3.2576m-15.7775 28.322 96.4877 160.4466-12.5461 9.4867 2.2547 2.802m-2.2547-2.802-16.5614 10.7903 2.0251 2.9521m-2.0251-2.9521-17.2773 9.6069 1.7854 3.0858m-1.7854-3.0858-14.2518 6.6657-96.5143-160.714m35.5048 176.4335 1.4813 6.795m-1.4813-6.795-19.2668 3.0599.9461 6.8802m-.9461-6.8802-19.4343 1.7049.4063 6.9276m-.4063-6.9276-19.5061.3414-.1355 6.9371m.1355-6.9371-19.4822-1.0238-.6766 6.9086m.6766-6.9086-19.3624-2.3838-1.2145 6.8422m1.2145-6.8422-19.1477-3.7322-1.7463 6.7384m1.7463-6.7384-18.8389-5.0618-2.2693 6.5974m2.2693-6.5974-18.4375-6.3666-2.7813 6.4201m2.7813-6.4201-3.4051-1.4496m-61.86-34.4421-2.7027-1.8986-4.667 5.3685m4.667-5.3685-15.13-12.2949-5.0863 5.0266m5.0863-5.0266-14.2316-13.3206-5.4806 4.6562m5.4806-4.6562-13.2637-14.2807-5.8479 4.2593m5.8479-4.2593-12.2314-15.1702-6.1864 3.8377m6.1864-3.8377-11.1396-15.9852-6.4943 3.3936m6.4943-3.3936-9.9937-16.7215-6.7704 2.9293m6.7704-2.9293-8.7997-17.3756-7.0132 2.4469m7.0132-2.4469-7.5631-17.9445-7.2215 1.9489m7.2215-1.9489-6.2903-18.4253-7.3945 1.4378m7.3945-1.4378-4.9875-18.8159-7.5313.9161m7.5313-.9161-3.661-19.1144-.4648-3.8745m.4648 3.8745-7.6313.3862m-70.7995 11.2118-2.9577-24.8229-1.2179-24.9624.5267-24.9803 2.2672-24.8764 3.9955-24.6516 5.7031-24.3072 7.3816-23.8448 9.0231-23.2672 10.6197-22.5769 12.1638-21.7777 13.6477-20.8736 15.0649-19.8689 16.4081-18.7688 17.6713-17.5784 18.8484-16.3038 19.9338-14.951 20.9225-13.5267 21.8098-12.0376 22.5916-10.4911 23.2641-8.8943 23.8243-7.2552 24.2695-5.5814 24.5976-3.8811 24.8072-2.1621 24.8971-.4329 24.8672 1.2983 24.7173 3.0233 24.4483 4.7341 24.0614 6.4222 23.5585 8.0795 22.9416 9.6985 22.2142 11.2711 21.3791 12.7898 20.4406 14.2474 19.4029 15.6367 18.2709 16.9513 17.0501 18.1845 15.7461 19.3305 14.3651 20.3835 12.9138 21.3385 11.3987 22.1907 9.8275 22.9359 8.2075 23.5702 6.5465 24.0906 4.8523 24.4943 3.1335 24.779 1.398 24.9436-.3457 24.9865-2.0889 24.9079-3.8232 24.7076-5.5403 24.3865-7.2314 23.9461-8.8886 23.3883-10.5032 22.7157-12.0678 21.9313-13.5741 21.039-15.0149 20.043-16.3829 18.9481-17.6713 17.7595-18.8736 16.4831-19.9837 15.1251-20.9962 13.6921-21.9059 12.1912-22.7079 10.6298-23.3988 9.0155-23.9744 7.3565-24.4323 5.6608-24.7699 3.937-24.9855 2.1936-25.0781.4392-25.0473-1.3172-24.893-3.0672-24.6163-4.8019-24.2183-6.5127-23.7011-8.191-23.0675-9.8288-22.3207-11.4176-21.4641-12.9497-20.5025-14.4175-19.4406-15.8139-18.2836-17.132-17.0374-18.3651-15.7085-19.5076-14.3031-20.5537-12.8287-21.4984-11.2923-22.3372-9.7017-23.0662-8.0648-23.6817-6.3896-24.1811zm69.6369-90.9234 7.6566 1.7616-.2774 3.0716m.2774-3.0716 3.0955-19.1948-7.5694-2.2926m7.5694 2.2926 4.4254-18.9286-7.4454-2.816m7.4454 2.816 5.7333-18.5706-7.2853-3.3294m7.2853 3.3294 7.0124-18.1226-7.09-3.8301m7.09 3.8301 8.2569-17.5869-6.8603-4.3158m6.8603 4.3158 9.4605-16.966-6.5975-4.7842m6.5975 4.7842 10.6177-16.2631-6.3028-5.2332m6.3028 5.2332 11.7228-15.4818-5.9776-5.6603m5.9776 5.6603 12.7706-14.6259-5.6237-6.0637m5.6237 6.0637 13.756-13.6993-5.2427-6.4415m5.2427 6.4415 14.6745-12.707-4.8365-6.7918m4.8365 6.7918 2.955-2.2186m60.4724-36.1609 2.9696-1.3803-3.0004-7.8872m3.0004 7.8872 18.1213-6.9341-2.4997-8.0782m2.4997 8.0782 18.5587-5.6564-1.987-8.234m1.987 8.234 18.9063-4.3517-1.4647-8.3537m1.4647 8.3537 19.1625-3.0259-.9355-8.4371m.9355 8.4371 19.3262-1.6858-.4017-8.4835m.4017 8.4835 19.3963-.3376.134-8.4927m-.134 8.4927 19.3731 1.0123.669-8.4649m-.669 8.4649 19.2559 2.3573 1.2008-8.4m-1.2008 8.4 19.046 3.691 1.7268-8.2984m-1.7268 8.2984 18.7438 5.007 2.2446-8.1605m-2.2446 8.1605 18.351 6.2991 2.7517-7.9871m-2.7517 7.9871 3.0272 1.2808m61.6905 34.0345 3.0202 2.1072 4.6246-6.9561m-4.6246 6.9561 15.1072 12.1876 5.0427-6.6202m-5.0427 6.6202 14.224 13.2111 5.4365-6.2559m-5.4365 6.2559 13.2714 14.1712 5.8042-5.8651m-5.8042 5.8651 12.2542 15.0628 6.1439-5.4495m-6.1439 5.4495 11.1771 15.8821 6.454-5.0113m-6.454 5.0113 10.0453 16.6246 6.7329-4.5523m-6.7329 4.5523 8.8642 17.2869 6.9793-4.075m-6.9793 4.075 7.6393 17.8655 7.192-3.5814m-7.192 3.5814 6.3768 18.3577 7.3698-3.074m-7.3698 3.074 5.0825 18.7611 7.512-2.5554m-7.512 2.5554 3.7628 19.0733 7.6177-2.0279m-7.6177 2.0279.3845 3.0597m1.5154 70.6009-.3292 3.888 7.6673.1191m-7.6673-.1191-2.9911 19.2287 7.586.652m-7.586-.652-4.3268 18.9768 7.4675 1.1781m-7.4675-1.1781-5.6423 18.632 7.3126 1.6948m-7.3126-1.6948-6.9308 18.196 7.1217 2.1997m-7.1217-2.1997-8.1863 17.6709 6.896 2.6902m-6.896-2.6902-9.4024 17.0591 6.6365 3.1638m-6.6365-3.1638-10.573 16.3634 6.3442 3.6183m-6.3442-3.6183-11.6926 15.5873 6.0208 4.0514m-6.0208-4.0514-12.7553 14.7345 5.6678 4.4609m-5.6678-4.4609-13.7561 13.8091 5.2868 4.8448m-5.2868-4.8448-14.6897 12.8156 4.8797 5.2013m-4.8797-5.2013-2.6246 1.9845m-60.6127 36.5852-3.3633 1.573 3.0322 6.3182m-3.0322-6.3182-18.2029 7.0075 2.5269 6.5133m-2.5269-6.5133-18.6496 5.7178 2.009 6.6725m-2.009-6.6725-19.005 4.3997" fill="none" stroke="#03a062"/></svg>