<svg xmlns="http://www.w3.org/2000/svg"><defs><font horiz-adv-x="1196"><font-face alphabetic="0" ascent="2146" descent="-555" panose-1="0 0 0 0 0 0 0 0 0 0" units-per-em="2048"/><glyph glyph-name="space" horiz-adv-x="1202" unicode="&#x20;"/><glyph d="M648 471H466L637 1456H819L648 471ZM384 94Q385 143 415 175T496 210Q520 211 541 203T577 180 600 145 608 100Q607 51 575 21T495-12Q471-13 451-6T416 16 393 50 384 94Z" glyph-name="exclam" horiz-adv-x="1202" unicode="&#x21;"/><glyph d="M619 1419 542 1057 414 1056 475 1441 492 1545 637 1535 619 1419ZM965 1419 888 1057H761L821 1434 838 1536H985L965 1419Z" glyph-name="quotedbl" horiz-adv-x="1202" unicode="&#x26;&#x71;&#x75;&#x6f;&#x74;&#x3b;"/><glyph d="M651 410H400L251 0H106L256 410H26L50 547H304L433 901H184L209 1040H483L635 1456H780L627 1040H877L1030 1456H1174L1022 1040H1219L1195 901H972L844 547H1061L1037 410H795L646 0H501L651 410ZM449 547H699L828 901H577L449 547Z" glyph-name="numbersign" horiz-adv-x="1202" unicode="&#x23;"/><glyph d="M844 382Q850 436 834 477T785 549 711 604 624 644Q550 673 486 711T376 800 305 918 287 1072Q293 1159 325 1228T411 1348 535 1430 690 1472L729 1692H875L835 1470Q921 1453 977 1409T1065 1301 1108 1163 1114 1008H934Q937 1059 931 1113T904 1211 843 1284 741 1315Q685 1316 638 1300T555 1252 496 1175 467 1075Q461 1018 478 977T527 904 603 850 693 809Q766 779 829 742T938 654 1007 537 1025 384Q1019 292 984 222T891 102 758 23 596-16L561-208H415L450-15Q362-2 299 37T197 135 141 269 129 429H310Q306 370 316 318T353 227 424 165 534 140Q592 138 645 153T740 199 809 276 844 382Z" glyph-name="dollar" horiz-adv-x="1202" unicode="&#x24;"/><glyph d="M141 1193Q148 1252 171 1304T233 1396 322 1457 436 1478Q496 1476 540 1453T614 1391 655 1301 664 1194L657 1117Q650 1058 627 1007T566 916 477 855 363 835Q303 836 259 859T185 922 143 1011 134 1117L141 1193ZM272 1115Q270 1087 273 1059T289 1008 322 970 377 955Q411 955 436 969T479 1005 506 1057 520 1116L527 1195Q529 1223 526 1251T510 1303 477 1342 422 1358Q387 1358 362 1344T320 1307 292 1254 279 1195L272 1115ZM575 337Q582 396 605 448T667 540 756 600 871 621Q931 619 975 596T1049 534 1091 445 1100 338L1092 260Q1085 201 1062 149T1001 59 912-1 798-22Q738-21 693 2T619 64 577 153 568 260L575 337ZM706 258Q704 230 708 202T724 151 757 113 812 97Q846 97 871 111T914 148 941 200 955 259L962 339Q964 367 961 395T946 447 913 485 858 501Q823 501 798 487T755 450 727 398 713 339L706 258ZM319 189 216 254 943 1286 1047 1221 319 189Z" glyph-name="percent" horiz-adv-x="1202" unicode="&#x25;"/><glyph d="M69 366Q75 441 104 502T179 614 282 708 398 788Q379 827 361 867T331 948 312 1031 308 1119Q314 1199 344 1266T425 1380 544 1453 695 1477Q757 1475 808 1451T896 1387 951 1292 966 1176Q963 1119 941 1073T886 987 811 915 726 850L612 763 842 367Q892 437 922 512T966 672H1126Q1113 545 1064 436T925 235L1058 0H856L795 108Q717 49 629 14T440-19Q356-18 285 10T164 88 89 209 69 366ZM446 131Q522 129 589 159T718 231L478 661 447 636Q415 611 383 582T323 518 276 446 251 365Q245 315 255 273T291 199 356 150 446 131ZM485 1121Q481 1091 484 1061T494 1003 513 946 537 891L665 983Q715 1020 751 1066T793 1177Q796 1204 791 1230T772 1278 736 1312 683 1326Q640 1327 606 1310T546 1264 505 1198 485 1121Z" glyph-name="ampersand" horiz-adv-x="1202" unicode="&#x26;&#x61;&#x6d;&#x70;&#x3b;"/><glyph d="M762 1416 686 1057 550 1056 611 1439 627 1544 781 1535 762 1416Z" glyph-name="quotesingle" horiz-adv-x="1202" unicode="&#x26;&#x61;&#x70;&#x6f;&#x73;&#x3b;"/><glyph d="M345 587Q359 685 385 788T450 994 541 1192 658 1373 802 1527 977 1644L1004 1520Q894 1439 814 1333T676 1106 583 854 527 592L525 577Q514 505 507 423T501 255 512 83 546-83 610-233 710-358L663-470Q585-415 528-340T431-178 368 6 336 199 328 393 343 576L345 587Z" glyph-name="parenleft" horiz-adv-x="1202" unicode="&#x28;"/><glyph d="M821 585Q807 487 781 384T716 179 625-19 508-200 363-354 188-471L160-356Q271-275 351-168T489 62 582 317 638 580L640 595Q650 666 657 748T663 916 652 1089 617 1256 554 1407 455 1531L501 1643Q580 1588 638 1513T735 1351 798 1167 830 973 838 779 823 596L821 585Z" glyph-name="parenright" horiz-adv-x="1202" unicode="&#x29;"/><glyph d="M531 686 181 782 258 952 593 799 635 1224H809L715 802 1086 950 1111 766 724 672 924 344 772 239 621 603 362 252 229 363 531 686Z" glyph-name="asterisk" horiz-adv-x="1202" unicode="&#x2a;"/><glyph d="M721 781H1116L1084 597H689L611 146H430L509 597H114L147 781H540L614 1206H795L721 781Z" glyph-name="plus" horiz-adv-x="1202" unicode="&#x2b;"/><glyph d="M530 44Q511-69 452-166T304-336L194-271Q247-201 281-124T331 40L363 219H559L530 44Z" glyph-name="comma" horiz-adv-x="1202" unicode="&#x2c;"/><glyph d="M947 561H204L231 713H974L947 561Z" glyph-name="hyphen" horiz-adv-x="1203" unicode="&#x2d;"/><glyph d="M398 115Q398 146 408 173T437 221 482 252 541 264Q572 265 598 255T642 226 671 182 682 125Q682 93 671 67T641 22 595-9 537-20Q507-20 482-11T438 17 409 60 398 115Z" glyph-name="period" horiz-adv-x="1202" unicode="&#x2e;"/><glyph d="M285-125H114L978 1456H1148L285-125Z" glyph-name="slash" horiz-adv-x="1202" unicode="&#x2f;"/><glyph d="M1051 559Q1034 447 995 342T890 155 730 25 508-20Q428-18 367 6T261 72 188 168 146 286 129 419 136 557L190 898Q201 972 222 1044T275 1182 352 1302 452 1396 579 1457 734 1477Q815 1475 876 1451T981 1385 1054 1288 1096 1169 1112 1036 1105 898L1051 559ZM322 602 944 1034Q945 1091 935 1143T900 1235 832 1299 725 1325Q640 1328 580 1296T478 1208 413 1083 378 939L322 602ZM917 844 298 416Q297 360 307 309T343 219 411 156 517 130Q602 127 662 160T764 248 828 374 863 518L917 844Z" glyph-name="zero" horiz-adv-x="1202" unicode="&#x30;"/><glyph d="M648 0H467L678 1215 282 1071 314 1248 876 1456H895L648 0Z" glyph-name="one" horiz-adv-x="1202" unicode="&#x31;"/><glyph d="M942 0H15L37 141 575 664Q616 705 663 750T751 847 821 954 859 1072Q865 1123 854 1168T816 1248 748 1302 654 1325Q583 1327 528 1306T433 1245 367 1150 333 1028L153 1027Q163 1127 206 1210T317 1353 473 1445 663 1476Q749 1474 822 1446T946 1365 1024 1241 1043 1080Q1037 1003 1004 933T923 800 819 681 709 575L263 151H966L942 0Z" glyph-name="two" horiz-adv-x="1202" unicode="&#x32;"/><glyph d="M416 817 535 815Q596 815 652 832T754 881 828 962 866 1076Q872 1130 863 1175T829 1254 763 1305 665 1326Q606 1327 556 1309T468 1258 404 1179 369 1075L190 1074Q200 1167 242 1242T350 1369 499 1450 674 1477Q764 1475 836 1446T958 1364 1031 1237 1047 1072Q1042 1012 1018 962T957 870 872 797 773 742Q824 720 860 687T918 610 948 518 952 414Q943 313 901 232T791 94 635 8 448-20Q358-18 283 11T156 92 75 219 52 385L232 384Q228 328 241 282T283 203 356 151 457 131Q522 129 576 148T672 204 739 293 772 410Q779 472 764 519T717 598 637 647 529 666L389 667 416 817Z" glyph-name="three" horiz-adv-x="1202" unicode="&#x33;"/><glyph d="M878 489H1075L1049 338H852L793 0H612L671 338H27L48 457 847 1456H1046L878 489ZM259 489H697L829 1212 790 1154 259 489Z" glyph-name="four" horiz-adv-x="1202" unicode="&#x34;"/><glyph d="M254 733 451 1456H1178L1146 1276H575L459 887Q569 952 697 950 798 948 868 907T981 799 1040 646 1047 470Q1037 365 997 274T891 117 735 14 535-20Q445-18 374 12T252 95 174 222 143 384H312Q315 330 330 285T373 205 444 152 544 130Q617 128 674 156T770 232 833 342 865 470Q871 528 862 583T827 682 756 754 646 784Q573 786 516 762T403 694L254 733Z" glyph-name="five" horiz-adv-x="1202" unicode="&#x35;"/><glyph d="M960 1458 943 1292H931Q811 1293 717 1258T552 1158 431 1005 346 809Q410 875 490 915T665 955Q763 953 832 912T943 804 1001 653 1009 482Q1000 380 962 288T859 127 707 17 510-20Q399-17 322 34T197 165 134 343 128 538L140 625Q156 738 187 844T265 1042 376 1211 524 1342 711 1427 940 1458H960ZM629 801Q578 803 532 787T446 743 374 677 319 596L311 532Q307 495 307 451T314 364 335 279 374 206 434 154 519 132Q590 130 645 159T739 237 801 348 831 473Q837 527 831 584T801 689 736 768 629 801Z" glyph-name="six" horiz-adv-x="1202" unicode="&#x36;"/><glyph d="M1180 1342 389 0H191L977 1294H216L242 1456H1198L1180 1342Z" glyph-name="seven" horiz-adv-x="1202" unicode="&#x37;"/><glyph d="M1121 1085Q1116 1024 1094 973T1036 879 954 803 856 744Q902 717 937 680T995 599 1027 505 1033 402Q1025 303 982 224T870 90 715 7 531-20Q442-18 367 10T237 91 156 218 136 385Q142 453 166 509T231 612 323 693 435 755Q357 809 320 891T289 1067Q296 1161 334 1237T435 1368 579 1450 754 1476Q839 1474 909 1445T1029 1365 1103 1243 1121 1085ZM854 406Q860 460 848 508T807 593 735 650 634 674Q571 675 516 654T420 594 352 502 319 388Q313 332 325 285T365 204 438 151 539 130Q601 128 655 148T752 204 821 292 854 406ZM938 1082Q943 1130 933 1173T897 1250 834 1304 744 1325Q687 1326 639 1306T555 1251 497 1167 469 1064Q464 1016 474 973T508 897 571 845 661 824Q717 823 765 842T850 897 909 980 938 1082Z" glyph-name="eight" horiz-adv-x="1202" unicode="&#x38;"/><glyph d="M286 163Q409 162 502 194T666 286 784 434 865 633Q802 563 722 524T545 487Q447 489 379 531T268 642 211 794 203 965Q213 1067 251 1160T353 1325 505 1437 704 1476Q784 1475 844 1449T949 1380 1022 1280 1066 1158 1083 1024 1077 887L1068 820Q1052 706 1023 601T948 404 839 238 693 110 507 28 277-2H254L270 163H286ZM582 640Q634 638 681 655T769 702 841 771 897 855L904 914Q907 951 907 995T901 1084 880 1171 841 1247 782 1300 696 1323Q624 1325 569 1295T474 1214 412 1101 382 975Q376 922 382 864T411 756 475 675 582 640Z" glyph-name="nine" horiz-adv-x="1202" unicode="&#x39;"/><glyph d="M447 115Q447 146 457 173T486 221 531 252 590 264Q621 265 647 255T691 226 720 182 731 125Q731 93 720 67T690 22 644-9 586-20Q556-20 531-11T487 17 458 60 447 115ZM598 991Q598 1022 608 1049T637 1097 682 1128 741 1140Q772 1141 798 1131T842 1102 871 1058 882 1001Q882 969 871 943T841 898 795 867 737 856Q707 856 682 865T638 893 609 936 598 991Z" glyph-name="colon" horiz-adv-x="1202" unicode="&#x3a;"/><glyph d="M589 991Q589 1022 599 1049T628 1097 673 1128 732 1140Q763 1141 789 1131T833 1102 862 1058 873 1001Q873 969 862 943T832 898 786 867 728 856Q698 856 673 865T629 893 600 936 589 991ZM658 44Q639-69 580-166T432-336L322-271Q375-201 409-124T459 40L491 219H687L658 44Z" glyph-name="semicolon" horiz-adv-x="1202" unicode="&#x3b;"/><glyph d="M416 663 351 643 389 628 952 388 919 201 161 580 187 726 1076 1104 1046 903 416 663Z" glyph-name="less" horiz-adv-x="1202" unicode="&#x26;&#x6c;&#x74;&#x3b;"/><glyph d="M1066 780H198L227 941H1094L1066 780ZM994 365H126L155 525H1022L994 365Z" glyph-name="equal" horiz-adv-x="1202" unicode="&#x3d;"/><glyph d="M226 913 258 1096 1051 717 1025 572 101 192 137 393 796 633 867 653 822 669 226 913Z" glyph-name="greater" horiz-adv-x="1202" unicode="&#x26;&#x67;&#x74;&#x3b;"/><glyph d="M470 409Q476 472 489 519T525 607 582 684 664 761Q703 794 745 831T823 910 886 999 920 1101Q927 1151 917 1190T881 1257 818 1300 730 1317Q680 1318 635 1306T554 1268 493 1205 458 1117L279 1116Q289 1205 330 1273T433 1386 575 1455 740 1476Q824 1474 894 1449T1014 1377 1087 1262 1105 1106Q1098 1028 1066 963T987 843 883 739 770 645Q711 596 685 540T647 410L470 409ZM388 94Q389 143 419 175T500 210Q524 211 545 203T581 180 604 145 612 100Q611 51 579 21T499-12Q475-13 455-6T419 16 396 50 388 94Z" glyph-name="question" horiz-adv-x="1202" unicode="&#x3f;"/><glyph d="M1160 795Q1153 752 1142 700T1113 594 1070 490 1010 402 931 340 830 318Q770 320 735 351T688 440Q668 416 646 394T599 356 546 329 484 319Q443 319 416 337T373 385 350 452 342 528 343 603 351 666Q359 717 374 774T412 886 467 991 540 1078 633 1137 748 1157Q857 1154 922 1066L804 561Q801 543 799 521T799 479 813 445 851 430Q889 428 917 447T967 499 1004 572 1029 654 1044 732 1054 795Q1061 852 1063 913T1058 1033 1031 1145 978 1239 893 1305 768 1332Q684 1334 613 1307T483 1232 378 1118 297 980 239 831 204 684Q193 621 189 555T192 427 219 309 276 212 370 146 507 120Q570 120 629 137T742 184L764 65Q707 27 640 10T505-7Q407-6 334 23T209 101 126 218 81 361 68 520 82 685Q96 770 124 861T196 1038 298 1202 428 1337 586 1427 772 1458Q861 1456 928 1427T1041 1348 1116 1233 1158 1095 1171 945 1160 795ZM476 666Q474 654 471 635T467 592 466 545 473 502 491 469 523 455Q552 453 576 463T621 490 659 529 691 573L805 1023Q792 1028 780 1031T754 1036Q707 1039 670 1022T604 976 554 909 517 828 492 744 476 666Z" glyph-name="at" horiz-adv-x="1202" unicode="&#x40;"/><glyph d="M807 377H338L158 0H-30L679 1456H831L1026 0H853L807 377ZM413 538H788L712 1168 413 538Z" glyph-name="A" horiz-adv-x="1202" unicode="&#x41;"/><glyph d="M62 0 315 1456 724 1455Q808 1452 884 1428T1018 1356 1107 1239 1130 1076Q1125 1015 1102 967T1042 880 958 813 858 761Q910 741 948 707T1011 629 1046 534 1053 429Q1046 326 999 246T880 111 715 28 527 0H62ZM362 681 271 157 537 155Q598 156 654 175T757 228 833 313 872 426Q879 480 867 525T826 604 756 657 659 680L362 681ZM389 835 629 833Q684 834 738 850T836 897 910 973 947 1077Q954 1131 939 1171T892 1239 818 1280 725 1297L469 1298 389 835Z" glyph-name="B" horiz-adv-x="1202" unicode="&#x42;"/><glyph d="M1046 440Q1026 341 980 256T866 108 709 12 515-20Q429-18 363 10T248 86 168 197 121 331 102 477 110 626L142 829Q155 908 179 987T240 1138 326 1273 437 1381 576 1452 743 1476Q846 1474 922 1437T1049 1336 1126 1189 1157 1009H978Q975 1069 962 1125T921 1225 847 1296 733 1326Q667 1328 614 1307T518 1250 444 1163 389 1058 350 944 325 831L291 625Q284 578 281 524T283 415 302 311 345 221 417 157 524 130Q596 127 652 151T752 217 824 316 872 437L1046 440Z" glyph-name="C" horiz-adv-x="1202" unicode="&#x43;"/><glyph d="M46 0 298 1456 614 1455Q758 1452 863 1397T1034 1250 1124 1037 1132 781L1117 674Q1095 530 1035 407T880 194 661 52 385 0H46ZM456 1304 256 151 389 150Q506 151 599 192T761 303 874 469 936 674L952 784Q965 880 955 971T904 1135 793 1253 611 1303L456 1304Z" glyph-name="D" horiz-adv-x="1202" unicode="&#x44;"/><glyph d="M959 673H370L280 157H968L940 0H72L325 1456H1185L1157 1298H478L397 830H987L959 673Z" glyph-name="E" horiz-adv-x="1202" unicode="&#x45;"/><glyph d="M963 643H375L263 0H81L333 1456H1202L1174 1298H489L402 800H990L963 643Z" glyph-name="F" horiz-adv-x="1202" unicode="&#x46;"/><glyph d="M1020 191Q925 87 800 32T531-19Q445-16 377 13T259 91 174 204 122 341 100 491 106 643L132 812Q145 891 170 971T232 1126 320 1265 433 1377 574 1451 743 1476Q841 1474 917 1439T1046 1344 1127 1203 1157 1028H980Q976 1085 961 1137T917 1229 843 1292 733 1318Q666 1320 612 1299T515 1240 439 1151 381 1044 341 928 315 814L287 642Q280 593 279 538T285 428 310 323 358 233 433 168 541 139Q626 134 705 156T846 242L903 569H616L643 725H1102L1020 191Z" glyph-name="G" horiz-adv-x="1202" unicode="&#x47;"/><glyph d="M951 0H780L897 673H319L202 0H32L285 1456H455L346 830H924L1033 1456H1204L951 0Z" glyph-name="H" horiz-adv-x="1202" unicode="&#x48;"/><glyph d="M317 1456H1172L1143 1295H805L608 160H947L919 0H64L92 160H423L620 1295H288L317 1456Z" glyph-name="I" horiz-adv-x="1202" unicode="&#x49;"/><glyph d="M979 1456H1164L991 443Q976 344 930 259T815 111 655 13 463-20Q366-18 292 16T168 110 91 250 63 422L245 421Q243 365 256 315T297 225 369 162 475 137Q541 135 596 159T695 226 766 325 806 443L979 1456Z" glyph-name="J" horiz-adv-x="1202" unicode="&#x4a;"/><glyph d="M528 674 331 483 247 0H62L315 1456H500L377 756 535 921 1042 1456H1276L662 810 1043 0H836L528 674Z" glyph-name="K" horiz-adv-x="1202" unicode="&#x4b;"/><glyph d="M296 157H987L959 0H88L340 1456H521L296 157Z" glyph-name="L" horiz-adv-x="1202" unicode="&#x4c;"/><glyph d="M511 1456 614 730 988 1456H1216L964 0H788L890 590 1006 1172 617 405H512L405 1177 314 572 215 0H39L292 1456H511Z" glyph-name="M" horiz-adv-x="1202" unicode="&#x4d;"/><glyph d="M950 0H772L410 1096 217 0H34L287 1456H465L827 362 1020 1456H1203L950 0Z" glyph-name="N" horiz-adv-x="1202" unicode="&#x4e;"/><glyph d="M1097 645Q1084 568 1061 489T1002 335 918 194 809 80 672 5 506-20Q420-18 355 12T242 93 165 209 120 348 104 497 112 644L138 810Q151 887 174 966T233 1120 317 1261 427 1375 564 1451 730 1476Q817 1474 882 1444T995 1363 1071 1247 1115 1108 1131 958 1123 810L1097 645ZM944 814Q950 860 953 914T953 1022 934 1128 893 1220 823 1285 718 1312Q653 1314 601 1293T507 1233 434 1144 379 1037 341 922 317 812L289 643Q283 598 280 544T282 435 301 328 343 236 413 170 518 142Q583 140 636 161T730 221 802 311 855 418 893 533 917 644L944 814Z" glyph-name="O" horiz-adv-x="1202" unicode="&#x4f;"/><glyph d="M363 584 261 0H81L333 1456 780 1455Q872 1452 949 1421T1081 1333 1163 1200 1183 1027Q1174 922 1128 840T1010 700 845 613 652 583L363 584ZM389 736 657 734Q723 734 782 754T887 812 964 904 1003 1025Q1010 1082 998 1131T956 1218 881 1277 776 1303L488 1304 389 736Z" glyph-name="P" horiz-adv-x="1202" unicode="&#x50;"/><glyph d="M1113 664Q1099 580 1074 498T1011 340 919 199 796 81L1003-133 868-246 633-3Q601-11 569-15T503-18Q414-16 347 15T233 97 155 217 110 360 94 513 103 663L123 791Q136 870 160 952T221 1110 307 1255 420 1372 561 1450 732 1476Q821 1474 888 1443T1004 1360 1082 1240 1126 1097 1142 943 1133 791L1113 664ZM953 794Q960 842 963 898T963 1011 945 1121 903 1216 830 1284 720 1312Q652 1314 598 1292T500 1230 424 1138 368 1027 329 908 304 793L283 662Q276 615 273 559T273 445 292 335 334 239 407 171 517 142Q586 140 641 162T739 223 814 316 869 427 907 546 932 663L953 794Z" glyph-name="Q" horiz-adv-x="1202" unicode="&#x51;"/><glyph d="M640 594H354L251 0H71L324 1456 727 1455Q822 1452 902 1422T1038 1338 1122 1205 1143 1027Q1137 952 1109 891T1037 781 935 695 811 631L1006 13 1004 0H813L640 594ZM380 746 610 744Q674 744 734 763T841 819 921 909 961 1029Q968 1090 955 1139T910 1224 831 1280 723 1303L477 1304 380 746Z" glyph-name="R" horiz-adv-x="1202" unicode="&#x52;"/><glyph d="M871 376Q878 437 856 480T796 555 708 609 611 649Q540 676 470 713T346 800 259 917 232 1071Q238 1166 284 1242T401 1371 561 1451 738 1476Q832 1474 911 1440T1046 1348 1134 1210 1162 1036H978Q975 1094 960 1144T914 1233 838 1293 729 1318Q675 1319 622 1303T526 1255 455 1178 420 1074Q414 1016 436 975T497 905 583 854 676 817Q750 790 821 752T948 660 1034 538 1060 378Q1053 280 1005 205T884 79 721 3 541-20Q445-19 362 13T216 103 118 242 85 421H268Q271 358 291 307T347 218 433 160 548 137Q604 136 659 150T759 195 834 270 871 376Z" glyph-name="S" horiz-adv-x="1202" unicode="&#x53;"/><glyph d="M1243 1298H807L582 0H406L631 1298H194L222 1456H1271L1243 1298Z" glyph-name="T" horiz-adv-x="1202" unicode="&#x54;"/><glyph d="M1205 1456 1038 471Q1023 371 977 281T861 124 700 17 503-20Q403-18 326 23T199 132 126 287 115 469L285 1456H457L292 469Q285 410 294 352T330 247 402 170 515 137Q586 135 644 162T746 237 818 345 858 470L1030 1456H1205Z" glyph-name="U" horiz-adv-x="1202" unicode="&#x55;"/><glyph d="M542 300 1056 1456H1254L581 0H424L205 1456H393L542 300Z" glyph-name="V" horiz-adv-x="1202" unicode="&#x56;"/><glyph d="M835 396 1109 1456H1283L883 0H699L690 1093 336 0H149L205 1456H375L317 401 662 1456H820L835 396Z" glyph-name="W" horiz-adv-x="1202" unicode="&#x57;"/><glyph d="M646 886 1039 1456H1262L732 725 1034 0H833L613 581 209 0H-15L528 743 234 1456H435L646 886Z" glyph-name="X" horiz-adv-x="1202" unicode="&#x58;"/><glyph d="M602 726 1050 1456H1265L660 532 565 0H397L491 554 212 1456H408L602 726Z" glyph-name="Y" horiz-adv-x="1202" unicode="&#x59;"/><glyph d="M252 157H979L954 0H19L40 153 917 1298H231L257 1456H1153L1132 1306 252 157Z" glyph-name="Z" horiz-adv-x="1202" unicode="&#x5a;"/><glyph d="M940 1512H726L465-160H680L656-312H270L579 1664H965L940 1512Z" glyph-name="bracketleft" horiz-adv-x="1202" unicode="&#x5b;"/><glyph d="M376 1456H531L847-125H692L376 1456Z" glyph-name="backslash" horiz-adv-x="1202" unicode="&#x5c;"/><glyph d="M559 1664H945L636-312H250L274-160H489L750 1512H535L559 1664Z" glyph-name="bracketright" horiz-adv-x="1202" unicode="&#x5d;"/><glyph d="M409 677H232L678 1456H803L977 677H819L711 1163 710 1232 682 1162 409 677Z" glyph-name="asciicircum" horiz-adv-x="1202" unicode="&#x5e;"/><glyph d="M910-151H20L46 0H937L910-151Z" glyph-name="underscore" horiz-adv-x="1202" unicode="&#x5f;"/><glyph d="M880 1215H746L547 1481H751L880 1215Z" glyph-name="grave" horiz-adv-x="1202" unicode="&#x60;"/><glyph d="M764 0Q756 30 756 59T759 118Q688 55 605 17T424-19Q356-18 296 4T191 66 122 163 101 292Q105 362 129 416T193 510 283 579 391 624 510 649 632 657L838 656 851 742Q857 793 844 832T802 898 734 939 644 954Q601 955 560 945T484 914 424 861 389 783L208 782Q217 864 261 924T369 1025 511 1084 662 1103Q744 1101 815 1077T936 1007 1013 893 1030 739L946 236Q937 181 937 126T949 17L947 0H764ZM459 140Q555 138 638 183T777 305L816 525 661 526Q606 526 544 519T426 490 332 427 285 319Q280 276 291 243T326 188 384 153 459 140Z" glyph-name="a" horiz-adv-x="1202" unicode="&#x61;"/><glyph d="M1047 535Q1038 468 1020 401T972 271 903 155 811 61 695-1 554-21Q466-19 392 15T269 124L233 0H65L332 1536H513L405 965Q467 1034 544 1069T715 1102Q788 1100 843 1076T938 1012 1002 918 1039 805 1054 681 1049 556L1047 535ZM869 557Q876 618 874 685T850 810 784 905 661 945Q614 946 574 934T500 900 436 846 381 779L299 303Q326 228 381 183T519 136Q602 134 663 169T766 263 832 393 866 536L869 557Z" glyph-name="b" horiz-adv-x="1202" unicode="&#x62;"/><glyph d="M533 129Q582 128 630 142T717 184 785 251 824 340L995 341Q986 258 941 191T830 76 684 3 525-21Q411-18 331 28T202 148 135 319 127 517L132 560Q141 633 164 702T222 832 305 943 412 1030 540 1085 687 1102Q771 1100 842 1070T963 989 1041 866 1064 709L894 710Q896 760 882 803T840 878 770 930 677 951Q594 954 531 921T422 831 350 704 312 560L307 518Q302 475 302 430T309 343 333 262 376 195 441 148 533 129Z" glyph-name="c" horiz-adv-x="1202" unicode="&#x63;"/><glyph d="M126 543Q134 610 153 678T202 809 273 926 367 1020 485 1082 627 1102Q708 1100 778 1070T899 974L1003 1536H1184L917 0H753L772 114Q709 47 632 13T461-20Q391-18 337 6T243 72 178 166 138 279 121 401 124 522L126 543ZM304 522Q299 482 299 438T305 352 326 271 365 204 427 156 515 137Q604 134 670 178T787 291L874 796Q845 865 792 904T661 946Q577 949 515 913T410 819 342 688 307 543L304 522Z" glyph-name="d" horiz-adv-x="1202" unicode="&#x64;"/><glyph d="M540-20Q430-18 347 25T209 139 132 303 117 500L122 543Q130 614 153 683T212 816 297 932 405 1023 534 1083 681 1102Q793 1099 870 1054T992 934 1052 766 1054 571L1041 488H296Q288 422 300 359T345 246 430 165 556 132Q650 129 729 169T873 275L977 187Q940 135 891 96T784 30 665-8 540-20ZM672 950Q602 953 546 927T447 856 371 755 318 640L882 638 886 656Q895 711 885 763T847 856 775 922 672 950Z" glyph-name="e" horiz-adv-x="1202" unicode="&#x65;"/><glyph d="M332 0 495 939H205L231 1082H519L530 1158Q543 1254 581 1332T680 1466 822 1551 1004 1580Q1069 1579 1131 1567T1257 1539L1220 1387Q1171 1404 1121 1414T1018 1425Q953 1426 901 1408T810 1356 747 1272 712 1159L701 1082H1106L1081 939H677L514 0H332Z" glyph-name="f" horiz-adv-x="1203" unicode="&#x66;"/><glyph d="M127 543Q136 610 154 678T203 810 273 927 367 1021 484 1083 627 1103Q712 1101 784 1068T905 963L940 1082H1106L926 23Q912-78 870-162T761-305 607-397 414-427Q360-426 307-413T206-376 117-318 45-238L148-127Q195-194 259-234T408-276Q477-278 533-258T632-199 703-107 745 12L765 107Q702 44 627 11T461-20Q390-18 336 6T242 71 177 165 138 278 121 400 125 522L127 543ZM305 522Q300 482 300 438T306 352 326 272 366 204 427 156 516 136Q606 134 672 178T789 294L874 793Q846 864 793 904T661 946Q577 949 515 913T411 819 343 688 308 543L305 522Z" glyph-name="g" horiz-adv-x="1202" unicode="&#x67;"/><glyph d="M396 920Q429 960 467 994T549 1052 641 1089 744 1102Q836 1100 898 1065T996 972 1044 839 1047 681L933 0H752L867 684Q873 737 867 783T839 865 779 921 681 944Q635 945 594 934T515 901 444 850 382 787L245 0H64L331 1536H512L396 920Z" glyph-name="h" horiz-adv-x="1202" unicode="&#x68;"/><glyph d="M280 1082H818L658 160H1001L972 0H92L121 160H477L609 921H252L280 1082ZM663 1363Q664 1411 694 1442T772 1476Q796 1477 815 1469T849 1447 871 1413 879 1369Q879 1321 849 1292T771 1260Q724 1258 694 1286T663 1363Z" glyph-name="i" horiz-adv-x="1202" unicode="&#x69;"/><glyph d="M373 1082H904L719-7Q705-105 667-185T569-321 428-408 245-439Q191-439 140-435T35-422L61-268Q106-276 150-279T240-284Q305-285 356-265T445-209 505-121 538-8L696 921H345L373 1082ZM748 1364Q748 1412 777 1443T855 1476Q879 1477 899 1470T933 1448 956 1414 964 1370Q963 1322 933 1292T855 1260Q807 1258 777 1287T748 1364Z" glyph-name="j" horiz-adv-x="1202" unicode="&#x6a;"/><glyph d="M474 503 311 366 248 0H66L333 1536H515L353 606 486 729 888 1082H1124L610 622 986 0H771L474 503Z" glyph-name="k" horiz-adv-x="1202" unicode="&#x6b;"/><glyph d="M359 1536H897L658 160H1001L972 0H92L121 160H477L688 1375H330L359 1536Z" glyph-name="l" horiz-adv-x="1202" unicode="&#x6c;"/><glyph d="M334 1083 314 980Q356 1037 410 1070T536 1102Q567 1102 595 1096T646 1075 687 1039 714 987Q756 1039 809 1070T932 1102Q995 1101 1037 1076T1102 1010 1133 916 1136 808L1001 0H829L965 811Q968 839 965 863T952 906 921 935 869 946Q815 946 775 916T721 834L579 0H407L544 812Q547 839 545 862T532 904 502 933 453 945Q403 946 368 925T307 862L158 0H-14L173 1082 334 1083Z" glyph-name="m" horiz-adv-x="1202" unicode="&#x6d;"/><glyph d="M413 1083 390 922Q423 962 462 996T545 1054 638 1090 741 1102Q832 1100 894 1066T992 976 1041 844 1045 687L930 0H749L864 684Q870 739 865 786T838 868 777 923 678 945Q631 946 589 934T509 899 440 845 380 777L245 0H64L252 1082 413 1083Z" glyph-name="n" horiz-adv-x="1202" unicode="&#x6e;"/><glyph d="M110 544Q119 617 141 687T199 820 281 935 387 1025 515 1083 665 1102Q779 1099 859 1052T989 928 1056 754 1064 554L1062 531Q1048 422 1004 321T888 144 721 22 506-20Q393-17 313 29T183 152 115 324 107 522L110 544ZM288 522Q283 480 283 435T291 347 315 265 358 197 423 149 514 129Q597 126 661 162T770 256 843 386 881 531L883 553Q890 616 886 685T856 812 783 909 657 951Q573 954 509 918T400 822 328 690 291 544L288 522Z" glyph-name="o" horiz-adv-x="1202" unicode="&#x6f;"/><glyph d="M1043 536Q1031 436 996 336T900 155 752 26 550-21Q468-19 395 10T269 105L172-416H-9L251 1082 415 1083 396 964Q459 1033 537 1068T711 1102Q785 1100 840 1076T934 1012 998 918 1035 805 1050 682 1045 557L1043 536ZM864 557Q871 618 868 685T841 810 772 905 648 945Q563 947 498 906T383 798L292 275Q352 135 505 130 589 128 651 164T757 259 826 391 862 536L864 557Z" glyph-name="p" horiz-adv-x="1202" unicode="&#x70;"/><glyph d="M127 543Q136 612 155 680T204 812 275 929 369 1022 487 1082 632 1102Q713 1100 783 1070T905 974L937 1082H1105L845-416H664L762 98Q699 39 626 9T465-20Q393-18 338 6T243 70 177 164 138 276 121 399 125 522L127 543ZM305 522Q300 482 300 438T306 350 327 268 367 199 429 151 518 131Q560 130 597 140T667 170 729 215 784 274L878 810Q846 876 793 912T667 951Q583 954 520 918T413 822 343 689 308 543L305 522Z" glyph-name="q" horiz-adv-x="1202" unicode="&#x71;"/><glyph d="M931 1104Q979 1103 1027 1098T1121 1075L1075 895Q1027 906 979 913T882 921Q756 922 666 863T516 695L396 0H215L402 1082H574L544 910Q582 954 625 990T716 1051 817 1090 931 1104Z" glyph-name="r" horiz-adv-x="1202" unicode="&#x72;"/><glyph d="M818 294Q824 340 803 370T748 419 672 449 598 469Q538 484 473 506T354 563 267 650 236 778Q238 833 258 878T312 960 388 1024 480 1068 579 1094 679 1102Q755 1100 825 1078T949 1014 1033 909 1063 763L884 764Q884 809 867 843T821 900 753 936 672 949Q632 950 590 941T510 913 447 862 415 785Q409 740 429 712T483 666 555 639 628 622Q669 612 713 599T799 568 878 527 943 472 985 399 998 307Q994 220 950 157T840 55 694-3 538-20Q458-19 384 4T251 71 159 181 126 334L306 333Q307 281 326 243T377 181 452 144 544 131Q584 130 629 138T714 164 782 215 818 294Z" glyph-name="s" horiz-adv-x="1202" unicode="&#x73;"/><glyph d="M724 1344 678 1082H1078L1053 939H653L555 350Q550 306 555 268T578 202 626 157 706 139Q761 137 815 147T924 169L941 36Q878 1 801-10T653-19Q572-18 516 12T426 93 380 210 374 351L472 939H196L221 1082H496L542 1344H724Z" glyph-name="t" horiz-adv-x="1202" unicode="&#x74;"/><glyph d="M780 149Q716 70 633 24T445-20Q348-18 287 22T192 128 150 274 150 439L258 1082H439L332 436Q326 386 325 334T338 238 387 167 484 137Q584 134 661 178T791 305L926 1082H1108L920 0H757L780 149Z" glyph-name="u" horiz-adv-x="1202" unicode="&#x75;"/><glyph d="M524 266 529 198 558 267 980 1082H1172L574 0H436L174 1082 348 1083 524 266Z" glyph-name="v" horiz-adv-x="1202" unicode="&#x76;"/><glyph d="M291 381 285 243 340 402 624 1082H741L788 380 786 226 839 384 1078 1082H1242L831 0H689L639 673 642 827 584 653 311 0H168L132 1082H288L291 381Z" glyph-name="w" horiz-adv-x="1202" unicode="&#x77;"/><glyph d="M609 682 952 1082H1176L693 539 1005 0H809L583 411 229 0H6L501 555 198 1082H395L609 682Z" glyph-name="x" horiz-adv-x="1202" unicode="&#x78;"/><glyph d="M516 375 537 255 1001 1082H1212L464-168Q434-220 396-269T312-356 210-417 89-440Q60-440 31-435T-28-424L13-271Q35-273 57-276T100-279Q139-278 172-260T232-215 281-156 322-94L425 62 154 1082H347L516 375Z" glyph-name="y" horiz-adv-x="1202" unicode="&#x79;"/><glyph d="M321 151H984L959 0H61L84 144 827 929H215L239 1082H1094L1072 943 321 151Z" glyph-name="z" horiz-adv-x="1202" unicode="&#x7a;"/><glyph d="M812-365Q723-359 661-316T562-206 512-60 506 99L528 269Q535 333 526 382T491 466 419 520 308 542L323 686Q461 688 541 755T642 962L664 1132Q676 1224 708 1306T795 1452 925 1554 1100 1600L1110 1483Q1037 1478 990 1446T914 1365 869 1254 846 1132L824 962Q807 831 736 746T545 609Q593 583 627 547T681 466 707 372 709 268L688 98Q682 48 681-10T693-118 740-205 837-250L812-365Z" glyph-name="braceleft" horiz-adv-x="1202" unicode="&#x7b;"/><glyph d="M513-398H367L657 1456H803L513-398Z" glyph-name="bar" horiz-adv-x="1202" unicode="&#x7c;"/><glyph d="M178-252Q245-248 291-214T369-130 417-19 443 99L465 268Q482 398 552 483T742 619Q694 645 661 682T607 763 581 858 579 962L601 1133Q605 1169 608 1207T611 1282 602 1353 576 1413 528 1458 453 1481L482 1595Q572 1589 633 1546T731 1438 778 1292 781 1132L760 961Q746 832 797 764T980 689L965 545Q827 541 746 474T646 268L624 99Q612 8 579-74T491-219 361-323 188-369L178-252Z" glyph-name="braceright" horiz-adv-x="1202" unicode="&#x7d;"/><glyph d="M1158 742Q1152 677 1128 616T1063 506 965 429 837 401Q792 401 752 412T676 443 606 487 540 542Q520 560 498 577T452 609 402 632 347 641Q307 641 275 625T220 584 182 525 159 456L28 473Q35 538 60 598T127 704 225 777 353 803Q441 802 514 762T651 663Q672 644 693 626T739 594 789 572 845 563Q885 563 917 580T974 624 1013 686 1037 757L1158 742Z" glyph-name="asciitilde" horiz-adv-x="1202" unicode="&#x7e;"/><glyph d="M508 611H689L518-372H337L508 611ZM775 993Q773 944 742 913T662 880Q638 879 618 886T582 908 559 943 551 987Q552 1037 582 1069T663 1104Q688 1105 708 1097T744 1074 767 1038 775 993Z" glyph-name="exclamdown" horiz-adv-x="1202" unicode="&#xa1;"/><glyph d="M537 129Q586 128 634 142T721 184 789 251 828 340L999 341Q990 266 953 203T859 94 732 19 590-18L551-245H370L412-3Q331 20 274 71T182 192 135 345 131 517L136 560Q148 659 185 749T282 912 422 1034 602 1097L641 1318H822L782 1090Q848 1075 902 1041T994 958 1051 845 1068 709L898 710Q900 760 886 803T844 878 774 930 681 951Q598 954 535 921T426 831 354 704 316 560L311 518Q306 475 306 430T313 343 337 262 380 195 445 148 537 129Z" glyph-name="cent" horiz-adv-x="1202" unicode="&#xa2;"/><glyph d="M454 626 424 401Q414 330 389 267T317 149L1037 151 1010 0H9L36 150 101 149Q137 163 162 190T203 253 229 326 244 400L274 626H114L140 778H296L329 1038Q341 1135 382 1216T489 1355 639 1446 823 1476Q910 1474 976 1445T1088 1364 1154 1243 1171 1088L989 1089Q992 1139 983 1182T949 1256 887 1306 795 1326Q734 1328 685 1305T599 1241 541 1148 510 1040L476 778H787L760 626H454Z" glyph-name="sterling" horiz-adv-x="1202" unicode="&#xa3;"/><glyph d="M825 82Q756 34 681 6T521-20Q445-19 376 7T247 83L127-26 16 118 144 226Q123 295 117 365T119 508Q143 684 256 823L160 952 302 1080 392 959Q458 1001 529 1025T680 1049Q752 1048 818 1024T941 955L1082 1081 1194 935 1052 814Q1075 743 1083 670T1081 522Q1070 439 1039 365T958 224L1050 100 907-27 825 82ZM287 506Q279 444 291 382T334 269 415 185 535 150Q611 148 676 180T790 265 871 386 912 524Q919 585 908 647T866 760 785 844 666 879Q590 881 525 850T409 765 328 644 287 506Z" glyph-name="currency" horiz-adv-x="1202" unicode="&#xa4;"/><glyph d="M621 780 1096 1456H1314L781 736H1084L1062 615 695 618 689 611 655 446H1034L1012 326H636L579 0H398L455 326H86L107 446H475L505 615H136L157 736H470L186 1456H381L621 780Z" glyph-name="yen" horiz-adv-x="1202" unicode="&#xa5;"/><glyph d="M344-270 482 521H663L525-270H344ZM693 698H512L644 1456H825L693 698Z" glyph-name="brokenbar" horiz-adv-x="1202" unicode="&#xa6;"/><glyph d="M1077 439Q1072 385 1054 342T1005 263 934 201 848 151Q904 95 924 27T939-120Q931-221 882-293T760-410 596-477 415-496Q315-494 230-466T84-384-9-250-36-64L149-62Q144-128 162-180T216-268 305-323 423-343Q476-344 531-332T634-294 715-225 756-123Q761-83 751-52T719 3 667 46 604 79 536 105 472 126Q394 152 321 185T192 265 105 380 82 543Q86 595 105 638T153 717 222 780 307 830Q253 887 234 956T221 1102Q226 1168 250 1222T313 1318 401 1390 507 1440 624 1468 744 1476Q844 1474 924 1445T1060 1361 1142 1227 1164 1045H984Q988 1106 974 1156T927 1244 847 1302 736 1325Q682 1326 627 1315T524 1277 445 1208 403 1105Q397 1063 407 1031T437 975 487 932 549 900 618 875 685 854Q762 828 836 796T966 716 1053 601 1077 439ZM607 691Q569 703 531 716T456 743Q380 722 328 674T264 545Q255 481 279 439T347 369 445 323 549 289Q587 277 624 264T698 237Q735 248 768 265T827 307 871 364 895 436Q901 476 891 508T858 565 805 609 740 643 672 669 607 691Z" glyph-name="section" horiz-adv-x="1202" unicode="&#xa7;"/><glyph d="M399 1369Q399 1415 428 1445T505 1478Q551 1479 582 1450T612 1373Q611 1327 581 1297T505 1265Q458 1264 428 1293T399 1369ZM815 1367Q816 1413 845 1444T922 1477Q969 1478 999 1449T1029 1371Q1028 1325 998 1295T921 1263Q875 1262 845 1291T815 1367Z" glyph-name="dieresis" horiz-adv-x="1202" unicode="&#xa8;"/><glyph d="M813 443Q799 332 732 269T550 208Q489 209 446 234T375 299 337 391 328 498L336 585Q342 643 363 696T421 790 507 854 621 877Q732 875 789 812T841 640L732 641Q736 704 710 742T615 780Q574 780 544 763T494 719 461 658 445 587L437 497Q435 465 438 432T455 370 492 324 555 305Q590 304 615 314T658 342 687 385 706 442L813 443ZM165 534Q155 448 174 365T239 217 356 111 520 68Q620 65 707 104T862 211 971 367 1025 550Q1035 636 1015 718T949 864 833 969 669 1011Q603 1013 542 996T427 947 329 870 250 772 194 658 165 534ZM78 535Q86 610 111 682T176 817 269 934 386 1025 522 1083 673 1102Q747 1101 810 1079T925 1018 1014 928 1077 815 1110 687 1112 550Q1104 474 1079 402T1014 266 921 149 805 57 669-2 517-21Q405-19 319 29T175 154 93 331 78 535Z" glyph-name="copyright" horiz-adv-x="1202" unicode="&#xa9;"/><glyph d="M781 704Q775 753 778 801 733 749 675 720T547 691Q497 691 456 706T386 750 342 819 330 911Q333 981 367 1027T452 1100 564 1139 685 1150L823 1149 831 1202Q834 1229 831 1253T816 1296 785 1324 734 1336Q677 1338 636 1313T578 1232L422 1243Q431 1304 461 1348T536 1422 636 1464 748 1476Q810 1475 858 1455T937 1398 983 1312 992 1200L943 886Q935 840 934 796T939 705L781 704ZM597 826Q653 826 705 854T790 927L809 1037H680Q651 1036 620 1030T562 1009 516 972 493 915Q490 891 498 874T521 847 556 831 597 826Z" glyph-name="ordfeminine" horiz-adv-x="1202" unicode="&#xaa;"/><glyph d="M362 505 539 118H415L189 505 191 525 539 914H690L362 505ZM687 505 864 118H740L514 505 516 525 864 914H1015L687 505Z" glyph-name="guillemotleft" horiz-adv-x="1202" unicode="&#xab;"/><glyph d="M950 375H769L816 639H189L218 800H1024L950 375Z" glyph-name="logicalnot" horiz-adv-x="1202" unicode="&#xac;"/><glyph d="M947 561H204L231 713H974L947 561Z" glyph-name="uni00AD" horiz-adv-x="1203" unicode="&#xad;"/><glyph d="M75 533Q82 608 107 680T172 816 265 933 382 1024 518 1082 670 1101Q782 1098 868 1051T1012 926 1094 751 1109 547Q1101 472 1076 400T1011 265 918 148 802 56 666-2 514-21Q403-18 317 29T173 154 90 329 75 533ZM162 532Q152 446 172 364T238 217 354 112 518 69Q584 67 645 84T760 134 858 211 937 310 993 424 1022 548Q1032 634 1013 716T947 862 830 967 666 1010Q566 1013 479 974T325 869 215 715 162 532ZM477 485 436 232H330L430 867 629 866Q672 865 711 854T779 821 825 765 838 681Q835 648 822 622T787 577 738 543 683 518L778 232H675L598 485H477ZM491 582H602Q624 583 646 589T686 606 717 634 734 676Q739 704 732 722T709 750 673 764 627 769L521 770 491 582Z" glyph-name="registered" horiz-adv-x="1202" unicode="&#xae;"/><glyph d="M1054 1313H360L383 1456H1077L1054 1313Z" glyph-name="overscore" horiz-adv-x="1202" unicode="&#xaf;"/><glyph d="M457 1207Q460 1260 482 1309T542 1396 628 1456 732 1477Q782 1476 822 1455T891 1398 935 1318 947 1225Q944 1172 922 1124T864 1039 780 980 678 959Q628 960 586 980T515 1035 470 1113 457 1207ZM579 1210Q577 1185 584 1163T605 1124 641 1097 688 1087Q715 1087 739 1098T782 1128 812 1171 826 1222Q828 1246 822 1269T803 1310 769 1339 722 1350Q694 1350 669 1338T625 1307 593 1262 579 1210Z" glyph-name="degree" horiz-adv-x="1202" unicode="&#xb0;"/><glyph d="M728 855H1081L1057 703H705L640 289H475L541 703H167L191 855H564L629 1267H793L728 855ZM907 1H96L123 152H934L907 1Z" glyph-name="plusminus" horiz-adv-x="1202" unicode="&#xb1;"/><glyph d="M918 667H335L356 783 672 1048Q693 1066 717 1087T763 1132 801 1183 821 1239Q828 1287 801 1314T727 1342Q661 1343 622 1305T568 1206L413 1205Q420 1267 446 1316T515 1399 611 1452 727 1469Q779 1468 826 1454T909 1411 964 1339 981 1239Q978 1190 956 1148T902 1068 831 999 757 940L562 795H941L918 667Z" glyph-name="twosuperior" horiz-adv-x="1202" unicode="&#xb2;"/><glyph d="M596 1125 676 1124Q703 1125 731 1132T782 1153 821 1188 841 1241Q844 1266 837 1284T814 1315 779 1333 735 1339Q685 1339 647 1317T593 1246H437Q443 1303 470 1344T537 1413 628 1454 732 1467Q781 1467 829 1454T915 1415 975 1347 994 1249Q992 1213 978 1185T942 1135 893 1096 835 1065Q893 1044 922 1000T950 894Q948 831 919 786T844 711 742 668 631 655Q577 656 528 671T443 715 385 787 363 889H515Q515 834 550 810T638 784Q666 784 693 791T742 812 780 849 800 901Q804 932 795 952T767 985 724 1002 672 1008L585 1009 596 1125Z" glyph-name="threesuperior" horiz-adv-x="1202" unicode="&#xb3;"/><glyph d="M708 1481H939L637 1215H487L708 1481Z" glyph-name="acute" horiz-adv-x="1202" unicode="&#xb4;"/><glyph d="M446 1082 344 457Q340 425 338 389T337 316 347 248 372 190 419 148 492 131Q584 127 654 165T773 282L912 1082H1094L906 0H744L763 116Q710 50 644 14T490-21Q430-20 375-4T275 54L186-416H6L266 1082H446Z" glyph-name="mu" horiz-adv-x="1202" unicode="&#xb5;"/><glyph d="M662 0 752 520 680 521Q579 524 499 558T366 653 288 797 272 982Q282 1092 328 1179T448 1328 616 1423 819 1457L1096 1456 843 0H662Z" glyph-name="paragraph" horiz-adv-x="1202" unicode="&#xb6;"/><glyph d="M511 726Q512 775 543 807T624 842Q648 843 668 835T704 812 727 777 735 732Q734 683 703 652T623 618Q599 617 578 625T542 647 519 681 511 726Z" glyph-name="middot" horiz-adv-x="1202" unicode="&#xb7;"/><glyph d="M503 0 482-55Q544-70 576-112T606-218Q604-283 573-324T493-390 388-425 279-437L283-329Q310-328 339-323T395-307 440-275 464-222Q469-192 456-176T422-151 374-139 327-133L372 0H503Z" glyph-name="cedilla" horiz-adv-x="1202" unicode="&#xb8;"/><glyph d="M747 665H594L698 1262 479 1206 502 1341 857 1454H879L747 665Z" glyph-name="onesuperior" horiz-adv-x="1202" unicode="&#xb9;"/><glyph d="M352 1140Q361 1214 393 1276T476 1384 591 1453 733 1476Q805 1474 861 1448T954 1377 1009 1272 1019 1141L1006 1024Q997 950 965 888T884 781 769 712 628 690Q556 692 500 718T406 788 351 893 339 1024L352 1140ZM502 1022Q499 984 505 950T529 888 575 845 647 827Q690 826 724 841T784 884 824 947 846 1023L859 1142Q862 1179 856 1214T832 1276 785 1319 714 1337Q670 1338 636 1323T576 1281 536 1218 514 1142L502 1022Z" glyph-name="ordmasculine" horiz-adv-x="1202" unicode="&#xba;"/><glyph d="M426 949 650 562 649 542 302 152H150L478 560 300 949H426ZM760 949 984 562 983 542 636 152H484L812 560 634 949H760Z" glyph-name="guillemotright" horiz-adv-x="1202" unicode="&#xbb;"/><glyph d="M409 751H271L365 1288 167 1238 188 1359 508 1461H527L409 751ZM588 223 481 294 1139 1239 1246 1168 588 223ZM990 269H1083L1063 152H970L943 0H804L831 152H505L516 252 919 710H1066L990 269ZM664 269H851L902 531 883 504 664 269Z" glyph-name="onequarter" horiz-adv-x="1202" unicode="&#xbc;"/><glyph d="M530 223 423 294 1081 1239 1188 1168 530 223ZM396 747H258L352 1284 154 1234 175 1355 495 1457H514L396 747ZM1046 0H521L540 104 825 343Q843 359 865 378T906 418 940 464 959 515Q965 558 941 582T874 608Q815 608 780 574T731 485L591 484Q598 540 621 584T683 659 769 706 874 722Q921 721 963 708T1037 670 1087 605 1103 515Q1100 471 1080 433T1031 361 968 299 901 246L726 115H1067L1046 0Z" glyph-name="onehalf" horiz-adv-x="1202" unicode="&#xbd;"/><glyph d="M396 222 289 293 947 1238 1054 1167 396 222ZM1022 269H1115L1095 152H1002L975 0H836L863 152H537L548 252 951 710H1098L1022 269ZM696 269H883L934 531 915 504 696 269ZM316 1157 388 1156Q412 1157 437 1163T483 1182 518 1214 537 1262Q539 1284 533 1300T513 1328 481 1344 441 1350Q396 1350 362 1330T313 1266H173Q178 1317 202 1354T263 1417 345 1454 438 1465Q483 1465 526 1454T603 1418 657 1357 674 1269Q672 1236 660 1211T628 1166 583 1131 531 1103Q583 1084 609 1045T635 949Q633 893 607 852T539 785 448 746 348 734Q299 735 255 748T178 788 126 853 106 945H243Q243 895 274 873T354 850Q379 850 403 856T448 876 482 909 500 956Q503 983 495 1001T470 1031 431 1046 384 1052L306 1053 316 1157Z" glyph-name="threequarters" horiz-adv-x="1202" unicode="&#xbe;"/><glyph d="M708 674Q702 611 689 565T654 479 599 403 520 326Q482 293 442 255T368 174 310 84 278-17Q272-64 280-103T310-170 367-215 452-233Q549-235 615-181T701-33L881-32Q871-118 833-186T736-300 602-371 441-393Q358-391 291-365T177-291 108-175 94-22Q101 54 131 119T205 240 304 346 412 442Q441 467 461 492T495 545 517 604 531 673L708 674ZM561 985Q562 1034 593 1067T674 1102Q723 1103 754 1072T785 991Q784 942 753 911T672 878Q648 877 628 884T592 906 569 941 561 985Z" glyph-name="questiondown" horiz-adv-x="1202" unicode="&#xbf;"/><glyph d="M807 377H338L158 0H-30L679 1456H831L1026 0H853L807 377ZM413 538H788L712 1168 413 538ZM851 1561H717L518 1827H722L851 1561Z" glyph-name="Agrave" horiz-adv-x="1202" unicode="&#xc0;"/><glyph d="M807 377H338L158 0H-30L679 1456H831L1026 0H853L807 377ZM413 538H788L712 1168 413 538ZM908 1824H1139L837 1558H687L908 1824Z" glyph-name="Aacute" horiz-adv-x="1202" unicode="&#xc1;"/><glyph d="M807 377H338L158 0H-30L679 1456H831L1026 0H853L807 377ZM413 538H788L712 1168 413 538ZM1084 1625 1082 1598 936 1599 818 1749 646 1600 493 1599 495 1626 767 1864H873L1084 1625Z" glyph-name="Acircumflex" horiz-adv-x="1202" unicode="&#xc2;"/><glyph d="M807 377H338L158 0H-30L679 1456H831L1026 0H853L807 377ZM413 538H788L712 1168 413 538ZM1154 1844Q1149 1800 1133 1760T1089 1688 1023 1637 936 1618Q898 1618 866 1633T804 1668 742 1702 673 1717Q649 1716 630 1707T596 1682 571 1646 555 1605L455 1628Q460 1671 477 1713T521 1787 587 1839 674 1859Q711 1859 743 1843T806 1809 868 1775 937 1760Q987 1762 1016 1795T1057 1873L1154 1844Z" glyph-name="Atilde" horiz-adv-x="1202" unicode="&#xc3;"/><glyph d="M807 377H338L158 0H-30L679 1456H831L1026 0H853L807 377ZM413 538H788L712 1168 413 538ZM485 1716Q485 1762 514 1792T591 1825Q637 1826 668 1797T698 1720Q697 1674 667 1644T591 1612Q544 1611 514 1640T485 1716ZM901 1714Q902 1760 931 1791T1008 1824Q1055 1825 1085 1796T1115 1718Q1114 1672 1084 1642T1007 1610Q961 1609 931 1638T901 1714Z" glyph-name="Adieresis" horiz-adv-x="1202" unicode="&#xc4;"/><glyph d="M807 377H338L158 0H-30L679 1456H831L1026 0H853L807 377ZM413 538H788L712 1168 413 538ZM607 1724Q608 1767 626 1805T673 1871 740 1916 822 1932Q862 1932 896 1917T954 1875 991 1814 1003 1740Q1001 1697 984 1660T939 1596 872 1553 791 1537Q751 1537 717 1551T658 1591 620 1650 607 1724ZM705 1727Q702 1687 726 1657T792 1627Q814 1627 833 1636T868 1660 893 1696 906 1737Q908 1757 903 1775T887 1808 860 1832 822 1841Q799 1841 779 1832T743 1806 717 1770 705 1727Z" glyph-name="Aring" horiz-adv-x="1202" unicode="&#xc5;"/><glyph d="M1056 0H540L600 353H305L123 0H-78L718 1456H1286L1259 1304H932L854 833H1146L1120 682H827L736 151H1083L1056 0ZM393 527H630L749 1218 393 527Z" glyph-name="AE" horiz-adv-x="1202" unicode="&#xc6;"/><glyph d="M1046 440Q1026 341 980 256T866 108 709 12 515-20Q429-18 363 10T248 86 168 197 121 331 102 477 110 626L142 829Q155 908 179 987T240 1138 326 1273 437 1381 576 1452 743 1476Q846 1474 922 1437T1049 1336 1126 1189 1157 1009H978Q975 1069 962 1125T921 1225 847 1296 733 1326Q667 1328 614 1307T518 1250 444 1163 389 1058 350 944 325 831L291 625Q284 578 281 524T283 415 302 311 345 221 417 157 524 130Q596 127 652 151T752 217 824 316 872 437L1046 440ZM555 0 534-55Q596-70 628-112T658-218Q656-283 625-324T545-390 440-425 331-437L335-329Q362-328 391-323T447-307 492-275 516-222Q521-192 508-176T474-151 426-139 379-133L424 0H555Z" glyph-name="Ccedilla" horiz-adv-x="1202" unicode="&#xc7;"/><glyph d="M959 673H370L280 157H968L940 0H72L325 1456H1185L1157 1298H478L397 830H987L959 673ZM841 1561H707L508 1827H712L841 1561Z" glyph-name="Egrave" horiz-adv-x="1202" unicode="&#xc8;"/><glyph d="M959 673H370L280 157H968L940 0H72L325 1456H1185L1157 1298H478L397 830H987L959 673ZM898 1824H1129L827 1558H677L898 1824Z" glyph-name="Eacute" horiz-adv-x="1202" unicode="&#xc9;"/><glyph d="M959 673H370L280 157H968L940 0H72L325 1456H1185L1157 1298H478L397 830H987L959 673ZM1074 1625 1072 1598 926 1599 808 1749 636 1600 483 1599 485 1626 757 1864H863L1074 1625Z" glyph-name="Ecircumflex" horiz-adv-x="1202" unicode="&#xca;"/><glyph d="M959 673H370L280 157H968L940 0H72L325 1456H1185L1157 1298H478L397 830H987L959 673ZM475 1716Q475 1762 504 1792T581 1825Q627 1826 658 1797T688 1720Q687 1674 657 1644T581 1612Q534 1611 504 1640T475 1716ZM891 1714Q892 1760 921 1791T998 1824Q1045 1825 1075 1796T1105 1718Q1104 1672 1074 1642T997 1610Q951 1609 921 1638T891 1714Z" glyph-name="Edieresis" horiz-adv-x="1202" unicode="&#xcb;"/><glyph d="M317 1456H1172L1143 1295H805L608 160H947L919 0H64L92 160H423L620 1295H288L317 1456ZM791 1561H657L458 1827H662L791 1561Z" glyph-name="Igrave" horiz-adv-x="1202" unicode="&#xcc;"/><glyph d="M317 1456H1172L1143 1295H805L608 160H947L919 0H64L92 160H423L620 1295H288L317 1456ZM848 1824H1079L777 1558H627L848 1824Z" glyph-name="Iacute" horiz-adv-x="1202" unicode="&#xcd;"/><glyph d="M317 1456H1172L1143 1295H805L608 160H947L919 0H64L92 160H423L620 1295H288L317 1456ZM1024 1625 1022 1598 876 1599 758 1749 586 1600 433 1599 435 1626 707 1864H813L1024 1625Z" glyph-name="Icircumflex" horiz-adv-x="1202" unicode="&#xce;"/><glyph d="M317 1456H1172L1143 1295H805L608 160H947L919 0H64L92 160H423L620 1295H288L317 1456ZM425 1716Q425 1762 454 1792T531 1825Q577 1826 608 1797T638 1720Q637 1674 607 1644T531 1612Q484 1611 454 1640T425 1716ZM841 1714Q842 1760 871 1791T948 1824Q995 1825 1025 1796T1055 1718Q1054 1672 1024 1642T947 1610Q901 1609 871 1638T841 1714Z" glyph-name="Idieresis" horiz-adv-x="1202" unicode="&#xcf;"/><glyph d="M76 0 191 666H-30L-3 817H217L328 1456 644 1455Q788 1452 893 1397T1064 1250 1154 1037 1162 781L1147 674Q1125 530 1065 407T910 194 691 52 415 0H76ZM589 666H375L286 151 419 150Q536 151 629 192T791 303 904 469 966 674L982 784Q995 880 985 971T934 1135 823 1253 641 1303L486 1304 401 817H616L589 666Z" glyph-name="Eth" horiz-adv-x="1232" unicode="&#xd0;"/><glyph d="M950 0H772L410 1096 217 0H34L287 1456H465L827 362 1020 1456H1203L950 0ZM1116 1844Q1111 1800 1095 1760T1051 1688 985 1637 898 1618Q860 1618 828 1633T766 1668 704 1702 635 1717Q611 1716 592 1707T558 1682 533 1646 517 1605L417 1628Q422 1671 439 1713T483 1787 549 1839 636 1859Q673 1859 705 1843T768 1809 830 1775 899 1760Q949 1762 978 1795T1019 1873L1116 1844Z" glyph-name="Ntilde" horiz-adv-x="1202" unicode="&#xd1;"/><glyph d="M1097 645Q1084 568 1061 489T1002 335 918 194 809 80 672 5 506-20Q420-18 355 12T242 93 165 209 120 348 104 497 112 644L138 810Q151 887 174 966T233 1120 317 1261 427 1375 564 1451 730 1476Q817 1474 882 1444T995 1363 1071 1247 1115 1108 1131 958 1123 810L1097 645ZM944 814Q950 860 953 914T953 1022 934 1128 893 1220 823 1285 718 1312Q653 1314 601 1293T507 1233 434 1144 379 1037 341 922 317 812L289 643Q283 598 280 544T282 435 301 328 343 236 413 170 518 142Q583 140 636 161T730 221 802 311 855 418 893 533 917 644L944 814ZM858 1582H724L525 1848H729L858 1582Z" glyph-name="Ograve" horiz-adv-x="1202" unicode="&#xd2;"/><glyph d="M1097 645Q1084 568 1061 489T1002 335 918 194 809 80 672 5 506-20Q420-18 355 12T242 93 165 209 120 348 104 497 112 644L138 810Q151 887 174 966T233 1120 317 1261 427 1375 564 1451 730 1476Q817 1474 882 1444T995 1363 1071 1247 1115 1108 1131 958 1123 810L1097 645ZM944 814Q950 860 953 914T953 1022 934 1128 893 1220 823 1285 718 1312Q653 1314 601 1293T507 1233 434 1144 379 1037 341 922 317 812L289 643Q283 598 280 544T282 435 301 328 343 236 413 170 518 142Q583 140 636 161T730 221 802 311 855 418 893 533 917 644L944 814ZM915 1845H1146L844 1579H694L915 1845Z" glyph-name="Oacute" horiz-adv-x="1202" unicode="&#xd3;"/><glyph d="M1097 645Q1084 568 1061 489T1002 335 918 194 809 80 672 5 506-20Q420-18 355 12T242 93 165 209 120 348 104 497 112 644L138 810Q151 887 174 966T233 1120 317 1261 427 1375 564 1451 730 1476Q817 1474 882 1444T995 1363 1071 1247 1115 1108 1131 958 1123 810L1097 645ZM944 814Q950 860 953 914T953 1022 934 1128 893 1220 823 1285 718 1312Q653 1314 601 1293T507 1233 434 1144 379 1037 341 922 317 812L289 643Q283 598 280 544T282 435 301 328 343 236 413 170 518 142Q583 140 636 161T730 221 802 311 855 418 893 533 917 644L944 814ZM1091 1646 1089 1619 943 1620 825 1770 653 1621 500 1620 502 1647 774 1885H880L1091 1646Z" glyph-name="Ocircumflex" horiz-adv-x="1202" unicode="&#xd4;"/><glyph d="M1097 645Q1084 568 1061 489T1002 335 918 194 809 80 672 5 506-20Q420-18 355 12T242 93 165 209 120 348 104 497 112 644L138 810Q151 887 174 966T233 1120 317 1261 427 1375 564 1451 730 1476Q817 1474 882 1444T995 1363 1071 1247 1115 1108 1131 958 1123 810L1097 645ZM944 814Q950 860 953 914T953 1022 934 1128 893 1220 823 1285 718 1312Q653 1314 601 1293T507 1233 434 1144 379 1037 341 922 317 812L289 643Q283 598 280 544T282 435 301 328 343 236 413 170 518 142Q583 140 636 161T730 221 802 311 855 418 893 533 917 644L944 814ZM1161 1865Q1156 1821 1140 1781T1096 1709 1030 1658 943 1639Q905 1639 873 1654T811 1689 749 1723 680 1738Q656 1737 637 1728T603 1703 578 1667 562 1626L462 1649Q467 1692 484 1734T528 1808 594 1860 681 1880Q718 1880 750 1864T813 1830 875 1796 944 1781Q994 1783 1023 1816T1064 1894L1161 1865Z" glyph-name="Otilde" horiz-adv-x="1202" unicode="&#xd5;"/><glyph d="M1097 645Q1084 568 1061 489T1002 335 918 194 809 80 672 5 506-20Q420-18 355 12T242 93 165 209 120 348 104 497 112 644L138 810Q151 887 174 966T233 1120 317 1261 427 1375 564 1451 730 1476Q817 1474 882 1444T995 1363 1071 1247 1115 1108 1131 958 1123 810L1097 645ZM944 814Q950 860 953 914T953 1022 934 1128 893 1220 823 1285 718 1312Q653 1314 601 1293T507 1233 434 1144 379 1037 341 922 317 812L289 643Q283 598 280 544T282 435 301 328 343 236 413 170 518 142Q583 140 636 161T730 221 802 311 855 418 893 533 917 644L944 814ZM492 1737Q492 1783 521 1813T598 1846Q644 1847 675 1818T705 1741Q704 1695 674 1665T598 1633Q551 1632 521 1661T492 1737ZM908 1735Q909 1781 938 1812T1015 1845Q1062 1846 1092 1817T1122 1739Q1121 1693 1091 1663T1014 1631Q968 1630 938 1659T908 1735Z" glyph-name="Odieresis" horiz-adv-x="1202" unicode="&#xd6;"/><glyph d="M129 338 509 674 248 1008 377 1123 637 789 1014 1123 1116 991 739 658 1002 320 874 206 610 542 231 206 129 338Z" glyph-name="multiply" horiz-adv-x="1202" unicode="&#xd7;"/><glyph d="M1089 645Q1076 568 1053 489T994 335 910 194 801 80 664 5 498-20Q410-18 346 12T233 94L93-93H-58L161 200Q137 249 123 304T101 416 95 532 104 644L130 810Q142 887 166 966T225 1120 309 1261 419 1375 556 1451 722 1476Q821 1474 891 1436T1010 1336L1144 1516H1295L1074 1221Q1093 1174 1104 1123T1120 1018 1124 913 1115 810L1089 645ZM281 643Q272 583 271 509T284 364L901 1191Q875 1243 829 1276T710 1312Q645 1314 593 1293T499 1233 426 1144 371 1037 333 922 309 812L281 643ZM936 814Q943 864 946 923T942 1043L336 233Q364 193 406 169T510 142Q575 140 628 161T722 221 794 311 847 418 885 533 909 644L936 814Z" glyph-name="Oslash" horiz-adv-x="1202" unicode="&#xd8;"/><glyph d="M1205 1456 1038 471Q1023 371 977 281T861 124 700 17 503-20Q403-18 326 23T199 132 126 287 115 469L285 1456H457L292 469Q285 410 294 352T330 247 402 170 515 137Q586 135 644 162T746 237 818 345 858 470L1030 1456H1205ZM878 1549H744L545 1815H749L878 1549Z" glyph-name="Ugrave" horiz-adv-x="1202" unicode="&#xd9;"/><glyph d="M1205 1456 1038 471Q1023 371 977 281T861 124 700 17 503-20Q403-18 326 23T199 132 126 287 115 469L285 1456H457L292 469Q285 410 294 352T330 247 402 170 515 137Q586 135 644 162T746 237 818 345 858 470L1030 1456H1205ZM935 1812H1166L864 1546H714L935 1812Z" glyph-name="Uacute" horiz-adv-x="1202" unicode="&#xda;"/><glyph d="M1205 1456 1038 471Q1023 371 977 281T861 124 700 17 503-20Q403-18 326 23T199 132 126 287 115 469L285 1456H457L292 469Q285 410 294 352T330 247 402 170 515 137Q586 135 644 162T746 237 818 345 858 470L1030 1456H1205ZM1111 1613 1109 1586 963 1587 845 1737 673 1588 520 1587 522 1614 794 1852H900L1111 1613Z" glyph-name="Ucircumflex" horiz-adv-x="1202" unicode="&#xdb;"/><glyph d="M1205 1456 1038 471Q1023 371 977 281T861 124 700 17 503-20Q403-18 326 23T199 132 126 287 115 469L285 1456H457L292 469Q285 410 294 352T330 247 402 170 515 137Q586 135 644 162T746 237 818 345 858 470L1030 1456H1205ZM512 1704Q512 1750 541 1780T618 1813Q664 1814 695 1785T725 1708Q724 1662 694 1632T618 1600Q571 1599 541 1628T512 1704ZM928 1702Q929 1748 958 1779T1035 1812Q1082 1813 1112 1784T1142 1706Q1141 1660 1111 1630T1034 1598Q988 1597 958 1626T928 1702Z" glyph-name="Udieresis" horiz-adv-x="1202" unicode="&#xdc;"/><glyph d="M602 726 1050 1456H1265L660 532 565 0H397L491 554 212 1456H408L602 726ZM888 1823H1119L817 1557H667L888 1823Z" glyph-name="Yacute" horiz-adv-x="1202" unicode="&#xdd;"/><glyph d="M492 1456 441 1163 697 1162Q790 1159 868 1131T1003 1049 1087 920 1108 745Q1099 638 1052 557T933 422 767 340 573 312L294 313 239 0H58L311 1456H492ZM415 1011 320 465 577 463Q642 463 702 481T809 536 887 624 928 744Q935 803 922 851T877 933 799 988 694 1010L415 1011Z" glyph-name="Thorn" horiz-adv-x="1202" unicode="&#xde;"/><glyph d="M239 0H59L245 1087Q258 1177 291 1263T380 1415 513 1521 693 1558Q766 1556 824 1532T923 1465 982 1362 996 1229Q991 1167 965 1116T909 1017 850 920 813 813Q805 768 818 728T855 651 908 576 963 500 1005 418 1018 325Q1013 245 984 181T905 70 788 0 641-23Q605-23 567-19T491-7 419 16 353 50L407 206Q455 173 512 151T628 129Q671 129 707 142T770 179 815 238 839 315Q846 363 832 404T793 483 738 558 683 635 642 719 631 816Q634 855 648 889T682 954 724 1016 766 1077 801 1142 821 1214Q825 1248 820 1282T799 1343 756 1388 690 1408Q625 1411 579 1381T500 1304 450 1198 424 1088L239 0Z" glyph-name="germandbls" horiz-adv-x="1202" unicode="&#xdf;"/><glyph d="M764 0Q756 30 756 59T759 118Q688 55 605 17T424-19Q356-18 296 4T191 66 122 163 101 292Q105 362 129 416T193 510 283 579 391 624 510 649 632 657L838 656 851 742Q857 793 844 832T802 898 734 939 644 954Q601 955 560 945T484 914 424 861 389 783L208 782Q217 864 261 924T369 1025 511 1084 662 1103Q744 1101 815 1077T936 1007 1013 893 1030 739L946 236Q937 181 937 126T949 17L947 0H764ZM459 140Q555 138 638 183T777 305L816 525 661 526Q606 526 544 519T426 490 332 427 285 319Q280 276 291 243T326 188 384 153 459 140ZM1047 1239H913L714 1505H918L1047 1239Z" glyph-name="agrave" horiz-adv-x="1202" unicode="&#xe0;"/><glyph d="M764 0Q756 30 756 59T759 118Q688 55 605 17T424-19Q356-18 296 4T191 66 122 163 101 292Q105 362 129 416T193 510 283 579 391 624 510 649 632 657L838 656 851 742Q857 793 844 832T802 898 734 939 644 954Q601 955 560 945T484 914 424 861 389 783L208 782Q217 864 261 924T369 1025 511 1084 662 1103Q744 1101 815 1077T936 1007 1013 893 1030 739L946 236Q937 181 937 126T949 17L947 0H764ZM459 140Q555 138 638 183T777 305L816 525 661 526Q606 526 544 519T426 490 332 427 285 319Q280 276 291 243T326 188 384 153 459 140ZM848 1502H1079L777 1236H627L848 1502Z" glyph-name="aacute" horiz-adv-x="1202" unicode="&#xe1;"/><glyph d="M764 0Q756 30 756 59T759 118Q688 55 605 17T424-19Q356-18 296 4T191 66 122 163 101 292Q105 362 129 416T193 510 283 579 391 624 510 649 632 657L838 656 851 742Q857 793 844 832T802 898 734 939 644 954Q601 955 560 945T484 914 424 861 389 783L208 782Q217 864 261 924T369 1025 511 1084 662 1103Q744 1101 815 1077T936 1007 1013 893 1030 739L946 236Q937 181 937 126T949 17L947 0H764ZM459 140Q555 138 638 183T777 305L816 525 661 526Q606 526 544 519T426 490 332 427 285 319Q280 276 291 243T326 188 384 153 459 140ZM1024 1303 1022 1276 876 1277 758 1427 586 1278 433 1277 435 1304 707 1542H813L1024 1303Z" glyph-name="acircumflex" horiz-adv-x="1202" unicode="&#xe2;"/><glyph d="M764 0Q756 30 756 59T759 118Q688 55 605 17T424-19Q356-18 296 4T191 66 122 163 101 292Q105 362 129 416T193 510 283 579 391 624 510 649 632 657L838 656 851 742Q857 793 844 832T802 898 734 939 644 954Q601 955 560 945T484 914 424 861 389 783L208 782Q217 864 261 924T369 1025 511 1084 662 1103Q744 1101 815 1077T936 1007 1013 893 1030 739L946 236Q937 181 937 126T949 17L947 0H764ZM459 140Q555 138 638 183T777 305L816 525 661 526Q606 526 544 519T426 490 332 427 285 319Q280 276 291 243T326 188 384 153 459 140ZM1094 1522Q1089 1478 1073 1438T1029 1366 963 1315 876 1296Q838 1296 806 1311T744 1346 682 1380 613 1395Q589 1394 570 1385T536 1360 511 1324 495 1283L395 1306Q400 1349 417 1391T461 1465 527 1517 614 1537Q651 1537 683 1521T746 1487 808 1453 877 1438Q927 1440 956 1473T997 1551L1094 1522Z" glyph-name="atilde" horiz-adv-x="1202" unicode="&#xe3;"/><glyph d="M764 0Q756 30 756 59T759 118Q688 55 605 17T424-19Q356-18 296 4T191 66 122 163 101 292Q105 362 129 416T193 510 283 579 391 624 510 649 632 657L838 656 851 742Q857 793 844 832T802 898 734 939 644 954Q601 955 560 945T484 914 424 861 389 783L208 782Q217 864 261 924T369 1025 511 1084 662 1103Q744 1101 815 1077T936 1007 1013 893 1030 739L946 236Q937 181 937 126T949 17L947 0H764ZM459 140Q555 138 638 183T777 305L816 525 661 526Q606 526 544 519T426 490 332 427 285 319Q280 276 291 243T326 188 384 153 459 140ZM425 1394Q425 1440 454 1470T531 1503Q577 1504 608 1475T638 1398Q637 1352 607 1322T531 1290Q484 1289 454 1318T425 1394ZM841 1392Q842 1438 871 1469T948 1502Q995 1503 1025 1474T1055 1396Q1054 1350 1024 1320T947 1288Q901 1287 871 1316T841 1392Z" glyph-name="adieresis" horiz-adv-x="1202" unicode="&#xe4;"/><glyph d="M764 0Q756 30 756 59T759 118Q688 55 605 17T424-19Q356-18 296 4T191 66 122 163 101 292Q105 362 129 416T193 510 283 579 391 624 510 649 632 657L838 656 851 742Q857 793 844 832T802 898 734 939 644 954Q601 955 560 945T484 914 424 861 389 783L208 782Q217 864 261 924T369 1025 511 1084 662 1103Q744 1101 815 1077T936 1007 1013 893 1030 739L946 236Q937 181 937 126T949 17L947 0H764ZM459 140Q555 138 638 183T777 305L816 525 661 526Q606 526 544 519T426 490 332 427 285 319Q280 276 291 243T326 188 384 153 459 140ZM547 1402Q548 1445 566 1483T613 1549 680 1594 762 1610Q802 1610 836 1595T894 1553 931 1492 943 1418Q941 1375 924 1338T879 1274 812 1231 731 1215Q691 1215 657 1229T598 1269 560 1328 547 1402ZM645 1405Q642 1365 666 1335T732 1305Q754 1305 773 1314T808 1338 833 1374 846 1415Q848 1435 843 1453T827 1486 800 1510 762 1519Q739 1519 719 1510T683 1484 657 1448 645 1405Z" glyph-name="aring" horiz-adv-x="1202" unicode="&#xe5;"/><glyph d="M776-19Q735-19 696-11T622 15 559 60 511 125Q484 93 454 66T391 20 319-10 237-20Q172-19 124 4T45 68-1 162-12 277Q-6 370 31 437T129 549 266 615 430 636L496 635 522 784Q525 812 524 841T513 895 483 934 427 951Q391 952 365 939T320 904 290 852 272 792L97 800Q104 870 131 926T203 1022 307 1083 438 1103Q471 1103 504 1097T566 1079 620 1046 664 996Q715 1045 774 1074T906 1102Q985 1100 1040 1069T1128 986 1172 868 1177 731L1140 497H651L639 410Q633 357 637 307T660 219 718 156 819 132Q876 131 923 151T1017 200L1052 62Q1024 39 991 23T921-2 848-15 776-19ZM890 952Q840 953 804 931T744 874 704 795 681 710L669 640H993L1011 769Q1014 800 1009 832T990 890 952 933 890 952ZM279 129Q301 129 321 135T360 151 396 175 429 202L481 497H427Q378 496 334 480T254 434 195 364 166 273Q163 244 168 218T188 172 225 141 279 129Z" glyph-name="ae" horiz-adv-x="1202" unicode="&#xe6;"/><glyph d="M533 129Q582 128 630 142T717 184 785 251 824 340L995 341Q986 258 941 191T830 76 684 3 525-21Q411-18 331 28T202 148 135 319 127 517L132 560Q141 633 164 702T222 832 305 943 412 1030 540 1085 687 1102Q771 1100 842 1070T963 989 1041 866 1064 709L894 710Q896 760 882 803T840 878 770 930 677 951Q594 954 531 921T422 831 350 704 312 560L307 518Q302 475 302 430T309 343 333 262 376 195 441 148 533 129ZM575 0 554-55Q616-70 648-112T678-218Q676-283 645-324T565-390 460-425 351-437L355-329Q382-328 411-323T467-307 512-275 536-222Q541-192 528-176T494-151 446-139 399-133L444 0H575Z" glyph-name="ccedilla" horiz-adv-x="1202" unicode="&#xe7;"/><glyph d="M540-20Q430-18 347 25T209 139 132 303 117 500L122 543Q130 614 153 683T212 816 297 932 405 1023 534 1083 681 1102Q793 1099 870 1054T992 934 1052 766 1054 571L1041 488H296Q288 422 300 359T345 246 430 165 556 132Q650 129 729 169T873 275L977 187Q940 135 891 96T784 30 665-8 540-20ZM672 950Q602 953 546 927T447 856 371 755 318 640L882 638 886 656Q895 711 885 763T847 856 775 922 672 950ZM1043 1240H909L710 1506H914L1043 1240Z" glyph-name="egrave" horiz-adv-x="1202" unicode="&#xe8;"/><glyph d="M540-20Q430-18 347 25T209 139 132 303 117 500L122 543Q130 614 153 683T212 816 297 932 405 1023 534 1083 681 1102Q793 1099 870 1054T992 934 1052 766 1054 571L1041 488H296Q288 422 300 359T345 246 430 165 556 132Q650 129 729 169T873 275L977 187Q940 135 891 96T784 30 665-8 540-20ZM672 950Q602 953 546 927T447 856 371 755 318 640L882 638 886 656Q895 711 885 763T847 856 775 922 672 950ZM844 1503H1075L773 1237H623L844 1503Z" glyph-name="eacute" horiz-adv-x="1202" unicode="&#xe9;"/><glyph d="M540-20Q430-18 347 25T209 139 132 303 117 500L122 543Q130 614 153 683T212 816 297 932 405 1023 534 1083 681 1102Q793 1099 870 1054T992 934 1052 766 1054 571L1041 488H296Q288 422 300 359T345 246 430 165 556 132Q650 129 729 169T873 275L977 187Q940 135 891 96T784 30 665-8 540-20ZM672 950Q602 953 546 927T447 856 371 755 318 640L882 638 886 656Q895 711 885 763T847 856 775 922 672 950ZM1020 1304 1018 1277 872 1278 754 1428 582 1279 429 1278 431 1305 703 1543H809L1020 1304Z" glyph-name="ecircumflex" horiz-adv-x="1202" unicode="&#xea;"/><glyph d="M540-20Q430-18 347 25T209 139 132 303 117 500L122 543Q130 614 153 683T212 816 297 932 405 1023 534 1083 681 1102Q793 1099 870 1054T992 934 1052 766 1054 571L1041 488H296Q288 422 300 359T345 246 430 165 556 132Q650 129 729 169T873 275L977 187Q940 135 891 96T784 30 665-8 540-20ZM672 950Q602 953 546 927T447 856 371 755 318 640L882 638 886 656Q895 711 885 763T847 856 775 922 672 950ZM421 1395Q421 1441 450 1471T527 1504Q573 1505 604 1476T634 1399Q633 1353 603 1323T527 1291Q480 1290 450 1319T421 1395ZM837 1393Q838 1439 867 1470T944 1503Q991 1504 1021 1475T1051 1397Q1050 1351 1020 1321T943 1289Q897 1288 867 1317T837 1393Z" glyph-name="edieresis" horiz-adv-x="1202" unicode="&#xeb;"/><glyph d="M280 1082H818L658 160H1001L972 0H92L121 160H477L609 921H252L280 1082ZM1084 1218H950L751 1484H955L1084 1218Z" glyph-name="igrave" horiz-adv-x="1202" unicode="&#xec;"/><glyph d="M280 1082H818L658 160H1001L972 0H92L121 160H477L609 921H252L280 1082ZM885 1481H1116L814 1215H664L885 1481Z" glyph-name="iacute" horiz-adv-x="1202" unicode="&#xed;"/><glyph d="M280 1082H818L658 160H1001L972 0H92L121 160H477L609 921H252L280 1082ZM1061 1282 1059 1255 913 1256 795 1406 623 1257 470 1256 472 1283 744 1521H850L1061 1282Z" glyph-name="icircumflex" horiz-adv-x="1202" unicode="&#xee;"/><glyph d="M280 1082H818L658 160H1001L972 0H92L121 160H477L609 921H252L280 1082ZM462 1373Q462 1419 491 1449T568 1482Q614 1483 645 1454T675 1377Q674 1331 644 1301T568 1269Q521 1268 491 1297T462 1373ZM878 1371Q879 1417 908 1448T985 1481Q1032 1482 1062 1453T1092 1375Q1091 1329 1061 1299T984 1267Q938 1266 908 1295T878 1371Z" glyph-name="idieresis" horiz-adv-x="1202" unicode="&#xef;"/><glyph d="M938 1284Q1018 1130 1039 968T1039 635L1031 572Q1016 458 972 351T855 160 682 27 456-20Q357-17 278 21T144 125 65 276 49 459Q59 567 103 662T220 829 387 940 595 977Q676 975 746 943T870 853Q872 944 849 1030T776 1193L489 1041 431 1148 684 1281Q649 1309 611 1328T531 1363L602 1520Q674 1497 737 1462T854 1375L1104 1508 1162 1399 938 1284ZM868 687Q849 726 818 752T749 795 669 819 587 827Q511 828 449 797T341 713 267 595 231 459Q223 399 234 341T276 237 354 162 469 130Q558 127 624 167T737 273 811 417 851 571L861 635 868 687Z" glyph-name="eth" horiz-adv-x="1202" unicode="&#xf0;"/><glyph d="M413 1083 390 922Q423 962 462 996T545 1054 638 1090 741 1102Q832 1100 894 1066T992 976 1041 844 1045 687L930 0H749L864 684Q870 739 865 786T838 868 777 923 678 945Q631 946 589 934T509 899 440 845 380 777L245 0H64L252 1082 413 1083ZM1075 1522Q1070 1478 1054 1438T1010 1366 944 1315 857 1296Q819 1296 787 1311T725 1346 663 1380 594 1395Q570 1394 551 1385T517 1360 492 1324 476 1283L376 1306Q381 1349 398 1391T442 1465 508 1517 595 1537Q632 1537 664 1521T727 1487 789 1453 858 1438Q908 1440 937 1473T978 1551L1075 1522Z" glyph-name="ntilde" horiz-adv-x="1202" unicode="&#xf1;"/><glyph d="M110 544Q119 617 141 687T199 820 281 935 387 1025 515 1083 665 1102Q779 1099 859 1052T989 928 1056 754 1064 554L1062 531Q1048 422 1004 321T888 144 721 22 506-20Q393-17 313 29T183 152 115 324 107 522L110 544ZM288 522Q283 480 283 435T291 347 315 265 358 197 423 149 514 129Q597 126 661 162T770 256 843 386 881 531L883 553Q890 616 886 685T856 812 783 909 657 951Q573 954 509 918T400 822 328 690 291 544L288 522ZM1037 1239H903L704 1505H908L1037 1239Z" glyph-name="ograve" horiz-adv-x="1202" unicode="&#xf2;"/><glyph d="M110 544Q119 617 141 687T199 820 281 935 387 1025 515 1083 665 1102Q779 1099 859 1052T989 928 1056 754 1064 554L1062 531Q1048 422 1004 321T888 144 721 22 506-20Q393-17 313 29T183 152 115 324 107 522L110 544ZM288 522Q283 480 283 435T291 347 315 265 358 197 423 149 514 129Q597 126 661 162T770 256 843 386 881 531L883 553Q890 616 886 685T856 812 783 909 657 951Q573 954 509 918T400 822 328 690 291 544L288 522ZM838 1502H1069L767 1236H617L838 1502Z" glyph-name="oacute" horiz-adv-x="1202" unicode="&#xf3;"/><glyph d="M110 544Q119 617 141 687T199 820 281 935 387 1025 515 1083 665 1102Q779 1099 859 1052T989 928 1056 754 1064 554L1062 531Q1048 422 1004 321T888 144 721 22 506-20Q393-17 313 29T183 152 115 324 107 522L110 544ZM288 522Q283 480 283 435T291 347 315 265 358 197 423 149 514 129Q597 126 661 162T770 256 843 386 881 531L883 553Q890 616 886 685T856 812 783 909 657 951Q573 954 509 918T400 822 328 690 291 544L288 522ZM1014 1303 1012 1276 866 1277 748 1427 576 1278 423 1277 425 1304 697 1542H803L1014 1303Z" glyph-name="ocircumflex" horiz-adv-x="1202" unicode="&#xf4;"/><glyph d="M110 544Q119 617 141 687T199 820 281 935 387 1025 515 1083 665 1102Q779 1099 859 1052T989 928 1056 754 1064 554L1062 531Q1048 422 1004 321T888 144 721 22 506-20Q393-17 313 29T183 152 115 324 107 522L110 544ZM288 522Q283 480 283 435T291 347 315 265 358 197 423 149 514 129Q597 126 661 162T770 256 843 386 881 531L883 553Q890 616 886 685T856 812 783 909 657 951Q573 954 509 918T400 822 328 690 291 544L288 522ZM1084 1522Q1079 1478 1063 1438T1019 1366 953 1315 866 1296Q828 1296 796 1311T734 1346 672 1380 603 1395Q579 1394 560 1385T526 1360 501 1324 485 1283L385 1306Q390 1349 407 1391T451 1465 517 1517 604 1537Q641 1537 673 1521T736 1487 798 1453 867 1438Q917 1440 946 1473T987 1551L1084 1522Z" glyph-name="otilde" horiz-adv-x="1202" unicode="&#xf5;"/><glyph d="M110 544Q119 617 141 687T199 820 281 935 387 1025 515 1083 665 1102Q779 1099 859 1052T989 928 1056 754 1064 554L1062 531Q1048 422 1004 321T888 144 721 22 506-20Q393-17 313 29T183 152 115 324 107 522L110 544ZM288 522Q283 480 283 435T291 347 315 265 358 197 423 149 514 129Q597 126 661 162T770 256 843 386 881 531L883 553Q890 616 886 685T856 812 783 909 657 951Q573 954 509 918T400 822 328 690 291 544L288 522ZM415 1394Q415 1440 444 1470T521 1503Q567 1504 598 1475T628 1398Q627 1352 597 1322T521 1290Q474 1289 444 1318T415 1394ZM831 1392Q832 1438 861 1469T938 1502Q985 1503 1015 1474T1045 1396Q1044 1350 1014 1320T937 1288Q891 1287 861 1316T831 1392Z" glyph-name="odieresis" horiz-adv-x="1202" unicode="&#xf6;"/><glyph d="M1080 600H111L143 784H1113L1080 600ZM578 1094Q579 1141 608 1172T684 1205Q707 1206 727 1199T761 1177 783 1143 791 1100Q790 1053 760 1023T684 991Q637 989 607 1018T578 1094ZM435 279Q435 326 464 357T541 390Q564 391 584 384T618 362 640 328 648 285Q647 238 617 208T541 176Q518 175 499 182T465 204 443 237 435 279Z" glyph-name="divide" horiz-adv-x="1202" unicode="&#xf7;"/><glyph d="M110 544Q119 617 141 687T199 820 281 935 387 1025 515 1083 665 1102Q722 1100 770 1087T860 1051L963 1209H1094L946 983Q983 944 1008 895T1048 790 1066 675 1064 554L1062 531Q1048 422 1004 321T888 144 721 22 506-20Q452-18 406-7T321 25L217-135H86L233 90Q194 129 168 178T125 282 105 399 107 522L110 544ZM288 522Q283 486 283 449T286 374 301 302 329 237L772 917Q724 948 657 951 573 954 509 918T400 822 328 690 291 544L288 522ZM883 553Q887 587 887 623T884 695 871 765 847 830L407 157Q452 130 514 129 597 126 661 162T770 256 843 386 881 531L883 553Z" glyph-name="oslash" horiz-adv-x="1202" unicode="&#xf8;"/><glyph d="M780 149Q716 70 633 24T445-20Q348-18 287 22T192 128 150 274 150 439L258 1082H439L332 436Q326 386 325 334T338 238 387 167 484 137Q584 134 661 178T791 305L926 1082H1108L920 0H757L780 149ZM1032 1219H898L699 1485H903L1032 1219Z" glyph-name="ugrave" horiz-adv-x="1202" unicode="&#xf9;"/><glyph d="M780 149Q716 70 633 24T445-20Q348-18 287 22T192 128 150 274 150 439L258 1082H439L332 436Q326 386 325 334T338 238 387 167 484 137Q584 134 661 178T791 305L926 1082H1108L920 0H757L780 149ZM833 1482H1064L762 1216H612L833 1482Z" glyph-name="uacute" horiz-adv-x="1202" unicode="&#xfa;"/><glyph d="M780 149Q716 70 633 24T445-20Q348-18 287 22T192 128 150 274 150 439L258 1082H439L332 436Q326 386 325 334T338 238 387 167 484 137Q584 134 661 178T791 305L926 1082H1108L920 0H757L780 149ZM1009 1283 1007 1256 861 1257 743 1407 571 1258 418 1257 420 1284 692 1522H798L1009 1283Z" glyph-name="ucircumflex" horiz-adv-x="1202" unicode="&#xfb;"/><glyph d="M780 149Q716 70 633 24T445-20Q348-18 287 22T192 128 150 274 150 439L258 1082H439L332 436Q326 386 325 334T338 238 387 167 484 137Q584 134 661 178T791 305L926 1082H1108L920 0H757L780 149ZM410 1374Q410 1420 439 1450T516 1483Q562 1484 593 1455T623 1378Q622 1332 592 1302T516 1270Q469 1269 439 1298T410 1374ZM826 1372Q827 1418 856 1449T933 1482Q980 1483 1010 1454T1040 1376Q1039 1330 1009 1300T932 1268Q886 1267 856 1296T826 1372Z" glyph-name="udieresis" horiz-adv-x="1202" unicode="&#xfc;"/><glyph d="M516 375 537 255 1001 1082H1212L464-168Q434-220 396-269T312-356 210-417 89-440Q60-440 31-435T-28-424L13-271Q35-273 57-276T100-279Q139-278 172-260T232-215 281-156 322-94L425 62 154 1082H347L516 375ZM853 1482H1084L782 1216H632L853 1482Z" glyph-name="yacute" horiz-adv-x="1202" unicode="&#xfd;"/><glyph d="M1043 535Q1035 469 1017 402T970 272 902 156 811 62 696 0 556-21Q471-19 397 11T269 108L172-416H-9L334 1558H514L404 969Q467 1035 545 1069T717 1102Q790 1100 845 1076T938 1011 1001 917 1038 803 1051 680 1046 556L1043 535ZM864 557Q869 597 869 641T864 727 844 809 804 877 742 925 654 945Q568 948 501 906T383 797L292 277Q323 207 378 170T511 130Q595 128 656 164T760 260 827 392 862 536L864 557Z" glyph-name="thorn" horiz-adv-x="1202" unicode="&#xfe;"/><glyph d="M516 375 537 255 1001 1082H1212L464-168Q434-220 396-269T312-356 210-417 89-440Q60-440 31-435T-28-424L13-271Q35-273 57-276T100-279Q139-278 172-260T232-215 281-156 322-94L425 62 154 1082H347L516 375ZM430 1374Q430 1420 459 1450T536 1483Q582 1484 613 1455T643 1378Q642 1332 612 1302T536 1270Q489 1269 459 1298T430 1374ZM846 1372Q847 1418 876 1449T953 1482Q1000 1483 1030 1454T1060 1376Q1059 1330 1029 1300T952 1268Q906 1267 876 1296T846 1372Z" glyph-name="ydieresis" horiz-adv-x="1202" unicode="&#xff;"/><glyph d="M1136 651H82L117 802H1171L1136 651Z" glyph-name="endash" horiz-adv-x="1202" unicode="&#x2013;"/><glyph d="M1141 651H87L122 802H1176L1141 651Z" glyph-name="emdash" horiz-adv-x="1202" unicode="&#x2014;"/><glyph d="M576 1184Q595 1298 654 1395T803 1565L898 1491Q846 1422 809 1348T756 1188L729 1039H553L576 1184Z" glyph-name="quoteleft" horiz-adv-x="1202" unicode="&#x2018;"/><glyph d="M857 1412Q839 1298 780 1200T631 1031L536 1105Q588 1174 625 1248T678 1408L704 1558H881L857 1412Z" glyph-name="quoteright" horiz-adv-x="1202" unicode="&#x2019;"/><glyph d="M614 77Q595-36 535-133T387-303L288-228Q341-159 378-86T430 74L457 225H637L614 77Z" glyph-name="quotesinglbase" horiz-adv-x="1202" unicode="&#x201a;"/><glyph d="M418 1184Q437 1298 496 1395T645 1565L740 1491Q688 1422 651 1348T598 1188L571 1039H395L418 1184ZM733 1184Q752 1298 811 1395T960 1565L1055 1491Q1003 1422 966 1348T913 1188L886 1039H710L733 1184Z" glyph-name="quotedblleft" horiz-adv-x="1202" unicode="&#x201c;"/><glyph d="M702 1412Q684 1298 625 1200T476 1031L381 1105Q433 1174 470 1248T523 1408L549 1558H726L702 1412ZM1024 1412Q1006 1298 947 1200T798 1031L703 1105Q755 1174 792 1248T845 1408L871 1558H1048L1024 1412Z" glyph-name="quotedblright" horiz-adv-x="1202" unicode="&#x201d;"/><glyph d="M477 76Q458-38 398-135T250-305L151-230Q203-161 240-88T293 72L320 223H500L477 76ZM758 76Q740-38 680-135T531-305L432-230Q485-161 522-88T575 72L601 223H782L758 76Z" glyph-name="quotedblbase" horiz-adv-x="1202" unicode="&#x201e;"/><glyph d="M427 784Q430 828 446 865T489 930 555 973 638 988Q681 988 716 973T775 931 811 868 823 789L820 731Q817 687 801 651T757 588 692 547 609 533Q567 533 533 547T475 587 438 648 425 725L427 784Z" glyph-name="bullet" horiz-adv-x="1202" unicode="&#x2022;"/><glyph d="M547 540 724 153H600L374 540 376 560 724 949H875L547 540Z" glyph-name="guilsinglleft" horiz-adv-x="1202" unicode="&#x2039;"/><glyph d="M576 949 800 562 799 542 452 152H300L628 560 450 949H576Z" glyph-name="guilsinglright" horiz-adv-x="1202" unicode="&#x203a;"/></font>
</defs>
</svg>
