<?xml version="1.0" encoding="utf-8"?>
<svg xmlns="http://www.w3.org/2000/svg" xmlns:xlink="http://www.w3.org/1999/xlink" xml:space="preserve" width="1023" height="1023" viewBox="0 0 1023 1023"><rect width="1023" height="1023" fill="#ffffff" x="0" y="0"/><g fill="#000000">
<g transform="translate(341,62) scale(5.3216666666667)"><rect width="6" height="6"/></g>
<g transform="translate(465,62) scale(5.3216666666667)"><rect width="6" height="6"/></g>
<g transform="translate(558,62) scale(5.3216666666667)"><rect width="6" height="6"/></g>
<g transform="translate(651,62) scale(5.3216666666667)"><rect width="6" height="6"/></g>
<g transform="translate(682,62) scale(5.3216666666667)"><rect width="6" height="6"/></g>
<g transform="translate(310,93) scale(5.3216666666667)"><rect width="6" height="6"/></g>
<g transform="translate(341,93) scale(5.3216666666667)"><rect width="6" height="6"/></g>
<g transform="translate(403,93) scale(5.3216666666667)"><rect width="6" height="6"/></g>
<g transform="translate(434,93) scale(5.3216666666667)"><rect width="6" height="6"/></g>
<g transform="translate(496,93) scale(5.3216666666667)"><rect width="6" height="6"/></g>
<g transform="translate(527,93) scale(5.3216666666667)"><rect width="6" height="6"/></g>
<g transform="translate(589,93) scale(5.3216666666667)"><rect width="6" height="6"/></g>
<g transform="translate(620,93) scale(5.3216666666667)"><rect width="6" height="6"/></g>
<g transform="translate(341,124) scale(5.3216666666667)"><rect width="6" height="6"/></g>
<g transform="translate(372,124) scale(5.3216666666667)"><rect width="6" height="6"/></g>
<g transform="translate(403,124) scale(5.3216666666667)"><rect width="6" height="6"/></g>
<g transform="translate(527,124) scale(5.3216666666667)"><rect width="6" height="6"/></g>
<g transform="translate(558,124) scale(5.3216666666667)"><rect width="6" height="6"/></g>
<g transform="translate(620,124) scale(5.3216666666667)"><rect width="6" height="6"/></g>
<g transform="translate(310,155) scale(5.3216666666667)"><rect width="6" height="6"/></g>
<g transform="translate(341,155) scale(5.3216666666667)"><rect width="6" height="6"/></g>
<g transform="translate(403,155) scale(5.3216666666667)"><rect width="6" height="6"/></g>
<g transform="translate(465,155) scale(5.3216666666667)"><rect width="6" height="6"/></g>
<g transform="translate(496,155) scale(5.3216666666667)"><rect width="6" height="6"/></g>
<g transform="translate(589,155) scale(5.3216666666667)"><rect width="6" height="6"/></g>
<g transform="translate(682,155) scale(5.3216666666667)"><rect width="6" height="6"/></g>
<g transform="translate(372,186) scale(5.3216666666667)"><rect width="6" height="6"/></g>
<g transform="translate(434,186) scale(5.3216666666667)"><rect width="6" height="6"/></g>
<g transform="translate(496,186) scale(5.3216666666667)"><rect width="6" height="6"/></g>
<g transform="translate(558,186) scale(5.3216666666667)"><rect width="6" height="6"/></g>
<g transform="translate(589,186) scale(5.3216666666667)"><rect width="6" height="6"/></g>
<g transform="translate(620,186) scale(5.3216666666667)"><rect width="6" height="6"/></g>
<g transform="translate(651,186) scale(5.3216666666667)"><rect width="6" height="6"/></g>
<g transform="translate(682,186) scale(5.3216666666667)"><rect width="6" height="6"/></g>
<g transform="translate(310,217) scale(5.3216666666667)"><rect width="6" height="6"/></g>
<g transform="translate(372,217) scale(5.3216666666667)"><rect width="6" height="6"/></g>
<g transform="translate(465,217) scale(5.3216666666667)"><rect width="6" height="6"/></g>
<g transform="translate(527,217) scale(5.3216666666667)"><rect width="6" height="6"/></g>
<g transform="translate(558,217) scale(5.3216666666667)"><rect width="6" height="6"/></g>
<g transform="translate(589,217) scale(5.3216666666667)"><rect width="6" height="6"/></g>
<g transform="translate(682,217) scale(5.3216666666667)"><rect width="6" height="6"/></g>
<g transform="translate(310,248) scale(5.3216666666667)"><rect width="6" height="6"/></g>
<g transform="translate(372,248) scale(5.3216666666667)"><rect width="6" height="6"/></g>
<g transform="translate(434,248) scale(5.3216666666667)"><rect width="6" height="6"/></g>
<g transform="translate(496,248) scale(5.3216666666667)"><rect width="6" height="6"/></g>
<g transform="translate(558,248) scale(5.3216666666667)"><rect width="6" height="6"/></g>
<g transform="translate(620,248) scale(5.3216666666667)"><rect width="6" height="6"/></g>
<g transform="translate(682,248) scale(5.3216666666667)"><rect width="6" height="6"/></g>
<g transform="translate(434,279) scale(5.3216666666667)"><rect width="6" height="6"/></g>
<g transform="translate(496,279) scale(5.3216666666667)"><rect width="6" height="6"/></g>
<g transform="translate(527,279) scale(5.3216666666667)"><rect width="6" height="6"/></g>
<g transform="translate(651,279) scale(5.3216666666667)"><rect width="6" height="6"/></g>
<g transform="translate(682,279) scale(5.3216666666667)"><rect width="6" height="6"/></g>
<g transform="translate(62,310) scale(5.3216666666667)"><rect width="6" height="6"/></g>
<g transform="translate(93,310) scale(5.3216666666667)"><rect width="6" height="6"/></g>
<g transform="translate(124,310) scale(5.3216666666667)"><rect width="6" height="6"/></g>
<g transform="translate(155,310) scale(5.3216666666667)"><rect width="6" height="6"/></g>
<g transform="translate(186,310) scale(5.3216666666667)"><rect width="6" height="6"/></g>
<g transform="translate(248,310) scale(5.3216666666667)"><rect width="6" height="6"/></g>
<g transform="translate(279,310) scale(5.3216666666667)"><rect width="6" height="6"/></g>
<g transform="translate(310,310) scale(5.3216666666667)"><rect width="6" height="6"/></g>
<g transform="translate(341,310) scale(5.3216666666667)"><rect width="6" height="6"/></g>
<g transform="translate(372,310) scale(5.3216666666667)"><rect width="6" height="6"/></g>
<g transform="translate(434,310) scale(5.3216666666667)"><rect width="6" height="6"/></g>
<g transform="translate(465,310) scale(5.3216666666667)"><rect width="6" height="6"/></g>
<g transform="translate(527,310) scale(5.3216666666667)"><rect width="6" height="6"/></g>
<g transform="translate(589,310) scale(5.3216666666667)"><rect width="6" height="6"/></g>
<g transform="translate(651,310) scale(5.3216666666667)"><rect width="6" height="6"/></g>
<g transform="translate(713,310) scale(5.3216666666667)"><rect width="6" height="6"/></g>
<g transform="translate(775,310) scale(5.3216666666667)"><rect width="6" height="6"/></g>
<g transform="translate(837,310) scale(5.3216666666667)"><rect width="6" height="6"/></g>
<g transform="translate(899,310) scale(5.3216666666667)"><rect width="6" height="6"/></g>
<g transform="translate(62,341) scale(5.3216666666667)"><rect width="6" height="6"/></g>
<g transform="translate(93,341) scale(5.3216666666667)"><rect width="6" height="6"/></g>
<g transform="translate(279,341) scale(5.3216666666667)"><rect width="6" height="6"/></g>
<g transform="translate(310,341) scale(5.3216666666667)"><rect width="6" height="6"/></g>
<g transform="translate(341,341) scale(5.3216666666667)"><rect width="6" height="6"/></g>
<g transform="translate(465,341) scale(5.3216666666667)"><rect width="6" height="6"/></g>
<g transform="translate(558,341) scale(5.3216666666667)"><rect width="6" height="6"/></g>
<g transform="translate(589,341) scale(5.3216666666667)"><rect width="6" height="6"/></g>
<g transform="translate(620,341) scale(5.3216666666667)"><rect width="6" height="6"/></g>
<g transform="translate(651,341) scale(5.3216666666667)"><rect width="6" height="6"/></g>
<g transform="translate(744,341) scale(5.3216666666667)"><rect width="6" height="6"/></g>
<g transform="translate(775,341) scale(5.3216666666667)"><rect width="6" height="6"/></g>
<g transform="translate(806,341) scale(5.3216666666667)"><rect width="6" height="6"/></g>
<g transform="translate(930,341) scale(5.3216666666667)"><rect width="6" height="6"/></g>
<g transform="translate(93,372) scale(5.3216666666667)"><rect width="6" height="6"/></g>
<g transform="translate(124,372) scale(5.3216666666667)"><rect width="6" height="6"/></g>
<g transform="translate(155,372) scale(5.3216666666667)"><rect width="6" height="6"/></g>
<g transform="translate(186,372) scale(5.3216666666667)"><rect width="6" height="6"/></g>
<g transform="translate(217,372) scale(5.3216666666667)"><rect width="6" height="6"/></g>
<g transform="translate(248,372) scale(5.3216666666667)"><rect width="6" height="6"/></g>
<g transform="translate(310,372) scale(5.3216666666667)"><rect width="6" height="6"/></g>
<g transform="translate(341,372) scale(5.3216666666667)"><rect width="6" height="6"/></g>
<g transform="translate(403,372) scale(5.3216666666667)"><rect width="6" height="6"/></g>
<g transform="translate(434,372) scale(5.3216666666667)"><rect width="6" height="6"/></g>
<g transform="translate(465,372) scale(5.3216666666667)"><rect width="6" height="6"/></g>
<g transform="translate(496,372) scale(5.3216666666667)"><rect width="6" height="6"/></g>
<g transform="translate(527,372) scale(5.3216666666667)"><rect width="6" height="6"/></g>
<g transform="translate(558,372) scale(5.3216666666667)"><rect width="6" height="6"/></g>
<g transform="translate(589,372) scale(5.3216666666667)"><rect width="6" height="6"/></g>
<g transform="translate(620,372) scale(5.3216666666667)"><rect width="6" height="6"/></g>
<g transform="translate(713,372) scale(5.3216666666667)"><rect width="6" height="6"/></g>
<g transform="translate(806,372) scale(5.3216666666667)"><rect width="6" height="6"/></g>
<g transform="translate(124,403) scale(5.3216666666667)"><rect width="6" height="6"/></g>
<g transform="translate(155,403) scale(5.3216666666667)"><rect width="6" height="6"/></g>
<g transform="translate(186,403) scale(5.3216666666667)"><rect width="6" height="6"/></g>
<g transform="translate(310,403) scale(5.3216666666667)"><rect width="6" height="6"/></g>
<g transform="translate(341,403) scale(5.3216666666667)"><rect width="6" height="6"/></g>
<g transform="translate(372,403) scale(5.3216666666667)"><rect width="6" height="6"/></g>
<g transform="translate(403,403) scale(5.3216666666667)"><rect width="6" height="6"/></g>
<g transform="translate(620,403) scale(5.3216666666667)"><rect width="6" height="6"/></g>
<g transform="translate(682,403) scale(5.3216666666667)"><rect width="6" height="6"/></g>
<g transform="translate(713,403) scale(5.3216666666667)"><rect width="6" height="6"/></g>
<g transform="translate(744,403) scale(5.3216666666667)"><rect width="6" height="6"/></g>
<g transform="translate(837,403) scale(5.3216666666667)"><rect width="6" height="6"/></g>
<g transform="translate(899,403) scale(5.3216666666667)"><rect width="6" height="6"/></g>
<g transform="translate(62,434) scale(5.3216666666667)"><rect width="6" height="6"/></g>
<g transform="translate(93,434) scale(5.3216666666667)"><rect width="6" height="6"/></g>
<g transform="translate(124,434) scale(5.3216666666667)"><rect width="6" height="6"/></g>
<g transform="translate(155,434) scale(5.3216666666667)"><rect width="6" height="6"/></g>
<g transform="translate(217,434) scale(5.3216666666667)"><rect width="6" height="6"/></g>
<g transform="translate(248,434) scale(5.3216666666667)"><rect width="6" height="6"/></g>
<g transform="translate(279,434) scale(5.3216666666667)"><rect width="6" height="6"/></g>
<g transform="translate(341,434) scale(5.3216666666667)"><rect width="6" height="6"/></g>
<g transform="translate(403,434) scale(5.3216666666667)"><rect width="6" height="6"/></g>
<g transform="translate(465,434) scale(5.3216666666667)"><rect width="6" height="6"/></g>
<g transform="translate(496,434) scale(5.3216666666667)"><rect width="6" height="6"/></g>
<g transform="translate(527,434) scale(5.3216666666667)"><rect width="6" height="6"/></g>
<g transform="translate(589,434) scale(5.3216666666667)"><rect width="6" height="6"/></g>
<g transform="translate(682,434) scale(5.3216666666667)"><rect width="6" height="6"/></g>
<g transform="translate(837,434) scale(5.3216666666667)"><rect width="6" height="6"/></g>
<g transform="translate(868,434) scale(5.3216666666667)"><rect width="6" height="6"/></g>
<g transform="translate(93,465) scale(5.3216666666667)"><rect width="6" height="6"/></g>
<g transform="translate(310,465) scale(5.3216666666667)"><rect width="6" height="6"/></g>
<g transform="translate(372,465) scale(5.3216666666667)"><rect width="6" height="6"/></g>
<g transform="translate(434,465) scale(5.3216666666667)"><rect width="6" height="6"/></g>
<g transform="translate(465,465) scale(5.3216666666667)"><rect width="6" height="6"/></g>
<g transform="translate(558,465) scale(5.3216666666667)"><rect width="6" height="6"/></g>
<g transform="translate(620,465) scale(5.3216666666667)"><rect width="6" height="6"/></g>
<g transform="translate(651,465) scale(5.3216666666667)"><rect width="6" height="6"/></g>
<g transform="translate(682,465) scale(5.3216666666667)"><rect width="6" height="6"/></g>
<g transform="translate(713,465) scale(5.3216666666667)"><rect width="6" height="6"/></g>
<g transform="translate(744,465) scale(5.3216666666667)"><rect width="6" height="6"/></g>
<g transform="translate(775,465) scale(5.3216666666667)"><rect width="6" height="6"/></g>
<g transform="translate(806,465) scale(5.3216666666667)"><rect width="6" height="6"/></g>
<g transform="translate(930,465) scale(5.3216666666667)"><rect width="6" height="6"/></g>
<g transform="translate(62,496) scale(5.3216666666667)"><rect width="6" height="6"/></g>
<g transform="translate(217,496) scale(5.3216666666667)"><rect width="6" height="6"/></g>
<g transform="translate(248,496) scale(5.3216666666667)"><rect width="6" height="6"/></g>
<g transform="translate(279,496) scale(5.3216666666667)"><rect width="6" height="6"/></g>
<g transform="translate(310,496) scale(5.3216666666667)"><rect width="6" height="6"/></g>
<g transform="translate(341,496) scale(5.3216666666667)"><rect width="6" height="6"/></g>
<g transform="translate(372,496) scale(5.3216666666667)"><rect width="6" height="6"/></g>
<g transform="translate(527,496) scale(5.3216666666667)"><rect width="6" height="6"/></g>
<g transform="translate(558,496) scale(5.3216666666667)"><rect width="6" height="6"/></g>
<g transform="translate(806,496) scale(5.3216666666667)"><rect width="6" height="6"/></g>
<g transform="translate(837,496) scale(5.3216666666667)"><rect width="6" height="6"/></g>
<g transform="translate(868,496) scale(5.3216666666667)"><rect width="6" height="6"/></g>
<g transform="translate(93,527) scale(5.3216666666667)"><rect width="6" height="6"/></g>
<g transform="translate(124,527) scale(5.3216666666667)"><rect width="6" height="6"/></g>
<g transform="translate(186,527) scale(5.3216666666667)"><rect width="6" height="6"/></g>
<g transform="translate(279,527) scale(5.3216666666667)"><rect width="6" height="6"/></g>
<g transform="translate(310,527) scale(5.3216666666667)"><rect width="6" height="6"/></g>
<g transform="translate(372,527) scale(5.3216666666667)"><rect width="6" height="6"/></g>
<g transform="translate(434,527) scale(5.3216666666667)"><rect width="6" height="6"/></g>
<g transform="translate(651,527) scale(5.3216666666667)"><rect width="6" height="6"/></g>
<g transform="translate(775,527) scale(5.3216666666667)"><rect width="6" height="6"/></g>
<g transform="translate(806,527) scale(5.3216666666667)"><rect width="6" height="6"/></g>
<g transform="translate(899,527) scale(5.3216666666667)"><rect width="6" height="6"/></g>
<g transform="translate(248,558) scale(5.3216666666667)"><rect width="6" height="6"/></g>
<g transform="translate(279,558) scale(5.3216666666667)"><rect width="6" height="6"/></g>
<g transform="translate(310,558) scale(5.3216666666667)"><rect width="6" height="6"/></g>
<g transform="translate(372,558) scale(5.3216666666667)"><rect width="6" height="6"/></g>
<g transform="translate(434,558) scale(5.3216666666667)"><rect width="6" height="6"/></g>
<g transform="translate(465,558) scale(5.3216666666667)"><rect width="6" height="6"/></g>
<g transform="translate(496,558) scale(5.3216666666667)"><rect width="6" height="6"/></g>
<g transform="translate(527,558) scale(5.3216666666667)"><rect width="6" height="6"/></g>
<g transform="translate(558,558) scale(5.3216666666667)"><rect width="6" height="6"/></g>
<g transform="translate(589,558) scale(5.3216666666667)"><rect width="6" height="6"/></g>
<g transform="translate(682,558) scale(5.3216666666667)"><rect width="6" height="6"/></g>
<g transform="translate(775,558) scale(5.3216666666667)"><rect width="6" height="6"/></g>
<g transform="translate(837,558) scale(5.3216666666667)"><rect width="6" height="6"/></g>
<g transform="translate(868,558) scale(5.3216666666667)"><rect width="6" height="6"/></g>
<g transform="translate(62,589) scale(5.3216666666667)"><rect width="6" height="6"/></g>
<g transform="translate(124,589) scale(5.3216666666667)"><rect width="6" height="6"/></g>
<g transform="translate(155,589) scale(5.3216666666667)"><rect width="6" height="6"/></g>
<g transform="translate(186,589) scale(5.3216666666667)"><rect width="6" height="6"/></g>
<g transform="translate(279,589) scale(5.3216666666667)"><rect width="6" height="6"/></g>
<g transform="translate(310,589) scale(5.3216666666667)"><rect width="6" height="6"/></g>
<g transform="translate(341,589) scale(5.3216666666667)"><rect width="6" height="6"/></g>
<g transform="translate(372,589) scale(5.3216666666667)"><rect width="6" height="6"/></g>
<g transform="translate(496,589) scale(5.3216666666667)"><rect width="6" height="6"/></g>
<g transform="translate(558,589) scale(5.3216666666667)"><rect width="6" height="6"/></g>
<g transform="translate(620,589) scale(5.3216666666667)"><rect width="6" height="6"/></g>
<g transform="translate(651,589) scale(5.3216666666667)"><rect width="6" height="6"/></g>
<g transform="translate(682,589) scale(5.3216666666667)"><rect width="6" height="6"/></g>
<g transform="translate(713,589) scale(5.3216666666667)"><rect width="6" height="6"/></g>
<g transform="translate(744,589) scale(5.3216666666667)"><rect width="6" height="6"/></g>
<g transform="translate(775,589) scale(5.3216666666667)"><rect width="6" height="6"/></g>
<g transform="translate(806,589) scale(5.3216666666667)"><rect width="6" height="6"/></g>
<g transform="translate(868,589) scale(5.3216666666667)"><rect width="6" height="6"/></g>
<g transform="translate(930,589) scale(5.3216666666667)"><rect width="6" height="6"/></g>
<g transform="translate(62,620) scale(5.3216666666667)"><rect width="6" height="6"/></g>
<g transform="translate(155,620) scale(5.3216666666667)"><rect width="6" height="6"/></g>
<g transform="translate(186,620) scale(5.3216666666667)"><rect width="6" height="6"/></g>
<g transform="translate(217,620) scale(5.3216666666667)"><rect width="6" height="6"/></g>
<g transform="translate(248,620) scale(5.3216666666667)"><rect width="6" height="6"/></g>
<g transform="translate(279,620) scale(5.3216666666667)"><rect width="6" height="6"/></g>
<g transform="translate(403,620) scale(5.3216666666667)"><rect width="6" height="6"/></g>
<g transform="translate(434,620) scale(5.3216666666667)"><rect width="6" height="6"/></g>
<g transform="translate(496,620) scale(5.3216666666667)"><rect width="6" height="6"/></g>
<g transform="translate(527,620) scale(5.3216666666667)"><rect width="6" height="6"/></g>
<g transform="translate(558,620) scale(5.3216666666667)"><rect width="6" height="6"/></g>
<g transform="translate(589,620) scale(5.3216666666667)"><rect width="6" height="6"/></g>
<g transform="translate(620,620) scale(5.3216666666667)"><rect width="6" height="6"/></g>
<g transform="translate(682,620) scale(5.3216666666667)"><rect width="6" height="6"/></g>
<g transform="translate(713,620) scale(5.3216666666667)"><rect width="6" height="6"/></g>
<g transform="translate(775,620) scale(5.3216666666667)"><rect width="6" height="6"/></g>
<g transform="translate(806,620) scale(5.3216666666667)"><rect width="6" height="6"/></g>
<g transform="translate(868,620) scale(5.3216666666667)"><rect width="6" height="6"/></g>
<g transform="translate(62,651) scale(5.3216666666667)"><rect width="6" height="6"/></g>
<g transform="translate(124,651) scale(5.3216666666667)"><rect width="6" height="6"/></g>
<g transform="translate(155,651) scale(5.3216666666667)"><rect width="6" height="6"/></g>
<g transform="translate(217,651) scale(5.3216666666667)"><rect width="6" height="6"/></g>
<g transform="translate(310,651) scale(5.3216666666667)"><rect width="6" height="6"/></g>
<g transform="translate(341,651) scale(5.3216666666667)"><rect width="6" height="6"/></g>
<g transform="translate(403,651) scale(5.3216666666667)"><rect width="6" height="6"/></g>
<g transform="translate(527,651) scale(5.3216666666667)"><rect width="6" height="6"/></g>
<g transform="translate(775,651) scale(5.3216666666667)"><rect width="6" height="6"/></g>
<g transform="translate(806,651) scale(5.3216666666667)"><rect width="6" height="6"/></g>
<g transform="translate(899,651) scale(5.3216666666667)"><rect width="6" height="6"/></g>
<g transform="translate(62,682) scale(5.3216666666667)"><rect width="6" height="6"/></g>
<g transform="translate(124,682) scale(5.3216666666667)"><rect width="6" height="6"/></g>
<g transform="translate(186,682) scale(5.3216666666667)"><rect width="6" height="6"/></g>
<g transform="translate(217,682) scale(5.3216666666667)"><rect width="6" height="6"/></g>
<g transform="translate(248,682) scale(5.3216666666667)"><rect width="6" height="6"/></g>
<g transform="translate(279,682) scale(5.3216666666667)"><rect width="6" height="6"/></g>
<g transform="translate(341,682) scale(5.3216666666667)"><rect width="6" height="6"/></g>
<g transform="translate(372,682) scale(5.3216666666667)"><rect width="6" height="6"/></g>
<g transform="translate(403,682) scale(5.3216666666667)"><rect width="6" height="6"/></g>
<g transform="translate(465,682) scale(5.3216666666667)"><rect width="6" height="6"/></g>
<g transform="translate(496,682) scale(5.3216666666667)"><rect width="6" height="6"/></g>
<g transform="translate(558,682) scale(5.3216666666667)"><rect width="6" height="6"/></g>
<g transform="translate(589,682) scale(5.3216666666667)"><rect width="6" height="6"/></g>
<g transform="translate(682,682) scale(5.3216666666667)"><rect width="6" height="6"/></g>
<g transform="translate(713,682) scale(5.3216666666667)"><rect width="6" height="6"/></g>
<g transform="translate(744,682) scale(5.3216666666667)"><rect width="6" height="6"/></g>
<g transform="translate(775,682) scale(5.3216666666667)"><rect width="6" height="6"/></g>
<g transform="translate(806,682) scale(5.3216666666667)"><rect width="6" height="6"/></g>
<g transform="translate(868,682) scale(5.3216666666667)"><rect width="6" height="6"/></g>
<g transform="translate(899,682) scale(5.3216666666667)"><rect width="6" height="6"/></g>
<g transform="translate(930,682) scale(5.3216666666667)"><rect width="6" height="6"/></g>
<g transform="translate(310,713) scale(5.3216666666667)"><rect width="6" height="6"/></g>
<g transform="translate(341,713) scale(5.3216666666667)"><rect width="6" height="6"/></g>
<g transform="translate(434,713) scale(5.3216666666667)"><rect width="6" height="6"/></g>
<g transform="translate(465,713) scale(5.3216666666667)"><rect width="6" height="6"/></g>
<g transform="translate(558,713) scale(5.3216666666667)"><rect width="6" height="6"/></g>
<g transform="translate(682,713) scale(5.3216666666667)"><rect width="6" height="6"/></g>
<g transform="translate(806,713) scale(5.3216666666667)"><rect width="6" height="6"/></g>
<g transform="translate(837,713) scale(5.3216666666667)"><rect width="6" height="6"/></g>
<g transform="translate(868,713) scale(5.3216666666667)"><rect width="6" height="6"/></g>
<g transform="translate(899,713) scale(5.3216666666667)"><rect width="6" height="6"/></g>
<g transform="translate(930,713) scale(5.3216666666667)"><rect width="6" height="6"/></g>
<g transform="translate(310,744) scale(5.3216666666667)"><rect width="6" height="6"/></g>
<g transform="translate(496,744) scale(5.3216666666667)"><rect width="6" height="6"/></g>
<g transform="translate(527,744) scale(5.3216666666667)"><rect width="6" height="6"/></g>
<g transform="translate(558,744) scale(5.3216666666667)"><rect width="6" height="6"/></g>
<g transform="translate(651,744) scale(5.3216666666667)"><rect width="6" height="6"/></g>
<g transform="translate(682,744) scale(5.3216666666667)"><rect width="6" height="6"/></g>
<g transform="translate(744,744) scale(5.3216666666667)"><rect width="6" height="6"/></g>
<g transform="translate(806,744) scale(5.3216666666667)"><rect width="6" height="6"/></g>
<g transform="translate(837,744) scale(5.3216666666667)"><rect width="6" height="6"/></g>
<g transform="translate(868,744) scale(5.3216666666667)"><rect width="6" height="6"/></g>
<g transform="translate(372,775) scale(5.3216666666667)"><rect width="6" height="6"/></g>
<g transform="translate(434,775) scale(5.3216666666667)"><rect width="6" height="6"/></g>
<g transform="translate(496,775) scale(5.3216666666667)"><rect width="6" height="6"/></g>
<g transform="translate(620,775) scale(5.3216666666667)"><rect width="6" height="6"/></g>
<g transform="translate(651,775) scale(5.3216666666667)"><rect width="6" height="6"/></g>
<g transform="translate(682,775) scale(5.3216666666667)"><rect width="6" height="6"/></g>
<g transform="translate(806,775) scale(5.3216666666667)"><rect width="6" height="6"/></g>
<g transform="translate(930,775) scale(5.3216666666667)"><rect width="6" height="6"/></g>
<g transform="translate(310,806) scale(5.3216666666667)"><rect width="6" height="6"/></g>
<g transform="translate(341,806) scale(5.3216666666667)"><rect width="6" height="6"/></g>
<g transform="translate(434,806) scale(5.3216666666667)"><rect width="6" height="6"/></g>
<g transform="translate(465,806) scale(5.3216666666667)"><rect width="6" height="6"/></g>
<g transform="translate(496,806) scale(5.3216666666667)"><rect width="6" height="6"/></g>
<g transform="translate(527,806) scale(5.3216666666667)"><rect width="6" height="6"/></g>
<g transform="translate(558,806) scale(5.3216666666667)"><rect width="6" height="6"/></g>
<g transform="translate(589,806) scale(5.3216666666667)"><rect width="6" height="6"/></g>
<g transform="translate(682,806) scale(5.3216666666667)"><rect width="6" height="6"/></g>
<g transform="translate(713,806) scale(5.3216666666667)"><rect width="6" height="6"/></g>
<g transform="translate(744,806) scale(5.3216666666667)"><rect width="6" height="6"/></g>
<g transform="translate(775,806) scale(5.3216666666667)"><rect width="6" height="6"/></g>
<g transform="translate(806,806) scale(5.3216666666667)"><rect width="6" height="6"/></g>
<g transform="translate(868,806) scale(5.3216666666667)"><rect width="6" height="6"/></g>
<g transform="translate(899,806) scale(5.3216666666667)"><rect width="6" height="6"/></g>
<g transform="translate(930,806) scale(5.3216666666667)"><rect width="6" height="6"/></g>
<g transform="translate(310,837) scale(5.3216666666667)"><rect width="6" height="6"/></g>
<g transform="translate(465,837) scale(5.3216666666667)"><rect width="6" height="6"/></g>
<g transform="translate(558,837) scale(5.3216666666667)"><rect width="6" height="6"/></g>
<g transform="translate(682,837) scale(5.3216666666667)"><rect width="6" height="6"/></g>
<g transform="translate(837,837) scale(5.3216666666667)"><rect width="6" height="6"/></g>
<g transform="translate(868,837) scale(5.3216666666667)"><rect width="6" height="6"/></g>
<g transform="translate(899,837) scale(5.3216666666667)"><rect width="6" height="6"/></g>
<g transform="translate(930,837) scale(5.3216666666667)"><rect width="6" height="6"/></g>
<g transform="translate(310,868) scale(5.3216666666667)"><rect width="6" height="6"/></g>
<g transform="translate(403,868) scale(5.3216666666667)"><rect width="6" height="6"/></g>
<g transform="translate(434,868) scale(5.3216666666667)"><rect width="6" height="6"/></g>
<g transform="translate(496,868) scale(5.3216666666667)"><rect width="6" height="6"/></g>
<g transform="translate(527,868) scale(5.3216666666667)"><rect width="6" height="6"/></g>
<g transform="translate(558,868) scale(5.3216666666667)"><rect width="6" height="6"/></g>
<g transform="translate(589,868) scale(5.3216666666667)"><rect width="6" height="6"/></g>
<g transform="translate(620,868) scale(5.3216666666667)"><rect width="6" height="6"/></g>
<g transform="translate(651,868) scale(5.3216666666667)"><rect width="6" height="6"/></g>
<g transform="translate(682,868) scale(5.3216666666667)"><rect width="6" height="6"/></g>
<g transform="translate(713,868) scale(5.3216666666667)"><rect width="6" height="6"/></g>
<g transform="translate(744,868) scale(5.3216666666667)"><rect width="6" height="6"/></g>
<g transform="translate(775,868) scale(5.3216666666667)"><rect width="6" height="6"/></g>
<g transform="translate(806,868) scale(5.3216666666667)"><rect width="6" height="6"/></g>
<g transform="translate(837,868) scale(5.3216666666667)"><rect width="6" height="6"/></g>
<g transform="translate(868,868) scale(5.3216666666667)"><rect width="6" height="6"/></g>
<g transform="translate(899,868) scale(5.3216666666667)"><rect width="6" height="6"/></g>
<g transform="translate(310,899) scale(5.3216666666667)"><rect width="6" height="6"/></g>
<g transform="translate(341,899) scale(5.3216666666667)"><rect width="6" height="6"/></g>
<g transform="translate(372,899) scale(5.3216666666667)"><rect width="6" height="6"/></g>
<g transform="translate(403,899) scale(5.3216666666667)"><rect width="6" height="6"/></g>
<g transform="translate(558,899) scale(5.3216666666667)"><rect width="6" height="6"/></g>
<g transform="translate(682,899) scale(5.3216666666667)"><rect width="6" height="6"/></g>
<g transform="translate(837,899) scale(5.3216666666667)"><rect width="6" height="6"/></g>
<g transform="translate(899,899) scale(5.3216666666667)"><rect width="6" height="6"/></g>
<g transform="translate(310,930) scale(5.3216666666667)"><rect width="6" height="6"/></g>
<g transform="translate(341,930) scale(5.3216666666667)"><rect width="6" height="6"/></g>
<g transform="translate(372,930) scale(5.3216666666667)"><rect width="6" height="6"/></g>
<g transform="translate(403,930) scale(5.3216666666667)"><rect width="6" height="6"/></g>
<g transform="translate(434,930) scale(5.3216666666667)"><rect width="6" height="6"/></g>
<g transform="translate(589,930) scale(5.3216666666667)"><rect width="6" height="6"/></g>
<g transform="translate(620,930) scale(5.3216666666667)"><rect width="6" height="6"/></g>
<g transform="translate(713,930) scale(5.3216666666667)"><rect width="6" height="6"/></g>
<g transform="translate(806,930) scale(5.3216666666667)"><rect width="6" height="6"/></g>
<g transform="translate(837,930) scale(5.3216666666667)"><rect width="6" height="6"/></g>
<g transform="translate(868,930) scale(5.3216666666667)"><rect width="6" height="6"/></g>
<g transform="translate(62,62)"><g transform="scale(15.5)"><path d="M0,0v14h14V0H0z M12,12H2V2h10V12z"/></g></g>
<g transform="translate(744,62)"><g transform="scale(15.5)"><path d="M0,0v14h14V0H0z M12,12H2V2h10V12z"/></g></g>
<g transform="translate(62,744)"><g transform="scale(15.5)"><path d="M0,0v14h14V0H0z M12,12H2V2h10V12z"/></g></g>
<g transform="translate(124,124)"><g transform="scale(15.5)"><rect width="6" height="6"/></g></g>
<g transform="translate(806,124)"><g transform="scale(15.5)"><rect width="6" height="6"/></g></g>
<g transform="translate(124,806)"><g transform="scale(15.5)"><rect width="6" height="6"/></g></g>
</g></svg>
