<svg xmlns="http://www.w3.org/2000/svg" xmlns:xlink="http://www.w3.org/1999/xlink" version="1.0" viewBox="0 0 100 100" enable-background="new 0 0 100 100" xml:space="preserve">

  <svg xmlns="http://www.w3.org/2000/svg" xmlns:xlink="http://www.w3.org/1999/xlink" version="1.1" width="100" height="100" viewBox="0 0 2000 2000" x="0" y="0" shape-rendering="crispEdges">
    <defs></defs>
    <!-- <rect x="0" y="0" width="2000" height="2000" fill="#ffffff"></rect> -->
    <svg viewBox="0 0 3.4 3.4" x="776" y="200" width="64" height="64" shape-rendering="auto">
      <circle fill="#ffffff" cx="1.7" cy="1.7" r="1.7"></circle>
    </svg>
    <svg viewBox="0 0 3.4 3.4" x="904" y="200" width="64" height="64" shape-rendering="auto">
      <circle fill="#ffffff" cx="1.7" cy="1.7" r="1.7"></circle>
    </svg>
    <svg viewBox="0 0 3.4 3.4" x="968" y="200" width="64" height="64" shape-rendering="auto">
      <circle fill="#ffffff" cx="1.7" cy="1.7" r="1.7"></circle>
    </svg>
    <svg viewBox="0 0 3.4 3.4" x="1096" y="200" width="64" height="64" shape-rendering="auto">
      <circle fill="#ffffff" cx="1.7" cy="1.7" r="1.7"></circle>
    </svg>
    <svg viewBox="0 0 3.4 3.4" x="1224" y="200" width="64" height="64" shape-rendering="auto">
      <circle fill="#ffffff" cx="1.7" cy="1.7" r="1.7"></circle>
    </svg>
    <svg viewBox="0 0 3.4 3.4" x="712" y="264" width="64" height="64" shape-rendering="auto">
      <circle fill="#ffffff" cx="1.7" cy="1.7" r="1.7"></circle>
    </svg>
    <svg viewBox="0 0 3.4 3.4" x="840" y="264" width="64" height="64" shape-rendering="auto">
      <circle fill="#ffffff" cx="1.7" cy="1.7" r="1.7"></circle>
    </svg>
    <svg viewBox="0 0 3.4 3.4" x="1032" y="264" width="64" height="64" shape-rendering="auto">
      <circle fill="#ffffff" cx="1.7" cy="1.7" r="1.7"></circle>
    </svg>
    <svg viewBox="0 0 3.4 3.4" x="1160" y="264" width="64" height="64" shape-rendering="auto">
      <circle fill="#ffffff" cx="1.7" cy="1.7" r="1.7"></circle>
    </svg>
    <svg viewBox="0 0 3.4 3.4" x="1224" y="264" width="64" height="64" shape-rendering="auto">
      <circle fill="#ffffff" cx="1.7" cy="1.7" r="1.7"></circle>
    </svg>
    <svg viewBox="0 0 3.4 3.4" x="776" y="328" width="64" height="64" shape-rendering="auto">
      <circle fill="#ffffff" cx="1.7" cy="1.7" r="1.7"></circle>
    </svg>
    <svg viewBox="0 0 3.4 3.4" x="840" y="328" width="64" height="64" shape-rendering="auto">
      <circle fill="#ffffff" cx="1.7" cy="1.7" r="1.7"></circle>
    </svg>
    <svg viewBox="0 0 3.4 3.4" x="904" y="328" width="64" height="64" shape-rendering="auto">
      <circle fill="#ffffff" cx="1.7" cy="1.7" r="1.7"></circle>
    </svg>
    <svg viewBox="0 0 3.4 3.4" x="1032" y="328" width="64" height="64" shape-rendering="auto">
      <circle fill="#ffffff" cx="1.7" cy="1.7" r="1.7"></circle>
    </svg>
    <svg viewBox="0 0 3.4 3.4" x="1224" y="328" width="64" height="64" shape-rendering="auto">
      <circle fill="#ffffff" cx="1.7" cy="1.7" r="1.7"></circle>
    </svg>
    <svg viewBox="0 0 3.4 3.4" x="712" y="392" width="64" height="64" shape-rendering="auto">
      <circle fill="#ffffff" cx="1.7" cy="1.7" r="1.7"></circle>
    </svg>
    <svg viewBox="0 0 3.4 3.4" x="776" y="392" width="64" height="64" shape-rendering="auto">
      <circle fill="#ffffff" cx="1.7" cy="1.7" r="1.7"></circle>
    </svg>
    <svg viewBox="0 0 3.4 3.4" x="840" y="392" width="64" height="64" shape-rendering="auto">
      <circle fill="#ffffff" cx="1.7" cy="1.7" r="1.7"></circle>
    </svg>
    <svg viewBox="0 0 3.4 3.4" x="1032" y="392" width="64" height="64" shape-rendering="auto">
      <circle fill="#ffffff" cx="1.7" cy="1.7" r="1.7"></circle>
    </svg>
    <svg viewBox="0 0 3.4 3.4" x="1096" y="392" width="64" height="64" shape-rendering="auto">
      <circle fill="#ffffff" cx="1.7" cy="1.7" r="1.7"></circle>
    </svg>
    <svg viewBox="0 0 3.4 3.4" x="1160" y="392" width="64" height="64" shape-rendering="auto">
      <circle fill="#ffffff" cx="1.7" cy="1.7" r="1.7"></circle>
    </svg>
    <svg viewBox="0 0 3.4 3.4" x="1224" y="392" width="64" height="64" shape-rendering="auto">
      <circle fill="#ffffff" cx="1.7" cy="1.7" r="1.7"></circle>
    </svg>
    <svg viewBox="0 0 3.4 3.4" x="776" y="456" width="64" height="64" shape-rendering="auto">
      <circle fill="#ffffff" cx="1.7" cy="1.7" r="1.7"></circle>
    </svg>
    <svg viewBox="0 0 3.4 3.4" x="968" y="456" width="64" height="64" shape-rendering="auto">
      <circle fill="#ffffff" cx="1.7" cy="1.7" r="1.7"></circle>
    </svg>
    <svg viewBox="0 0 3.4 3.4" x="1224" y="456" width="64" height="64" shape-rendering="auto">
      <circle fill="#ffffff" cx="1.7" cy="1.7" r="1.7"></circle>
    </svg>
    <svg viewBox="0 0 3.4 3.4" x="712" y="520" width="64" height="64" shape-rendering="auto">
      <circle fill="#ffffff" cx="1.7" cy="1.7" r="1.7"></circle>
    </svg>
    <svg viewBox="0 0 3.4 3.4" x="968" y="520" width="64" height="64" shape-rendering="auto">
      <circle fill="#ffffff" cx="1.7" cy="1.7" r="1.7"></circle>
    </svg>
    <svg viewBox="0 0 3.4 3.4" x="1032" y="520" width="64" height="64" shape-rendering="auto">
      <circle fill="#ffffff" cx="1.7" cy="1.7" r="1.7"></circle>
    </svg>
    <svg viewBox="0 0 3.4 3.4" x="1096" y="520" width="64" height="64" shape-rendering="auto">
      <circle fill="#ffffff" cx="1.7" cy="1.7" r="1.7"></circle>
    </svg>
    <svg viewBox="0 0 3.4 3.4" x="712" y="584" width="64" height="64" shape-rendering="auto">
      <circle fill="#ffffff" cx="1.7" cy="1.7" r="1.7"></circle>
    </svg>
    <svg viewBox="0 0 3.4 3.4" x="840" y="584" width="64" height="64" shape-rendering="auto">
      <circle fill="#ffffff" cx="1.7" cy="1.7" r="1.7"></circle>
    </svg>
    <svg viewBox="0 0 3.4 3.4" x="968" y="584" width="64" height="64" shape-rendering="auto">
      <circle fill="#ffffff" cx="1.7" cy="1.7" r="1.7"></circle>
    </svg>
    <svg viewBox="0 0 3.4 3.4" x="1096" y="584" width="64" height="64" shape-rendering="auto">
      <circle fill="#ffffff" cx="1.7" cy="1.7" r="1.7"></circle>
    </svg>
    <svg viewBox="0 0 3.4 3.4" x="1224" y="584" width="64" height="64" shape-rendering="auto">
      <circle fill="#ffffff" cx="1.7" cy="1.7" r="1.7"></circle>
    </svg>
    <svg viewBox="0 0 3.4 3.4" x="904" y="648" width="64" height="64" shape-rendering="auto">
      <circle fill="#ffffff" cx="1.7" cy="1.7" r="1.7"></circle>
    </svg>
    <svg viewBox="0 0 3.4 3.4" x="1096" y="648" width="64" height="64" shape-rendering="auto">
      <circle fill="#ffffff" cx="1.7" cy="1.7" r="1.7"></circle>
    </svg>
    <svg viewBox="0 0 3.4 3.4" x="1224" y="648" width="64" height="64" shape-rendering="auto">
      <circle fill="#ffffff" cx="1.7" cy="1.7" r="1.7"></circle>
    </svg>
    <svg viewBox="0 0 3.4 3.4" x="200" y="712" width="64" height="64" shape-rendering="auto">
      <circle fill="#ffffff" cx="1.7" cy="1.7" r="1.7"></circle>
    </svg>
    <svg viewBox="0 0 3.4 3.4" x="264" y="712" width="64" height="64" shape-rendering="auto">
      <circle fill="#ffffff" cx="1.7" cy="1.7" r="1.7"></circle>
    </svg>
    <svg viewBox="0 0 3.4 3.4" x="328" y="712" width="64" height="64" shape-rendering="auto">
      <circle fill="#ffffff" cx="1.7" cy="1.7" r="1.7"></circle>
    </svg>
    <svg viewBox="0 0 3.4 3.4" x="392" y="712" width="64" height="64" shape-rendering="auto">
      <circle fill="#ffffff" cx="1.7" cy="1.7" r="1.7"></circle>
    </svg>
    <svg viewBox="0 0 3.4 3.4" x="456" y="712" width="64" height="64" shape-rendering="auto">
      <circle fill="#ffffff" cx="1.7" cy="1.7" r="1.7"></circle>
    </svg>
    <svg viewBox="0 0 3.4 3.4" x="584" y="712" width="64" height="64" shape-rendering="auto">
      <circle fill="#ffffff" cx="1.7" cy="1.7" r="1.7"></circle>
    </svg>
    <svg viewBox="0 0 3.4 3.4" x="648" y="712" width="64" height="64" shape-rendering="auto">
      <circle fill="#ffffff" cx="1.7" cy="1.7" r="1.7"></circle>
    </svg>
    <svg viewBox="0 0 3.4 3.4" x="712" y="712" width="64" height="64" shape-rendering="auto">
      <circle fill="#ffffff" cx="1.7" cy="1.7" r="1.7"></circle>
    </svg>
    <svg viewBox="0 0 3.4 3.4" x="840" y="712" width="64" height="64" shape-rendering="auto">
      <circle fill="#ffffff" cx="1.7" cy="1.7" r="1.7"></circle>
    </svg>
    <svg viewBox="0 0 3.4 3.4" x="968" y="712" width="64" height="64" shape-rendering="auto">
      <circle fill="#ffffff" cx="1.7" cy="1.7" r="1.7"></circle>
    </svg>
    <svg viewBox="0 0 3.4 3.4" x="1032" y="712" width="64" height="64" shape-rendering="auto">
      <circle fill="#ffffff" cx="1.7" cy="1.7" r="1.7"></circle>
    </svg>
    <svg viewBox="0 0 3.4 3.4" x="1160" y="712" width="64" height="64" shape-rendering="auto">
      <circle fill="#ffffff" cx="1.7" cy="1.7" r="1.7"></circle>
    </svg>
    <svg viewBox="0 0 3.4 3.4" x="1288" y="712" width="64" height="64" shape-rendering="auto">
      <circle fill="#ffffff" cx="1.7" cy="1.7" r="1.7"></circle>
    </svg>
    <svg viewBox="0 0 3.4 3.4" x="1416" y="712" width="64" height="64" shape-rendering="auto">
      <circle fill="#ffffff" cx="1.7" cy="1.7" r="1.7"></circle>
    </svg>
    <svg viewBox="0 0 3.4 3.4" x="1544" y="712" width="64" height="64" shape-rendering="auto">
      <circle fill="#ffffff" cx="1.7" cy="1.7" r="1.7"></circle>
    </svg>
    <svg viewBox="0 0 3.4 3.4" x="1672" y="712" width="64" height="64" shape-rendering="auto">
      <circle fill="#ffffff" cx="1.7" cy="1.7" r="1.7"></circle>
    </svg>
    <svg viewBox="0 0 3.4 3.4" x="200" y="776" width="64" height="64" shape-rendering="auto">
      <circle fill="#ffffff" cx="1.7" cy="1.7" r="1.7"></circle>
    </svg>
    <svg viewBox="0 0 3.4 3.4" x="264" y="776" width="64" height="64" shape-rendering="auto">
      <circle fill="#ffffff" cx="1.7" cy="1.7" r="1.7"></circle>
    </svg>
    <svg viewBox="0 0 3.4 3.4" x="328" y="776" width="64" height="64" shape-rendering="auto">
      <circle fill="#ffffff" cx="1.7" cy="1.7" r="1.7"></circle>
    </svg>
    <svg viewBox="0 0 3.4 3.4" x="648" y="776" width="64" height="64" shape-rendering="auto">
      <circle fill="#ffffff" cx="1.7" cy="1.7" r="1.7"></circle>
    </svg>
    <svg viewBox="0 0 3.4 3.4" x="776" y="776" width="64" height="64" shape-rendering="auto">
      <circle fill="#ffffff" cx="1.7" cy="1.7" r="1.7"></circle>
    </svg>
    <svg viewBox="0 0 3.4 3.4" x="840" y="776" width="64" height="64" shape-rendering="auto">
      <circle fill="#ffffff" cx="1.7" cy="1.7" r="1.7"></circle>
    </svg>
    <svg viewBox="0 0 3.4 3.4" x="904" y="776" width="64" height="64" shape-rendering="auto">
      <circle fill="#ffffff" cx="1.7" cy="1.7" r="1.7"></circle>
    </svg>
    <svg viewBox="0 0 3.4 3.4" x="1160" y="776" width="64" height="64" shape-rendering="auto">
      <circle fill="#ffffff" cx="1.7" cy="1.7" r="1.7"></circle>
    </svg>
    <svg viewBox="0 0 3.4 3.4" x="1224" y="776" width="64" height="64" shape-rendering="auto">
      <circle fill="#ffffff" cx="1.7" cy="1.7" r="1.7"></circle>
    </svg>
    <svg viewBox="0 0 3.4 3.4" x="1288" y="776" width="64" height="64" shape-rendering="auto">
      <circle fill="#ffffff" cx="1.7" cy="1.7" r="1.7"></circle>
    </svg>
    <svg viewBox="0 0 3.4 3.4" x="1736" y="776" width="64" height="64" shape-rendering="auto">
      <circle fill="#ffffff" cx="1.7" cy="1.7" r="1.7"></circle>
    </svg>
    <svg viewBox="0 0 3.4 3.4" x="200" y="840" width="64" height="64" shape-rendering="auto">
      <circle fill="#ffffff" cx="1.7" cy="1.7" r="1.7"></circle>
    </svg>
    <svg viewBox="0 0 3.4 3.4" x="264" y="840" width="64" height="64" shape-rendering="auto">
      <circle fill="#ffffff" cx="1.7" cy="1.7" r="1.7"></circle>
    </svg>
    <svg viewBox="0 0 3.4 3.4" x="392" y="840" width="64" height="64" shape-rendering="auto">
      <circle fill="#ffffff" cx="1.7" cy="1.7" r="1.7"></circle>
    </svg>
    <svg viewBox="0 0 3.4 3.4" x="584" y="840" width="64" height="64" shape-rendering="auto">
      <circle fill="#ffffff" cx="1.7" cy="1.7" r="1.7"></circle>
    </svg>
    <svg viewBox="0 0 3.4 3.4" x="648" y="840" width="64" height="64" shape-rendering="auto">
      <circle fill="#ffffff" cx="1.7" cy="1.7" r="1.7"></circle>
    </svg>
    <svg viewBox="0 0 3.4 3.4" x="712" y="840" width="64" height="64" shape-rendering="auto">
      <circle fill="#ffffff" cx="1.7" cy="1.7" r="1.7"></circle>
    </svg>
    <svg viewBox="0 0 3.4 3.4" x="776" y="840" width="64" height="64" shape-rendering="auto">
      <circle fill="#ffffff" cx="1.7" cy="1.7" r="1.7"></circle>
    </svg>
    <svg viewBox="0 0 3.4 3.4" x="904" y="840" width="64" height="64" shape-rendering="auto">
      <circle fill="#ffffff" cx="1.7" cy="1.7" r="1.7"></circle>
    </svg>
    <svg viewBox="0 0 3.4 3.4" x="968" y="840" width="64" height="64" shape-rendering="auto">
      <circle fill="#ffffff" cx="1.7" cy="1.7" r="1.7"></circle>
    </svg>
    <svg viewBox="0 0 3.4 3.4" x="1032" y="840" width="64" height="64" shape-rendering="auto">
      <circle fill="#ffffff" cx="1.7" cy="1.7" r="1.7"></circle>
    </svg>
    <svg viewBox="0 0 3.4 3.4" x="1096" y="840" width="64" height="64" shape-rendering="auto">
      <circle fill="#ffffff" cx="1.7" cy="1.7" r="1.7"></circle>
    </svg>
    <svg viewBox="0 0 3.4 3.4" x="1288" y="840" width="64" height="64" shape-rendering="auto">
      <circle fill="#ffffff" cx="1.7" cy="1.7" r="1.7"></circle>
    </svg>
    <svg viewBox="0 0 3.4 3.4" x="1352" y="840" width="64" height="64" shape-rendering="auto">
      <circle fill="#ffffff" cx="1.7" cy="1.7" r="1.7"></circle>
    </svg>
    <svg viewBox="0 0 3.4 3.4" x="1480" y="840" width="64" height="64" shape-rendering="auto">
      <circle fill="#ffffff" cx="1.7" cy="1.7" r="1.7"></circle>
    </svg>
    <svg viewBox="0 0 3.4 3.4" x="1608" y="840" width="64" height="64" shape-rendering="auto">
      <circle fill="#ffffff" cx="1.7" cy="1.7" r="1.7"></circle>
    </svg>
    <svg viewBox="0 0 3.4 3.4" x="392" y="904" width="64" height="64" shape-rendering="auto">
      <circle fill="#ffffff" cx="1.7" cy="1.7" r="1.7"></circle>
    </svg>
    <svg viewBox="0 0 3.4 3.4" x="456" y="904" width="64" height="64" shape-rendering="auto">
      <circle fill="#ffffff" cx="1.7" cy="1.7" r="1.7"></circle>
    </svg>
    <svg viewBox="0 0 3.4 3.4" x="776" y="904" width="64" height="64" shape-rendering="auto">
      <circle fill="#ffffff" cx="1.7" cy="1.7" r="1.7"></circle>
    </svg>
    <svg viewBox="0 0 3.4 3.4" x="904" y="904" width="64" height="64" shape-rendering="auto">
      <circle fill="#ffffff" cx="1.7" cy="1.7" r="1.7"></circle>
    </svg>
    <svg viewBox="0 0 3.4 3.4" x="968" y="904" width="64" height="64" shape-rendering="auto">
      <circle fill="#ffffff" cx="1.7" cy="1.7" r="1.7"></circle>
    </svg>
    <svg viewBox="0 0 3.4 3.4" x="1224" y="904" width="64" height="64" shape-rendering="auto">
      <circle fill="#ffffff" cx="1.7" cy="1.7" r="1.7"></circle>
    </svg>
    <svg viewBox="0 0 3.4 3.4" x="1288" y="904" width="64" height="64" shape-rendering="auto">
      <circle fill="#ffffff" cx="1.7" cy="1.7" r="1.7"></circle>
    </svg>
    <svg viewBox="0 0 3.4 3.4" x="1416" y="904" width="64" height="64" shape-rendering="auto">
      <circle fill="#ffffff" cx="1.7" cy="1.7" r="1.7"></circle>
    </svg>
    <svg viewBox="0 0 3.4 3.4" x="520" y="968" width="64" height="64" shape-rendering="auto">
      <circle fill="#ffffff" cx="1.7" cy="1.7" r="1.7"></circle>
    </svg>
    <svg viewBox="0 0 3.4 3.4" x="584" y="968" width="64" height="64" shape-rendering="auto">
      <circle fill="#ffffff" cx="1.7" cy="1.7" r="1.7"></circle>
    </svg>
    <svg viewBox="0 0 3.4 3.4" x="648" y="968" width="64" height="64" shape-rendering="auto">
      <circle fill="#ffffff" cx="1.7" cy="1.7" r="1.7"></circle>
    </svg>
    <svg viewBox="0 0 3.4 3.4" x="712" y="968" width="64" height="64" shape-rendering="auto">
      <circle fill="#ffffff" cx="1.7" cy="1.7" r="1.7"></circle>
    </svg>
    <svg viewBox="0 0 3.4 3.4" x="776" y="968" width="64" height="64" shape-rendering="auto">
      <circle fill="#ffffff" cx="1.7" cy="1.7" r="1.7"></circle>
    </svg>
    <svg viewBox="0 0 3.4 3.4" x="968" y="968" width="64" height="64" shape-rendering="auto">
      <circle fill="#ffffff" cx="1.7" cy="1.7" r="1.7"></circle>
    </svg>
    <svg viewBox="0 0 3.4 3.4" x="1096" y="968" width="64" height="64" shape-rendering="auto">
      <circle fill="#ffffff" cx="1.7" cy="1.7" r="1.7"></circle>
    </svg>
    <svg viewBox="0 0 3.4 3.4" x="1160" y="968" width="64" height="64" shape-rendering="auto">
      <circle fill="#ffffff" cx="1.7" cy="1.7" r="1.7"></circle>
    </svg>
    <svg viewBox="0 0 3.4 3.4" x="1224" y="968" width="64" height="64" shape-rendering="auto">
      <circle fill="#ffffff" cx="1.7" cy="1.7" r="1.7"></circle>
    </svg>
    <svg viewBox="0 0 3.4 3.4" x="1416" y="968" width="64" height="64" shape-rendering="auto">
      <circle fill="#ffffff" cx="1.7" cy="1.7" r="1.7"></circle>
    </svg>
    <svg viewBox="0 0 3.4 3.4" x="1480" y="968" width="64" height="64" shape-rendering="auto">
      <circle fill="#ffffff" cx="1.7" cy="1.7" r="1.7"></circle>
    </svg>
    <svg viewBox="0 0 3.4 3.4" x="1544" y="968" width="64" height="64" shape-rendering="auto">
      <circle fill="#ffffff" cx="1.7" cy="1.7" r="1.7"></circle>
    </svg>
    <svg viewBox="0 0 3.4 3.4" x="1672" y="968" width="64" height="64" shape-rendering="auto">
      <circle fill="#ffffff" cx="1.7" cy="1.7" r="1.7"></circle>
    </svg>
    <svg viewBox="0 0 3.4 3.4" x="1736" y="968" width="64" height="64" shape-rendering="auto">
      <circle fill="#ffffff" cx="1.7" cy="1.7" r="1.7"></circle>
    </svg>
    <svg viewBox="0 0 3.4 3.4" x="200" y="1032" width="64" height="64" shape-rendering="auto">
      <circle fill="#ffffff" cx="1.7" cy="1.7" r="1.7"></circle>
    </svg>
    <svg viewBox="0 0 3.4 3.4" x="328" y="1032" width="64" height="64" shape-rendering="auto">
      <circle fill="#ffffff" cx="1.7" cy="1.7" r="1.7"></circle>
    </svg>
    <svg viewBox="0 0 3.4 3.4" x="392" y="1032" width="64" height="64" shape-rendering="auto">
      <circle fill="#ffffff" cx="1.7" cy="1.7" r="1.7"></circle>
    </svg>
    <svg viewBox="0 0 3.4 3.4" x="456" y="1032" width="64" height="64" shape-rendering="auto">
      <circle fill="#ffffff" cx="1.7" cy="1.7" r="1.7"></circle>
    </svg>
    <svg viewBox="0 0 3.4 3.4" x="712" y="1032" width="64" height="64" shape-rendering="auto">
      <circle fill="#ffffff" cx="1.7" cy="1.7" r="1.7"></circle>
    </svg>
    <svg viewBox="0 0 3.4 3.4" x="1096" y="1032" width="64" height="64" shape-rendering="auto">
      <circle fill="#ffffff" cx="1.7" cy="1.7" r="1.7"></circle>
    </svg>
    <svg viewBox="0 0 3.4 3.4" x="1224" y="1032" width="64" height="64" shape-rendering="auto">
      <circle fill="#ffffff" cx="1.7" cy="1.7" r="1.7"></circle>
    </svg>
    <svg viewBox="0 0 3.4 3.4" x="1288" y="1032" width="64" height="64" shape-rendering="auto">
      <circle fill="#ffffff" cx="1.7" cy="1.7" r="1.7"></circle>
    </svg>
    <svg viewBox="0 0 3.4 3.4" x="1352" y="1032" width="64" height="64" shape-rendering="auto">
      <circle fill="#ffffff" cx="1.7" cy="1.7" r="1.7"></circle>
    </svg>
    <svg viewBox="0 0 3.4 3.4" x="1416" y="1032" width="64" height="64" shape-rendering="auto">
      <circle fill="#ffffff" cx="1.7" cy="1.7" r="1.7"></circle>
    </svg>
    <svg viewBox="0 0 3.4 3.4" x="1480" y="1032" width="64" height="64" shape-rendering="auto">
      <circle fill="#ffffff" cx="1.7" cy="1.7" r="1.7"></circle>
    </svg>
    <svg viewBox="0 0 3.4 3.4" x="200" y="1096" width="64" height="64" shape-rendering="auto">
      <circle fill="#ffffff" cx="1.7" cy="1.7" r="1.7"></circle>
    </svg>
    <svg viewBox="0 0 3.4 3.4" x="328" y="1096" width="64" height="64" shape-rendering="auto">
      <circle fill="#ffffff" cx="1.7" cy="1.7" r="1.7"></circle>
    </svg>
    <svg viewBox="0 0 3.4 3.4" x="392" y="1096" width="64" height="64" shape-rendering="auto">
      <circle fill="#ffffff" cx="1.7" cy="1.7" r="1.7"></circle>
    </svg>
    <svg viewBox="0 0 3.4 3.4" x="456" y="1096" width="64" height="64" shape-rendering="auto">
      <circle fill="#ffffff" cx="1.7" cy="1.7" r="1.7"></circle>
    </svg>
    <svg viewBox="0 0 3.4 3.4" x="520" y="1096" width="64" height="64" shape-rendering="auto">
      <circle fill="#ffffff" cx="1.7" cy="1.7" r="1.7"></circle>
    </svg>
    <svg viewBox="0 0 3.4 3.4" x="584" y="1096" width="64" height="64" shape-rendering="auto">
      <circle fill="#ffffff" cx="1.7" cy="1.7" r="1.7"></circle>
    </svg>
    <svg viewBox="0 0 3.4 3.4" x="648" y="1096" width="64" height="64" shape-rendering="auto">
      <circle fill="#ffffff" cx="1.7" cy="1.7" r="1.7"></circle>
    </svg>
    <svg viewBox="0 0 3.4 3.4" x="776" y="1096" width="64" height="64" shape-rendering="auto">
      <circle fill="#ffffff" cx="1.7" cy="1.7" r="1.7"></circle>
    </svg>
    <svg viewBox="0 0 3.4 3.4" x="840" y="1096" width="64" height="64" shape-rendering="auto">
      <circle fill="#ffffff" cx="1.7" cy="1.7" r="1.7"></circle>
    </svg>
    <svg viewBox="0 0 3.4 3.4" x="968" y="1096" width="64" height="64" shape-rendering="auto">
      <circle fill="#ffffff" cx="1.7" cy="1.7" r="1.7"></circle>
    </svg>
    <svg viewBox="0 0 3.4 3.4" x="1032" y="1096" width="64" height="64" shape-rendering="auto">
      <circle fill="#ffffff" cx="1.7" cy="1.7" r="1.7"></circle>
    </svg>
    <svg viewBox="0 0 3.4 3.4" x="1096" y="1096" width="64" height="64" shape-rendering="auto">
      <circle fill="#ffffff" cx="1.7" cy="1.7" r="1.7"></circle>
    </svg>
    <svg viewBox="0 0 3.4 3.4" x="1160" y="1096" width="64" height="64" shape-rendering="auto">
      <circle fill="#ffffff" cx="1.7" cy="1.7" r="1.7"></circle>
    </svg>
    <svg viewBox="0 0 3.4 3.4" x="1288" y="1096" width="64" height="64" shape-rendering="auto">
      <circle fill="#ffffff" cx="1.7" cy="1.7" r="1.7"></circle>
    </svg>
    <svg viewBox="0 0 3.4 3.4" x="1352" y="1096" width="64" height="64" shape-rendering="auto">
      <circle fill="#ffffff" cx="1.7" cy="1.7" r="1.7"></circle>
    </svg>
    <svg viewBox="0 0 3.4 3.4" x="1480" y="1096" width="64" height="64" shape-rendering="auto">
      <circle fill="#ffffff" cx="1.7" cy="1.7" r="1.7"></circle>
    </svg>
    <svg viewBox="0 0 3.4 3.4" x="1608" y="1096" width="64" height="64" shape-rendering="auto">
      <circle fill="#ffffff" cx="1.7" cy="1.7" r="1.7"></circle>
    </svg>
    <svg viewBox="0 0 3.4 3.4" x="1672" y="1096" width="64" height="64" shape-rendering="auto">
      <circle fill="#ffffff" cx="1.7" cy="1.7" r="1.7"></circle>
    </svg>
    <svg viewBox="0 0 3.4 3.4" x="200" y="1160" width="64" height="64" shape-rendering="auto">
      <circle fill="#ffffff" cx="1.7" cy="1.7" r="1.7"></circle>
    </svg>
    <svg viewBox="0 0 3.4 3.4" x="392" y="1160" width="64" height="64" shape-rendering="auto">
      <circle fill="#ffffff" cx="1.7" cy="1.7" r="1.7"></circle>
    </svg>
    <svg viewBox="0 0 3.4 3.4" x="456" y="1160" width="64" height="64" shape-rendering="auto">
      <circle fill="#ffffff" cx="1.7" cy="1.7" r="1.7"></circle>
    </svg>
    <svg viewBox="0 0 3.4 3.4" x="520" y="1160" width="64" height="64" shape-rendering="auto">
      <circle fill="#ffffff" cx="1.7" cy="1.7" r="1.7"></circle>
    </svg>
    <svg viewBox="0 0 3.4 3.4" x="648" y="1160" width="64" height="64" shape-rendering="auto">
      <circle fill="#ffffff" cx="1.7" cy="1.7" r="1.7"></circle>
    </svg>
    <svg viewBox="0 0 3.4 3.4" x="776" y="1160" width="64" height="64" shape-rendering="auto">
      <circle fill="#ffffff" cx="1.7" cy="1.7" r="1.7"></circle>
    </svg>
    <svg viewBox="0 0 3.4 3.4" x="904" y="1160" width="64" height="64" shape-rendering="auto">
      <circle fill="#ffffff" cx="1.7" cy="1.7" r="1.7"></circle>
    </svg>
    <svg viewBox="0 0 3.4 3.4" x="1096" y="1160" width="64" height="64" shape-rendering="auto">
      <circle fill="#ffffff" cx="1.7" cy="1.7" r="1.7"></circle>
    </svg>
    <svg viewBox="0 0 3.4 3.4" x="1224" y="1160" width="64" height="64" shape-rendering="auto">
      <circle fill="#ffffff" cx="1.7" cy="1.7" r="1.7"></circle>
    </svg>
    <svg viewBox="0 0 3.4 3.4" x="1672" y="1160" width="64" height="64" shape-rendering="auto">
      <circle fill="#ffffff" cx="1.7" cy="1.7" r="1.7"></circle>
    </svg>
    <svg viewBox="0 0 3.4 3.4" x="1736" y="1160" width="64" height="64" shape-rendering="auto">
      <circle fill="#ffffff" cx="1.7" cy="1.7" r="1.7"></circle>
    </svg>
    <svg viewBox="0 0 3.4 3.4" x="200" y="1224" width="64" height="64" shape-rendering="auto">
      <circle fill="#ffffff" cx="1.7" cy="1.7" r="1.7"></circle>
    </svg>
    <svg viewBox="0 0 3.4 3.4" x="328" y="1224" width="64" height="64" shape-rendering="auto">
      <circle fill="#ffffff" cx="1.7" cy="1.7" r="1.7"></circle>
    </svg>
    <svg viewBox="0 0 3.4 3.4" x="520" y="1224" width="64" height="64" shape-rendering="auto">
      <circle fill="#ffffff" cx="1.7" cy="1.7" r="1.7"></circle>
    </svg>
    <svg viewBox="0 0 3.4 3.4" x="584" y="1224" width="64" height="64" shape-rendering="auto">
      <circle fill="#ffffff" cx="1.7" cy="1.7" r="1.7"></circle>
    </svg>
    <svg viewBox="0 0 3.4 3.4" x="648" y="1224" width="64" height="64" shape-rendering="auto">
      <circle fill="#ffffff" cx="1.7" cy="1.7" r="1.7"></circle>
    </svg>
    <svg viewBox="0 0 3.4 3.4" x="840" y="1224" width="64" height="64" shape-rendering="auto">
      <circle fill="#ffffff" cx="1.7" cy="1.7" r="1.7"></circle>
    </svg>
    <svg viewBox="0 0 3.4 3.4" x="1096" y="1224" width="64" height="64" shape-rendering="auto">
      <circle fill="#ffffff" cx="1.7" cy="1.7" r="1.7"></circle>
    </svg>
    <svg viewBox="0 0 3.4 3.4" x="1160" y="1224" width="64" height="64" shape-rendering="auto">
      <circle fill="#ffffff" cx="1.7" cy="1.7" r="1.7"></circle>
    </svg>
    <svg viewBox="0 0 3.4 3.4" x="1224" y="1224" width="64" height="64" shape-rendering="auto">
      <circle fill="#ffffff" cx="1.7" cy="1.7" r="1.7"></circle>
    </svg>
    <svg viewBox="0 0 3.4 3.4" x="1288" y="1224" width="64" height="64" shape-rendering="auto">
      <circle fill="#ffffff" cx="1.7" cy="1.7" r="1.7"></circle>
    </svg>
    <svg viewBox="0 0 3.4 3.4" x="1352" y="1224" width="64" height="64" shape-rendering="auto">
      <circle fill="#ffffff" cx="1.7" cy="1.7" r="1.7"></circle>
    </svg>
    <svg viewBox="0 0 3.4 3.4" x="1416" y="1224" width="64" height="64" shape-rendering="auto">
      <circle fill="#ffffff" cx="1.7" cy="1.7" r="1.7"></circle>
    </svg>
    <svg viewBox="0 0 3.4 3.4" x="1480" y="1224" width="64" height="64" shape-rendering="auto">
      <circle fill="#ffffff" cx="1.7" cy="1.7" r="1.7"></circle>
    </svg>
    <svg viewBox="0 0 3.4 3.4" x="1544" y="1224" width="64" height="64" shape-rendering="auto">
      <circle fill="#ffffff" cx="1.7" cy="1.7" r="1.7"></circle>
    </svg>
    <svg viewBox="0 0 3.4 3.4" x="1736" y="1224" width="64" height="64" shape-rendering="auto">
      <circle fill="#ffffff" cx="1.7" cy="1.7" r="1.7"></circle>
    </svg>
    <svg viewBox="0 0 3.4 3.4" x="712" y="1288" width="64" height="64" shape-rendering="auto">
      <circle fill="#ffffff" cx="1.7" cy="1.7" r="1.7"></circle>
    </svg>
    <svg viewBox="0 0 3.4 3.4" x="776" y="1288" width="64" height="64" shape-rendering="auto">
      <circle fill="#ffffff" cx="1.7" cy="1.7" r="1.7"></circle>
    </svg>
    <svg viewBox="0 0 3.4 3.4" x="968" y="1288" width="64" height="64" shape-rendering="auto">
      <circle fill="#ffffff" cx="1.7" cy="1.7" r="1.7"></circle>
    </svg>
    <svg viewBox="0 0 3.4 3.4" x="1160" y="1288" width="64" height="64" shape-rendering="auto">
      <circle fill="#ffffff" cx="1.7" cy="1.7" r="1.7"></circle>
    </svg>
    <svg viewBox="0 0 3.4 3.4" x="1224" y="1288" width="64" height="64" shape-rendering="auto">
      <circle fill="#ffffff" cx="1.7" cy="1.7" r="1.7"></circle>
    </svg>
    <svg viewBox="0 0 3.4 3.4" x="1480" y="1288" width="64" height="64" shape-rendering="auto">
      <circle fill="#ffffff" cx="1.7" cy="1.7" r="1.7"></circle>
    </svg>
    <svg viewBox="0 0 3.4 3.4" x="1736" y="1288" width="64" height="64" shape-rendering="auto">
      <circle fill="#ffffff" cx="1.7" cy="1.7" r="1.7"></circle>
    </svg>
    <svg viewBox="0 0 3.4 3.4" x="712" y="1352" width="64" height="64" shape-rendering="auto">
      <circle fill="#ffffff" cx="1.7" cy="1.7" r="1.7"></circle>
    </svg>
    <svg viewBox="0 0 3.4 3.4" x="776" y="1352" width="64" height="64" shape-rendering="auto">
      <circle fill="#ffffff" cx="1.7" cy="1.7" r="1.7"></circle>
    </svg>
    <svg viewBox="0 0 3.4 3.4" x="968" y="1352" width="64" height="64" shape-rendering="auto">
      <circle fill="#ffffff" cx="1.7" cy="1.7" r="1.7"></circle>
    </svg>
    <svg viewBox="0 0 3.4 3.4" x="1032" y="1352" width="64" height="64" shape-rendering="auto">
      <circle fill="#ffffff" cx="1.7" cy="1.7" r="1.7"></circle>
    </svg>
    <svg viewBox="0 0 3.4 3.4" x="1096" y="1352" width="64" height="64" shape-rendering="auto">
      <circle fill="#ffffff" cx="1.7" cy="1.7" r="1.7"></circle>
    </svg>
    <svg viewBox="0 0 3.4 3.4" x="1224" y="1352" width="64" height="64" shape-rendering="auto">
      <circle fill="#ffffff" cx="1.7" cy="1.7" r="1.7"></circle>
    </svg>
    <svg viewBox="0 0 3.4 3.4" x="1352" y="1352" width="64" height="64" shape-rendering="auto">
      <circle fill="#ffffff" cx="1.7" cy="1.7" r="1.7"></circle>
    </svg>
    <svg viewBox="0 0 3.4 3.4" x="1480" y="1352" width="64" height="64" shape-rendering="auto">
      <circle fill="#ffffff" cx="1.7" cy="1.7" r="1.7"></circle>
    </svg>
    <svg viewBox="0 0 3.4 3.4" x="1608" y="1352" width="64" height="64" shape-rendering="auto">
      <circle fill="#ffffff" cx="1.7" cy="1.7" r="1.7"></circle>
    </svg>
    <svg viewBox="0 0 3.4 3.4" x="1672" y="1352" width="64" height="64" shape-rendering="auto">
      <circle fill="#ffffff" cx="1.7" cy="1.7" r="1.7"></circle>
    </svg>
    <svg viewBox="0 0 3.4 3.4" x="1736" y="1352" width="64" height="64" shape-rendering="auto">
      <circle fill="#ffffff" cx="1.7" cy="1.7" r="1.7"></circle>
    </svg>
    <svg viewBox="0 0 3.4 3.4" x="776" y="1416" width="64" height="64" shape-rendering="auto">
      <circle fill="#ffffff" cx="1.7" cy="1.7" r="1.7"></circle>
    </svg>
    <svg viewBox="0 0 3.4 3.4" x="840" y="1416" width="64" height="64" shape-rendering="auto">
      <circle fill="#ffffff" cx="1.7" cy="1.7" r="1.7"></circle>
    </svg>
    <svg viewBox="0 0 3.4 3.4" x="904" y="1416" width="64" height="64" shape-rendering="auto">
      <circle fill="#ffffff" cx="1.7" cy="1.7" r="1.7"></circle>
    </svg>
    <svg viewBox="0 0 3.4 3.4" x="1032" y="1416" width="64" height="64" shape-rendering="auto">
      <circle fill="#ffffff" cx="1.7" cy="1.7" r="1.7"></circle>
    </svg>
    <svg viewBox="0 0 3.4 3.4" x="1160" y="1416" width="64" height="64" shape-rendering="auto">
      <circle fill="#ffffff" cx="1.7" cy="1.7" r="1.7"></circle>
    </svg>
    <svg viewBox="0 0 3.4 3.4" x="1224" y="1416" width="64" height="64" shape-rendering="auto">
      <circle fill="#ffffff" cx="1.7" cy="1.7" r="1.7"></circle>
    </svg>
    <svg viewBox="0 0 3.4 3.4" x="1480" y="1416" width="64" height="64" shape-rendering="auto">
      <circle fill="#ffffff" cx="1.7" cy="1.7" r="1.7"></circle>
    </svg>
    <svg viewBox="0 0 3.4 3.4" x="1544" y="1416" width="64" height="64" shape-rendering="auto">
      <circle fill="#ffffff" cx="1.7" cy="1.7" r="1.7"></circle>
    </svg>
    <svg viewBox="0 0 3.4 3.4" x="712" y="1480" width="64" height="64" shape-rendering="auto">
      <circle fill="#ffffff" cx="1.7" cy="1.7" r="1.7"></circle>
    </svg>
    <svg viewBox="0 0 3.4 3.4" x="840" y="1480" width="64" height="64" shape-rendering="auto">
      <circle fill="#ffffff" cx="1.7" cy="1.7" r="1.7"></circle>
    </svg>
    <svg viewBox="0 0 3.4 3.4" x="1160" y="1480" width="64" height="64" shape-rendering="auto">
      <circle fill="#ffffff" cx="1.7" cy="1.7" r="1.7"></circle>
    </svg>
    <svg viewBox="0 0 3.4 3.4" x="1224" y="1480" width="64" height="64" shape-rendering="auto">
      <circle fill="#ffffff" cx="1.7" cy="1.7" r="1.7"></circle>
    </svg>
    <svg viewBox="0 0 3.4 3.4" x="1288" y="1480" width="64" height="64" shape-rendering="auto">
      <circle fill="#ffffff" cx="1.7" cy="1.7" r="1.7"></circle>
    </svg>
    <svg viewBox="0 0 3.4 3.4" x="1352" y="1480" width="64" height="64" shape-rendering="auto">
      <circle fill="#ffffff" cx="1.7" cy="1.7" r="1.7"></circle>
    </svg>
    <svg viewBox="0 0 3.4 3.4" x="1416" y="1480" width="64" height="64" shape-rendering="auto">
      <circle fill="#ffffff" cx="1.7" cy="1.7" r="1.7"></circle>
    </svg>
    <svg viewBox="0 0 3.4 3.4" x="1480" y="1480" width="64" height="64" shape-rendering="auto">
      <circle fill="#ffffff" cx="1.7" cy="1.7" r="1.7"></circle>
    </svg>
    <svg viewBox="0 0 3.4 3.4" x="1544" y="1480" width="64" height="64" shape-rendering="auto">
      <circle fill="#ffffff" cx="1.7" cy="1.7" r="1.7"></circle>
    </svg>
    <svg viewBox="0 0 3.4 3.4" x="712" y="1544" width="64" height="64" shape-rendering="auto">
      <circle fill="#ffffff" cx="1.7" cy="1.7" r="1.7"></circle>
    </svg>
    <svg viewBox="0 0 3.4 3.4" x="776" y="1544" width="64" height="64" shape-rendering="auto">
      <circle fill="#ffffff" cx="1.7" cy="1.7" r="1.7"></circle>
    </svg>
    <svg viewBox="0 0 3.4 3.4" x="1224" y="1544" width="64" height="64" shape-rendering="auto">
      <circle fill="#ffffff" cx="1.7" cy="1.7" r="1.7"></circle>
    </svg>
    <svg viewBox="0 0 3.4 3.4" x="1352" y="1544" width="64" height="64" shape-rendering="auto">
      <circle fill="#ffffff" cx="1.7" cy="1.7" r="1.7"></circle>
    </svg>
    <svg viewBox="0 0 3.4 3.4" x="1416" y="1544" width="64" height="64" shape-rendering="auto">
      <circle fill="#ffffff" cx="1.7" cy="1.7" r="1.7"></circle>
    </svg>
    <svg viewBox="0 0 3.4 3.4" x="1480" y="1544" width="64" height="64" shape-rendering="auto">
      <circle fill="#ffffff" cx="1.7" cy="1.7" r="1.7"></circle>
    </svg>
    <svg viewBox="0 0 3.4 3.4" x="1544" y="1544" width="64" height="64" shape-rendering="auto">
      <circle fill="#ffffff" cx="1.7" cy="1.7" r="1.7"></circle>
    </svg>
    <svg viewBox="0 0 3.4 3.4" x="1672" y="1544" width="64" height="64" shape-rendering="auto">
      <circle fill="#ffffff" cx="1.7" cy="1.7" r="1.7"></circle>
    </svg>
    <svg viewBox="0 0 3.4 3.4" x="1736" y="1544" width="64" height="64" shape-rendering="auto">
      <circle fill="#ffffff" cx="1.7" cy="1.7" r="1.7"></circle>
    </svg>
    <svg viewBox="0 0 3.4 3.4" x="712" y="1608" width="64" height="64" shape-rendering="auto">
      <circle fill="#ffffff" cx="1.7" cy="1.7" r="1.7"></circle>
    </svg>
    <svg viewBox="0 0 3.4 3.4" x="776" y="1608" width="64" height="64" shape-rendering="auto">
      <circle fill="#ffffff" cx="1.7" cy="1.7" r="1.7"></circle>
    </svg>
    <svg viewBox="0 0 3.4 3.4" x="968" y="1608" width="64" height="64" shape-rendering="auto">
      <circle fill="#ffffff" cx="1.7" cy="1.7" r="1.7"></circle>
    </svg>
    <svg viewBox="0 0 3.4 3.4" x="1032" y="1608" width="64" height="64" shape-rendering="auto">
      <circle fill="#ffffff" cx="1.7" cy="1.7" r="1.7"></circle>
    </svg>
    <svg viewBox="0 0 3.4 3.4" x="1096" y="1608" width="64" height="64" shape-rendering="auto">
      <circle fill="#ffffff" cx="1.7" cy="1.7" r="1.7"></circle>
    </svg>
    <svg viewBox="0 0 3.4 3.4" x="1416" y="1608" width="64" height="64" shape-rendering="auto">
      <circle fill="#ffffff" cx="1.7" cy="1.7" r="1.7"></circle>
    </svg>
    <svg viewBox="0 0 3.4 3.4" x="1480" y="1608" width="64" height="64" shape-rendering="auto">
      <circle fill="#ffffff" cx="1.7" cy="1.7" r="1.7"></circle>
    </svg>
    <svg viewBox="0 0 3.4 3.4" x="1608" y="1608" width="64" height="64" shape-rendering="auto">
      <circle fill="#ffffff" cx="1.7" cy="1.7" r="1.7"></circle>
    </svg>
    <svg viewBox="0 0 3.4 3.4" x="1736" y="1608" width="64" height="64" shape-rendering="auto">
      <circle fill="#ffffff" cx="1.7" cy="1.7" r="1.7"></circle>
    </svg>
    <svg viewBox="0 0 3.4 3.4" x="712" y="1672" width="64" height="64" shape-rendering="auto">
      <circle fill="#ffffff" cx="1.7" cy="1.7" r="1.7"></circle>
    </svg>
    <svg viewBox="0 0 3.4 3.4" x="776" y="1672" width="64" height="64" shape-rendering="auto">
      <circle fill="#ffffff" cx="1.7" cy="1.7" r="1.7"></circle>
    </svg>
    <svg viewBox="0 0 3.4 3.4" x="840" y="1672" width="64" height="64" shape-rendering="auto">
      <circle fill="#ffffff" cx="1.7" cy="1.7" r="1.7"></circle>
    </svg>
    <svg viewBox="0 0 3.4 3.4" x="904" y="1672" width="64" height="64" shape-rendering="auto">
      <circle fill="#ffffff" cx="1.7" cy="1.7" r="1.7"></circle>
    </svg>
    <svg viewBox="0 0 3.4 3.4" x="1096" y="1672" width="64" height="64" shape-rendering="auto">
      <circle fill="#ffffff" cx="1.7" cy="1.7" r="1.7"></circle>
    </svg>
    <svg viewBox="0 0 3.4 3.4" x="1288" y="1672" width="64" height="64" shape-rendering="auto">
      <circle fill="#ffffff" cx="1.7" cy="1.7" r="1.7"></circle>
    </svg>
    <svg viewBox="0 0 3.4 3.4" x="1352" y="1672" width="64" height="64" shape-rendering="auto">
      <circle fill="#ffffff" cx="1.7" cy="1.7" r="1.7"></circle>
    </svg>
    <svg viewBox="0 0 3.4 3.4" x="1480" y="1672" width="64" height="64" shape-rendering="auto">
      <circle fill="#ffffff" cx="1.7" cy="1.7" r="1.7"></circle>
    </svg>
    <svg viewBox="0 0 3.4 3.4" x="1544" y="1672" width="64" height="64" shape-rendering="auto">
      <circle fill="#ffffff" cx="1.7" cy="1.7" r="1.7"></circle>
    </svg>
    <svg viewBox="0 0 3.4 3.4" x="1608" y="1672" width="64" height="64" shape-rendering="auto">
      <circle fill="#ffffff" cx="1.7" cy="1.7" r="1.7"></circle>
    </svg>
    <svg viewBox="0 0 3.4 3.4" x="1672" y="1672" width="64" height="64" shape-rendering="auto">
      <circle fill="#ffffff" cx="1.7" cy="1.7" r="1.7"></circle>
    </svg>
    <svg viewBox="0 0 3.4 3.4" x="712" y="1736" width="64" height="64" shape-rendering="auto">
      <circle fill="#ffffff" cx="1.7" cy="1.7" r="1.7"></circle>
    </svg>
    <svg viewBox="0 0 3.4 3.4" x="776" y="1736" width="64" height="64" shape-rendering="auto">
      <circle fill="#ffffff" cx="1.7" cy="1.7" r="1.7"></circle>
    </svg>
    <svg viewBox="0 0 3.4 3.4" x="840" y="1736" width="64" height="64" shape-rendering="auto">
      <circle fill="#ffffff" cx="1.7" cy="1.7" r="1.7"></circle>
    </svg>
    <svg viewBox="0 0 3.4 3.4" x="968" y="1736" width="64" height="64" shape-rendering="auto">
      <circle fill="#ffffff" cx="1.7" cy="1.7" r="1.7"></circle>
    </svg>
    <svg viewBox="0 0 3.4 3.4" x="1032" y="1736" width="64" height="64" shape-rendering="auto">
      <circle fill="#ffffff" cx="1.7" cy="1.7" r="1.7"></circle>
    </svg>
    <svg viewBox="0 0 3.4 3.4" x="1544" y="1736" width="64" height="64" shape-rendering="auto">
      <circle fill="#ffffff" cx="1.7" cy="1.7" r="1.7"></circle>
    </svg>
    <svg viewBox="0 0 3.4 3.4" x="1608" y="1736" width="64" height="64" shape-rendering="auto">
      <circle fill="#ffffff" cx="1.7" cy="1.7" r="1.7"></circle>
    </svg>
    <svg viewBox="0 0 3.4 3.4" x="1672" y="1736" width="64" height="64" shape-rendering="auto">
      <circle fill="#ffffff" cx="1.7" cy="1.7" r="1.7"></circle>
    </svg>
    <svg viewBox="0 0 3.4 3.4" x="1736" y="1736" width="64" height="64" shape-rendering="auto">
      <circle fill="#ffffff" cx="1.7" cy="1.7" r="1.7"></circle>
    </svg>
    <svg version="1.1" id="Ebene_1" x="200" y="200" width="448" height="448" viewBox="0 0 699.988 699.986" enable-background="new 0 0 699.988 699.986" xml:space="preserve" shape-rendering="auto">
      <path fill="#ffffff" d="M600.99,0h-100h-99.997h-0.001h-99.997h-99.998h-99.998H1v99.998v99.998v99.998v99.999v99.997v99.998v99.998  h99.999h99.998h99.998h99.997h0.001h99.997h100h99.998v-99.998V499.99v-99.997v-99.999v-99.998V99.998V0H600.99z M600.99,199.996  v99.998v99.999v99.997v99.998h-100h-99.997h-0.001h-99.997h-99.998h-99.998V499.99v-99.997v-99.999v-99.998V99.998h99.998h99.998  h99.997h0.001h99.997h100V199.996z"></path>
    </svg>
    <svg version="1.0" id="Ebene_1" x="200" y="200" width="448" height="448" viewBox="0 0 699.988 699.988" enable-background="new 0 0 699.988 699.988" xml:space="preserve" shape-rendering="auto">
      <polygon fill="#ffffff" points="399.994,199.997 399.992,199.997 299.996,199.997 199.998,199.997 199.998,299.994 199.998,399.994   199.998,499.991 299.996,499.991 399.992,499.991 399.994,499.991 499.99,499.991 499.99,399.994 499.99,299.994 499.99,199.997 "></polygon>
    </svg>
    <svg version="1.1" id="Ebene_1" x="1352" y="200" width="448" height="448" viewBox="0 0 699.988 699.986" enable-background="new 0 0 699.988 699.986" xml:space="preserve" shape-rendering="auto">
      <path fill="#ffffff" d="M600.99,0h-100h-99.997h-0.001h-99.997h-99.998h-99.998H1v99.998v99.998v99.998v99.999v99.997v99.998v99.998  h99.999h99.998h99.998h99.997h0.001h99.997h100h99.998v-99.998V499.99v-99.997v-99.999v-99.998V99.998V0H600.99z M600.99,199.996  v99.998v99.999v99.997v99.998h-100h-99.997h-0.001h-99.997h-99.998h-99.998V499.99v-99.997v-99.999v-99.998V99.998h99.998h99.998  h99.997h0.001h99.997h100V199.996z"></path>
    </svg>
    <svg version="1.0" id="Ebene_1" x="1352" y="200" width="448" height="448" viewBox="0 0 699.988 699.988" enable-background="new 0 0 699.988 699.988" xml:space="preserve" shape-rendering="auto">
      <polygon fill="#ffffff" points="399.994,199.997 399.992,199.997 299.996,199.997 199.998,199.997 199.998,299.994 199.998,399.994   199.998,499.991 299.996,499.991 399.992,499.991 399.994,499.991 499.99,499.991 499.99,399.994 499.99,299.994 499.99,199.997 "></polygon>
    </svg>
    <svg version="1.1" id="Ebene_1" x="200" y="1352" width="448" height="448" viewBox="0 0 699.988 699.986" enable-background="new 0 0 699.988 699.986" xml:space="preserve" shape-rendering="auto">
      <path fill="#ffffff" d="M600.99,0h-100h-99.997h-0.001h-99.997h-99.998h-99.998H1v99.998v99.998v99.998v99.999v99.997v99.998v99.998  h99.999h99.998h99.998h99.997h0.001h99.997h100h99.998v-99.998V499.99v-99.997v-99.999v-99.998V99.998V0H600.99z M600.99,199.996  v99.998v99.999v99.997v99.998h-100h-99.997h-0.001h-99.997h-99.998h-99.998V499.99v-99.997v-99.999v-99.998V99.998h99.998h99.998  h99.997h0.001h99.997h100V199.996z"></path>
    </svg>
    <svg version="1.0" id="Ebene_1" x="200" y="1352" width="448" height="448" viewBox="0 0 699.988 699.988" enable-background="new 0 0 699.988 699.988" xml:space="preserve" shape-rendering="auto">
      <polygon fill="#ffffff" points="399.994,199.997 399.992,199.997 299.996,199.997 199.998,199.997 199.998,299.994 199.998,399.994   199.998,499.991 299.996,499.991 399.992,499.991 399.994,499.991 499.99,499.991 499.99,399.994 499.99,299.994 499.99,199.997 "></polygon>
    </svg>
  </svg>
</svg>